<ttFont>
    <TTGlyph name="A" xMin="16" yMin="0" xMax="555" yMax="701">
      <contour>
        <pt x="246" y="674" on="1"/>
        <pt x="255" y="701" on="0"/>
        <pt x="314" y="701" on="0"/>
        <pt x="324" y="673" on="1"/>
        <pt x="554" y="27" on="1"/>
        <pt x="555" y="24" on="0"/>
        <pt x="555" y="20" on="1"/>
        <pt x="555" y="0" on="0"/>
        <pt x="535" y="0" on="1"/>
        <pt x="523" y="0" on="1"/>
        <pt x="510" y="0" on="0"/>
        <pt x="504" y="13" on="1"/>
        <pt x="286" y="634" on="1"/>
        <pt x="67" y="13" on="1"/>
        <pt x="61" y="0" on="0"/>
        <pt x="48" y="0" on="1"/>
        <pt x="36" y="0" on="1"/>
        <pt x="16" y="0" on="0"/>
        <pt x="16" y="20" on="1"/>
        <pt x="16" y="24" on="0"/>
        <pt x="17" y="27" on="1"/>
      </contour>
      <contour>
        <pt x="199" y="308" on="1"/>
        <pt x="372" y="308" on="1"/>
        <pt x="380" y="308" on="0"/>
        <pt x="392" y="297" on="0"/>
        <pt x="392" y="288" on="1"/>
        <pt x="392" y="279" on="1"/>
        <pt x="392" y="270" on="0"/>
        <pt x="380" y="259" on="0"/>
        <pt x="372" y="259" on="1"/>
        <pt x="199" y="259" on="1"/>
        <pt x="180" y="259" on="0"/>
        <pt x="180" y="279" on="1"/>
        <pt x="180" y="288" on="1"/>
        <pt x="180" y="308" on="0"/>
      </contour>
    </TTGlyph>
    <TTGlyph name="AE" xMin="16" yMin="0" xMax="909" yMax="701">
      <contour>
        <pt x="540" y="700" on="1"/>
        <pt x="518" y="700" on="0"/>
        <pt x="500" y="681" on="0"/>
        <pt x="500" y="661" on="1"/>
        <pt x="500" y="40" on="1"/>
        <pt x="500" y="21" on="0"/>
        <pt x="515" y="0" on="0"/>
        <pt x="539" y="0" on="1"/>
        <pt x="889" y="0" on="1"/>
        <pt x="897" y="0" on="0"/>
        <pt x="909" y="12" on="0"/>
        <pt x="909" y="20" on="1"/>
        <pt x="909" y="29" on="1"/>
        <pt x="909" y="38" on="0"/>
        <pt x="897" y="49" on="0"/>
        <pt x="889" y="49" on="1"/>
        <pt x="550" y="49" on="1"/>
        <pt x="550" y="651" on="1"/>
        <pt x="889" y="651" on="1"/>
        <pt x="897" y="651" on="0"/>
        <pt x="909" y="662" on="0"/>
        <pt x="909" y="671" on="1"/>
        <pt x="909" y="680" on="1"/>
        <pt x="909" y="688" on="0"/>
        <pt x="897" y="700" on="0"/>
        <pt x="889" y="700" on="1"/>
      </contour>
      <contour>
        <pt x="610" y="388" on="1"/>
        <pt x="824" y="388" on="1"/>
        <pt x="833" y="388" on="0"/>
        <pt x="844" y="376" on="0"/>
        <pt x="844" y="368" on="1"/>
        <pt x="844" y="359" on="1"/>
        <pt x="844" y="339" on="0"/>
        <pt x="824" y="339" on="1"/>
        <pt x="610" y="339" on="1"/>
        <pt x="590" y="339" on="0"/>
        <pt x="590" y="359" on="1"/>
        <pt x="590" y="368" on="1"/>
        <pt x="590" y="376" on="0"/>
        <pt x="601" y="388" on="0"/>
      </contour>
      <contour>
        <pt x="246" y="674" on="1"/>
        <pt x="255" y="701" on="0"/>
        <pt x="314" y="701" on="0"/>
        <pt x="324" y="673" on="1"/>
        <pt x="554" y="27" on="1"/>
        <pt x="555" y="24" on="0"/>
        <pt x="555" y="20" on="1"/>
        <pt x="555" y="0" on="0"/>
        <pt x="535" y="0" on="1"/>
        <pt x="523" y="0" on="1"/>
        <pt x="510" y="0" on="0"/>
        <pt x="504" y="13" on="1"/>
        <pt x="286" y="634" on="1"/>
        <pt x="67" y="13" on="1"/>
        <pt x="61" y="0" on="0"/>
        <pt x="48" y="0" on="1"/>
        <pt x="36" y="0" on="1"/>
        <pt x="16" y="0" on="0"/>
        <pt x="16" y="20" on="1"/>
        <pt x="16" y="24" on="0"/>
        <pt x="17" y="27" on="1"/>
      </contour>
      <contour>
        <pt x="199" y="308" on="1"/>
        <pt x="372" y="308" on="1"/>
        <pt x="380" y="308" on="0"/>
        <pt x="392" y="297" on="0"/>
        <pt x="392" y="288" on="1"/>
        <pt x="392" y="279" on="1"/>
        <pt x="392" y="270" on="0"/>
        <pt x="380" y="259" on="0"/>
        <pt x="372" y="259" on="1"/>
        <pt x="199" y="259" on="1"/>
        <pt x="180" y="259" on="0"/>
        <pt x="180" y="279" on="1"/>
        <pt x="180" y="288" on="1"/>
        <pt x="180" y="308" on="0"/>
      </contour>
    </TTGlyph>
    <TTGlyph name="Aacute" xMin="16" yMin="0" xMax="555" yMax="933">
      <contour>
        <pt x="246" y="674" on="1"/>
        <pt x="255" y="701" on="0"/>
        <pt x="314" y="701" on="0"/>
        <pt x="324" y="673" on="1"/>
        <pt x="554" y="27" on="1"/>
        <pt x="555" y="24" on="0"/>
        <pt x="555" y="20" on="1"/>
        <pt x="555" y="0" on="0"/>
        <pt x="535" y="0" on="1"/>
        <pt x="523" y="0" on="1"/>
        <pt x="510" y="0" on="0"/>
        <pt x="504" y="13" on="1"/>
        <pt x="286" y="634" on="1"/>
        <pt x="67" y="13" on="1"/>
        <pt x="61" y="0" on="0"/>
        <pt x="48" y="0" on="1"/>
        <pt x="36" y="0" on="1"/>
        <pt x="16" y="0" on="0"/>
        <pt x="16" y="20" on="1"/>
        <pt x="16" y="24" on="0"/>
        <pt x="17" y="27" on="1"/>
      </contour>
      <contour>
        <pt x="199" y="308" on="1"/>
        <pt x="372" y="308" on="1"/>
        <pt x="380" y="308" on="0"/>
        <pt x="392" y="297" on="0"/>
        <pt x="392" y="288" on="1"/>
        <pt x="392" y="279" on="1"/>
        <pt x="392" y="270" on="0"/>
        <pt x="380" y="259" on="0"/>
        <pt x="372" y="259" on="1"/>
        <pt x="199" y="259" on="1"/>
        <pt x="180" y="259" on="0"/>
        <pt x="180" y="279" on="1"/>
        <pt x="180" y="288" on="1"/>
        <pt x="180" y="308" on="0"/>
      </contour>
      <contour>
        <pt x="345" y="932" on="1"/>
        <pt x="371" y="932" on="0"/>
        <pt x="371" y="909" on="1"/>
        <pt x="371" y="904" on="0"/>
        <pt x="364" y="896" on="1"/>
        <pt x="257" y="763" on="1"/>
        <pt x="243" y="746" on="0"/>
        <pt x="212" y="746" on="0"/>
        <pt x="202" y="761" on="0"/>
        <pt x="202" y="772" on="0"/>
        <pt x="207" y="778" on="1"/>
        <pt x="314" y="914" on="1"/>
        <pt x="318" y="918" on="0"/>
        <pt x="320" y="922" on="0"/>
        <pt x="325" y="927" on="0"/>
        <pt x="327" y="928" on="0"/>
        <pt x="333" y="932" on="0"/>
        <pt x="337" y="931" on="0"/>
        <pt x="343" y="932" on="0"/>
      </contour>
    </TTGlyph>
    <TTGlyph name="Acircumflex" xMin="16" yMin="0" xMax="555" yMax="952">
      <contour>
        <pt x="246" y="674" on="1"/>
        <pt x="255" y="701" on="0"/>
        <pt x="314" y="701" on="0"/>
        <pt x="324" y="673" on="1"/>
        <pt x="554" y="27" on="1"/>
        <pt x="555" y="24" on="0"/>
        <pt x="555" y="20" on="1"/>
        <pt x="555" y="0" on="0"/>
        <pt x="535" y="0" on="1"/>
        <pt x="523" y="0" on="1"/>
        <pt x="510" y="0" on="0"/>
        <pt x="504" y="13" on="1"/>
        <pt x="286" y="634" on="1"/>
        <pt x="67" y="13" on="1"/>
        <pt x="61" y="0" on="0"/>
        <pt x="48" y="0" on="1"/>
        <pt x="36" y="0" on="1"/>
        <pt x="16" y="0" on="0"/>
        <pt x="16" y="20" on="1"/>
        <pt x="16" y="24" on="0"/>
        <pt x="17" y="27" on="1"/>
      </contour>
      <contour>
        <pt x="199" y="308" on="1"/>
        <pt x="372" y="308" on="1"/>
        <pt x="380" y="308" on="0"/>
        <pt x="392" y="297" on="0"/>
        <pt x="392" y="288" on="1"/>
        <pt x="392" y="279" on="1"/>
        <pt x="392" y="270" on="0"/>
        <pt x="380" y="259" on="0"/>
        <pt x="372" y="259" on="1"/>
        <pt x="199" y="259" on="1"/>
        <pt x="180" y="259" on="0"/>
        <pt x="180" y="279" on="1"/>
        <pt x="180" y="288" on="1"/>
        <pt x="180" y="308" on="0"/>
      </contour>
      <contour>
        <pt x="248" y="933" on="1"/>
        <pt x="262" y="952" on="0"/>
        <pt x="308" y="952" on="0"/>
        <pt x="322" y="933" on="1"/>
        <pt x="443" y="781" on="1"/>
        <pt x="448" y="775" on="0"/>
        <pt x="448" y="767" on="1"/>
        <pt x="448" y="749" on="0"/>
        <pt x="428" y="749" on="1"/>
        <pt x="415" y="749" on="1"/>
        <pt x="404" y="749" on="0"/>
        <pt x="400" y="755" on="1"/>
        <pt x="287" y="900" on="1"/>
        <pt x="285" y="902" on="1"/>
        <pt x="174" y="755" on="1"/>
        <pt x="170" y="749" on="0"/>
        <pt x="160" y="749" on="1"/>
        <pt x="147" y="749" on="1"/>
        <pt x="127" y="749" on="0"/>
        <pt x="127" y="767" on="1"/>
        <pt x="127" y="773" on="0"/>
        <pt x="132" y="781" on="1"/>
      </contour>
    </TTGlyph>
    <TTGlyph name="Adieresis" xMin="16" yMin="0" xMax="555" yMax="867">
      <contour>
        <pt x="246" y="674" on="1"/>
        <pt x="255" y="701" on="0"/>
        <pt x="314" y="701" on="0"/>
        <pt x="324" y="673" on="1"/>
        <pt x="554" y="27" on="1"/>
        <pt x="555" y="24" on="0"/>
        <pt x="555" y="20" on="1"/>
        <pt x="555" y="0" on="0"/>
        <pt x="535" y="0" on="1"/>
        <pt x="523" y="0" on="1"/>
        <pt x="510" y="0" on="0"/>
        <pt x="504" y="13" on="1"/>
        <pt x="286" y="634" on="1"/>
        <pt x="67" y="13" on="1"/>
        <pt x="61" y="0" on="0"/>
        <pt x="48" y="0" on="1"/>
        <pt x="36" y="0" on="1"/>
        <pt x="16" y="0" on="0"/>
        <pt x="16" y="20" on="1"/>
        <pt x="16" y="24" on="0"/>
        <pt x="17" y="27" on="1"/>
      </contour>
      <contour>
        <pt x="199" y="308" on="1"/>
        <pt x="372" y="308" on="1"/>
        <pt x="380" y="308" on="0"/>
        <pt x="392" y="297" on="0"/>
        <pt x="392" y="288" on="1"/>
        <pt x="392" y="279" on="1"/>
        <pt x="392" y="270" on="0"/>
        <pt x="380" y="259" on="0"/>
        <pt x="372" y="259" on="1"/>
        <pt x="199" y="259" on="1"/>
        <pt x="180" y="259" on="0"/>
        <pt x="180" y="279" on="1"/>
        <pt x="180" y="288" on="1"/>
        <pt x="180" y="308" on="0"/>
      </contour>
      <contour>
        <pt x="318" y="851" on="0"/>
        <pt x="336" y="867" on="0"/>
        <pt x="401" y="867" on="0"/>
        <pt x="421" y="850" on="0"/>
        <pt x="421" y="822" on="1"/>
        <pt x="421" y="810" on="1"/>
        <pt x="421" y="780" on="0"/>
        <pt x="401" y="763" on="0"/>
        <pt x="336" y="763" on="0"/>
        <pt x="318" y="780" on="0"/>
        <pt x="318" y="810" on="1"/>
        <pt x="318" y="822" on="1"/>
      </contour>
      <contour>
        <pt x="152" y="851" on="0"/>
        <pt x="170" y="867" on="0"/>
        <pt x="235" y="867" on="0"/>
        <pt x="255" y="850" on="0"/>
        <pt x="255" y="822" on="1"/>
        <pt x="255" y="810" on="1"/>
        <pt x="255" y="780" on="0"/>
        <pt x="235" y="763" on="0"/>
        <pt x="170" y="763" on="0"/>
        <pt x="152" y="779" on="0"/>
        <pt x="152" y="810" on="1"/>
        <pt x="152" y="822" on="1"/>
      </contour>
      <contour>
        <pt x="223" y="829" on="0"/>
        <pt x="215" y="835" on="0"/>
        <pt x="191" y="835" on="0"/>
        <pt x="184" y="830" on="0"/>
        <pt x="184" y="820" on="1"/>
        <pt x="184" y="810" on="1"/>
        <pt x="184" y="800" on="0"/>
        <pt x="191" y="795" on="0"/>
        <pt x="216" y="795" on="0"/>
        <pt x="223" y="800" on="0"/>
        <pt x="223" y="810" on="1"/>
        <pt x="223" y="820" on="1"/>
      </contour>
      <contour>
        <pt x="389" y="829" on="0"/>
        <pt x="381" y="835" on="0"/>
        <pt x="357" y="835" on="0"/>
        <pt x="350" y="830" on="0"/>
        <pt x="350" y="820" on="1"/>
        <pt x="350" y="810" on="1"/>
        <pt x="350" y="800" on="0"/>
        <pt x="357" y="795" on="0"/>
        <pt x="382" y="795" on="0"/>
        <pt x="389" y="800" on="0"/>
        <pt x="389" y="810" on="1"/>
        <pt x="389" y="820" on="1"/>
      </contour>
    </TTGlyph>
    <TTGlyph name="Agrave" xMin="16" yMin="0" xMax="555" yMax="933">
      <contour>
        <pt x="246" y="674" on="1"/>
        <pt x="255" y="701" on="0"/>
        <pt x="314" y="701" on="0"/>
        <pt x="324" y="673" on="1"/>
        <pt x="554" y="27" on="1"/>
        <pt x="555" y="24" on="0"/>
        <pt x="555" y="20" on="1"/>
        <pt x="555" y="0" on="0"/>
        <pt x="535" y="0" on="1"/>
        <pt x="523" y="0" on="1"/>
        <pt x="510" y="0" on="0"/>
        <pt x="504" y="13" on="1"/>
        <pt x="286" y="634" on="1"/>
        <pt x="67" y="13" on="1"/>
        <pt x="61" y="0" on="0"/>
        <pt x="48" y="0" on="1"/>
        <pt x="36" y="0" on="1"/>
        <pt x="16" y="0" on="0"/>
        <pt x="16" y="20" on="1"/>
        <pt x="16" y="24" on="0"/>
        <pt x="17" y="27" on="1"/>
      </contour>
      <contour>
        <pt x="199" y="308" on="1"/>
        <pt x="372" y="308" on="1"/>
        <pt x="380" y="308" on="0"/>
        <pt x="392" y="297" on="0"/>
        <pt x="392" y="288" on="1"/>
        <pt x="392" y="279" on="1"/>
        <pt x="392" y="270" on="0"/>
        <pt x="380" y="259" on="0"/>
        <pt x="372" y="259" on="1"/>
        <pt x="199" y="259" on="1"/>
        <pt x="180" y="259" on="0"/>
        <pt x="180" y="279" on="1"/>
        <pt x="180" y="288" on="1"/>
        <pt x="180" y="308" on="0"/>
      </contour>
      <contour>
        <pt x="221" y="912" on="1"/>
        <pt x="221" y="932" on="0"/>
        <pt x="248" y="932" on="1"/>
        <pt x="262" y="932" on="0"/>
        <pt x="271" y="923" on="0"/>
        <pt x="278" y="914" on="1"/>
        <pt x="385" y="778" on="1"/>
        <pt x="390" y="772" on="0"/>
        <pt x="390" y="761" on="0"/>
        <pt x="380" y="746" on="0"/>
        <pt x="349" y="746" on="0"/>
        <pt x="335" y="763" on="1"/>
        <pt x="228" y="896" on="1"/>
        <pt x="221" y="904" on="0"/>
      </contour>
    </TTGlyph>
    <TTGlyph name="Aring" xMin="16" yMin="0" xMax="555" yMax="933">
      <contour>
        <pt x="246" y="674" on="1"/>
        <pt x="255" y="701" on="0"/>
        <pt x="314" y="701" on="0"/>
        <pt x="324" y="673" on="1"/>
        <pt x="554" y="27" on="1"/>
        <pt x="555" y="24" on="0"/>
        <pt x="555" y="20" on="1"/>
        <pt x="555" y="0" on="0"/>
        <pt x="535" y="0" on="1"/>
        <pt x="523" y="0" on="1"/>
        <pt x="510" y="0" on="0"/>
        <pt x="504" y="13" on="1"/>
        <pt x="286" y="634" on="1"/>
        <pt x="67" y="13" on="1"/>
        <pt x="61" y="0" on="0"/>
        <pt x="48" y="0" on="1"/>
        <pt x="36" y="0" on="1"/>
        <pt x="16" y="0" on="0"/>
        <pt x="16" y="20" on="1"/>
        <pt x="16" y="24" on="0"/>
        <pt x="17" y="27" on="1"/>
      </contour>
      <contour>
        <pt x="199" y="308" on="1"/>
        <pt x="372" y="308" on="1"/>
        <pt x="380" y="308" on="0"/>
        <pt x="392" y="297" on="0"/>
        <pt x="392" y="288" on="1"/>
        <pt x="392" y="279" on="1"/>
        <pt x="392" y="270" on="0"/>
        <pt x="380" y="259" on="0"/>
        <pt x="372" y="259" on="1"/>
        <pt x="199" y="259" on="1"/>
        <pt x="180" y="259" on="0"/>
        <pt x="180" y="279" on="1"/>
        <pt x="180" y="288" on="1"/>
        <pt x="180" y="308" on="0"/>
      </contour>
      <contour>
        <pt x="188" y="889" on="0"/>
        <pt x="240" y="933" on="0"/>
        <pt x="331" y="933" on="0"/>
        <pt x="380" y="889" on="0"/>
        <pt x="380" y="848" on="1"/>
        <pt x="380" y="786" on="1"/>
        <pt x="380" y="745" on="0"/>
        <pt x="331" y="701" on="0"/>
        <pt x="240" y="701" on="0"/>
        <pt x="188" y="745" on="0"/>
        <pt x="188" y="786" on="1"/>
        <pt x="188" y="848" on="1"/>
      </contour>
      <contour>
        <pt x="338" y="864" on="0"/>
        <pt x="308" y="890" on="0"/>
        <pt x="262" y="890" on="0"/>
        <pt x="230" y="865" on="0"/>
        <pt x="230" y="841" on="1"/>
        <pt x="230" y="793" on="1"/>
        <pt x="230" y="769" on="0"/>
        <pt x="262" y="744" on="0"/>
        <pt x="308" y="744" on="0"/>
        <pt x="338" y="770" on="0"/>
        <pt x="338" y="793" on="1"/>
        <pt x="338" y="841" on="1"/>
      </contour>
    </TTGlyph>
    <TTGlyph name="Atilde" xMin="16" yMin="0" xMax="555" yMax="888">
      <contour>
        <pt x="246" y="674" on="1"/>
        <pt x="255" y="701" on="0"/>
        <pt x="314" y="701" on="0"/>
        <pt x="324" y="673" on="1"/>
        <pt x="554" y="27" on="1"/>
        <pt x="555" y="24" on="0"/>
        <pt x="555" y="20" on="1"/>
        <pt x="555" y="0" on="0"/>
        <pt x="535" y="0" on="1"/>
        <pt x="523" y="0" on="1"/>
        <pt x="510" y="0" on="0"/>
        <pt x="504" y="13" on="1"/>
        <pt x="286" y="634" on="1"/>
        <pt x="67" y="13" on="1"/>
        <pt x="61" y="0" on="0"/>
        <pt x="48" y="0" on="1"/>
        <pt x="36" y="0" on="1"/>
        <pt x="16" y="0" on="0"/>
        <pt x="16" y="20" on="1"/>
        <pt x="16" y="24" on="0"/>
        <pt x="17" y="27" on="1"/>
      </contour>
      <contour>
        <pt x="199" y="308" on="1"/>
        <pt x="372" y="308" on="1"/>
        <pt x="380" y="308" on="0"/>
        <pt x="392" y="297" on="0"/>
        <pt x="392" y="288" on="1"/>
        <pt x="392" y="279" on="1"/>
        <pt x="392" y="270" on="0"/>
        <pt x="380" y="259" on="0"/>
        <pt x="372" y="259" on="1"/>
        <pt x="199" y="259" on="1"/>
        <pt x="180" y="259" on="0"/>
        <pt x="180" y="279" on="1"/>
        <pt x="180" y="288" on="1"/>
        <pt x="180" y="308" on="0"/>
      </contour>
      <contour>
        <pt x="421" y="888" on="1"/>
        <pt x="445" y="888" on="1"/>
        <pt x="458" y="888" on="0"/>
        <pt x="458" y="871" on="1"/>
        <pt x="458" y="815" on="0"/>
        <pt x="410" y="758" on="0"/>
        <pt x="366" y="758" on="1"/>
        <pt x="342" y="758" on="0"/>
        <pt x="300" y="782" on="0"/>
        <pt x="251" y="825" on="0"/>
        <pt x="223" y="843" on="0"/>
        <pt x="185" y="843" on="0"/>
        <pt x="155" y="810" on="0"/>
        <pt x="155" y="774" on="1"/>
        <pt x="155" y="758" on="0"/>
        <pt x="140" y="758" on="1"/>
        <pt x="125" y="758" on="1"/>
        <pt x="112" y="758" on="0"/>
        <pt x="112" y="778" on="1"/>
        <pt x="112" y="830" on="0"/>
        <pt x="163" y="886" on="0"/>
        <pt x="207" y="886" on="1"/>
        <pt x="243" y="886" on="0"/>
        <pt x="288" y="850" on="1"/>
        <pt x="293" y="846" on="0"/>
        <pt x="320" y="824" on="0"/>
        <pt x="325" y="820" on="1"/>
        <pt x="347" y="802" on="0"/>
        <pt x="364" y="802" on="1"/>
        <pt x="412" y="802" on="0"/>
        <pt x="412" y="870" on="1"/>
        <pt x="412" y="873" on="0"/>
        <pt x="412" y="876" on="1"/>
        <pt x="412" y="888" on="0"/>
      </contour>
    </TTGlyph>
    <TTGlyph name="B" xMin="51" yMin="0" xMax="483" yMax="700">
      <contour>
        <pt x="94" y="700" on="1"/>
        <pt x="202" y="700" on="1"/>
        <pt x="322" y="700" on="0"/>
        <pt x="377" y="667" on="1"/>
        <pt x="454" y="620" on="0"/>
        <pt x="454" y="517" on="1"/>
        <pt x="452" y="469" on="0"/>
        <pt x="402" y="383" on="0"/>
        <pt x="346" y="363" on="1"/>
        <pt x="396" y="352" on="0"/>
        <pt x="461" y="291" on="0"/>
        <pt x="483" y="229" on="0"/>
        <pt x="483" y="143" on="0"/>
        <pt x="442" y="55" on="0"/>
        <pt x="403" y="32" on="1"/>
        <pt x="346" y="0" on="0"/>
        <pt x="241" y="0" on="1"/>
        <pt x="96" y="0" on="1"/>
        <pt x="70" y="0" on="0"/>
        <pt x="51" y="19" on="0"/>
        <pt x="51" y="46" on="1"/>
        <pt x="51" y="656" on="1"/>
        <pt x="51" y="682" on="0"/>
        <pt x="68" y="700" on="0"/>
      </contour>
      <contour>
        <pt x="201" y="650" on="1"/>
        <pt x="101" y="650" on="1"/>
        <pt x="101" y="49" on="1"/>
        <pt x="257" y="49" on="1"/>
        <pt x="433" y="49" on="0"/>
        <pt x="433" y="192" on="1"/>
        <pt x="433" y="251" on="0"/>
        <pt x="336" y="338" on="0"/>
        <pt x="248" y="338" on="1"/>
        <pt x="181" y="338" on="1"/>
        <pt x="170" y="338" on="0"/>
        <pt x="160" y="339" on="0"/>
        <pt x="147" y="350" on="0"/>
        <pt x="147" y="377" on="0"/>
        <pt x="168" y="385" on="0"/>
        <pt x="187" y="385" on="1"/>
        <pt x="250" y="385" on="1"/>
        <pt x="333" y="385" on="0"/>
        <pt x="404" y="467" on="0"/>
        <pt x="404" y="518" on="1"/>
        <pt x="404" y="571" on="0"/>
        <pt x="370" y="606" on="1"/>
        <pt x="329" y="650" on="0"/>
      </contour>
    </TTGlyph>
    <TTGlyph name="C" xMin="40" yMin="-1" xMax="526" yMax="706">
      <contour>
        <pt x="201" y="697" on="0"/>
        <pt x="256" y="706" on="0"/>
        <pt x="309" y="706" on="0"/>
        <pt x="363" y="697" on="0"/>
        <pt x="428" y="668" on="0"/>
        <pt x="480" y="623" on="0"/>
        <pt x="520" y="544" on="0"/>
        <pt x="525" y="492" on="1"/>
        <pt x="525" y="470" on="0"/>
        <pt x="505" y="470" on="1"/>
        <pt x="496" y="470" on="1"/>
        <pt x="478" y="470" on="0"/>
        <pt x="476" y="488" on="1"/>
        <pt x="471" y="530" on="0"/>
        <pt x="439" y="594" on="0"/>
        <pt x="397" y="628" on="0"/>
        <pt x="370" y="639" on="1"/>
        <pt x="330" y="656" on="0"/>
        <pt x="261" y="656" on="0"/>
        <pt x="216" y="648" on="0"/>
        <pt x="160" y="622" on="0"/>
        <pt x="118" y="579" on="0"/>
        <pt x="89" y="501" on="0"/>
        <pt x="89" y="450" on="1"/>
        <pt x="89" y="254" on="1"/>
        <pt x="89" y="203" on="0"/>
        <pt x="121" y="125" on="0"/>
        <pt x="166" y="82" on="0"/>
        <pt x="196" y="69" on="1"/>
        <pt x="244" y="48" on="0"/>
        <pt x="328" y="48" on="0"/>
        <pt x="387" y="63" on="0"/>
        <pt x="416" y="82" on="1"/>
        <pt x="478" y="121" on="0"/>
        <pt x="478" y="227" on="1"/>
        <pt x="478" y="244" on="0"/>
        <pt x="489" y="254" on="0"/>
        <pt x="498" y="254" on="1"/>
        <pt x="506" y="254" on="1"/>
        <pt x="526" y="254" on="0"/>
        <pt x="526" y="234" on="1"/>
        <pt x="526" y="173" on="0"/>
        <pt x="487" y="81" on="0"/>
        <pt x="435" y="34" on="0"/>
        <pt x="400" y="20" on="1"/>
        <pt x="346" y="-1" on="0"/>
        <pt x="265" y="-1" on="0"/>
        <pt x="206" y="9" on="0"/>
        <pt x="133" y="43" on="0"/>
        <pt x="78" y="95" on="0"/>
        <pt x="40" y="190" on="0"/>
        <pt x="40" y="251" on="1"/>
        <pt x="40" y="454" on="1"/>
        <pt x="40" y="517" on="0"/>
        <pt x="77" y="613" on="0"/>
        <pt x="130" y="664" on="0"/>
      </contour>
    </TTGlyph>
    <TTGlyph name="Ccedilla" xMin="40" yMin="-269" xMax="526" yMax="706">
      <contour>
        <pt x="256" y="706" on="0"/>
        <pt x="201" y="697" on="0"/>
        <pt x="130" y="664" on="0"/>
        <pt x="77" y="613" on="0"/>
        <pt x="40" y="517" on="0"/>
        <pt x="40" y="454" on="1"/>
        <pt x="40" y="251" on="1"/>
        <pt x="40" y="190" on="0"/>
        <pt x="78" y="95" on="0"/>
        <pt x="133" y="43" on="0"/>
        <pt x="206" y="9" on="0"/>
        <pt x="265" y="-1" on="0"/>
        <pt x="346" y="-1" on="0"/>
        <pt x="400" y="20" on="1"/>
        <pt x="435" y="34" on="0"/>
        <pt x="487" y="81" on="0"/>
        <pt x="526" y="173" on="0"/>
        <pt x="526" y="234" on="1"/>
        <pt x="526" y="254" on="0"/>
        <pt x="506" y="254" on="1"/>
        <pt x="498" y="254" on="1"/>
        <pt x="489" y="254" on="0"/>
        <pt x="478" y="244" on="0"/>
        <pt x="478" y="227" on="1"/>
        <pt x="478" y="121" on="0"/>
        <pt x="416" y="82" on="1"/>
        <pt x="387" y="63" on="0"/>
        <pt x="328" y="48" on="0"/>
        <pt x="244" y="48" on="0"/>
        <pt x="196" y="69" on="1"/>
        <pt x="166" y="82" on="0"/>
        <pt x="121" y="125" on="0"/>
        <pt x="89" y="203" on="0"/>
        <pt x="89" y="254" on="1"/>
        <pt x="89" y="450" on="1"/>
        <pt x="89" y="501" on="0"/>
        <pt x="118" y="579" on="0"/>
        <pt x="160" y="622" on="0"/>
        <pt x="216" y="648" on="0"/>
        <pt x="261" y="656" on="0"/>
        <pt x="330" y="656" on="0"/>
        <pt x="370" y="639" on="1"/>
        <pt x="397" y="628" on="0"/>
        <pt x="439" y="594" on="0"/>
        <pt x="471" y="530" on="0"/>
        <pt x="476" y="488" on="1"/>
        <pt x="478" y="470" on="0"/>
        <pt x="496" y="470" on="1"/>
        <pt x="505" y="470" on="1"/>
        <pt x="525" y="470" on="0"/>
        <pt x="525" y="492" on="1"/>
        <pt x="520" y="544" on="0"/>
        <pt x="480" y="623" on="0"/>
        <pt x="428" y="668" on="0"/>
        <pt x="363" y="697" on="0"/>
        <pt x="309" y="706" on="0"/>
      </contour>
      <contour>
        <pt x="366" y="-142" on="1"/>
        <pt x="366" y="-184" on="1"/>
        <pt x="366" y="-224" on="0"/>
        <pt x="311" y="-269" on="0"/>
        <pt x="246" y="-269" on="0"/>
        <pt x="195" y="-248" on="0"/>
        <pt x="183" y="-234" on="1"/>
        <pt x="206" y="-196" on="1"/>
        <pt x="217" y="-211" on="0"/>
        <pt x="256" y="-226" on="0"/>
        <pt x="293" y="-226" on="0"/>
        <pt x="324" y="-201" on="0"/>
        <pt x="324" y="-177" on="1"/>
        <pt x="324" y="-149" on="1"/>
        <pt x="324" y="-126" on="0"/>
        <pt x="292" y="-100" on="0"/>
        <pt x="236" y="-100" on="0"/>
        <pt x="227" y="-103" on="1"/>
        <pt x="227" y="-102" on="1"/>
        <pt x="265" y="11" on="1"/>
        <pt x="307" y="10" on="1"/>
        <pt x="283" y="-57" on="1"/>
        <pt x="321" y="-60" on="0"/>
        <pt x="366" y="-104" on="0"/>
      </contour>
    </TTGlyph>
    <TTGlyph name="D" xMin="42" yMin="0" xMax="483" yMax="700">
      <contour>
        <pt x="81" y="700" on="1"/>
        <pt x="243" y="700" on="1"/>
        <pt x="391" y="700" on="0"/>
        <pt x="440" y="628" on="1"/>
        <pt x="465" y="592" on="0"/>
        <pt x="483" y="505" on="0"/>
        <pt x="483" y="439" on="1"/>
        <pt x="483" y="247" on="1"/>
        <pt x="483" y="119" on="0"/>
        <pt x="376" y="0" on="0"/>
        <pt x="249" y="0" on="1"/>
        <pt x="82" y="0" on="1"/>
        <pt x="42" y="0" on="0"/>
        <pt x="42" y="41" on="1"/>
        <pt x="42" y="660" on="1"/>
        <pt x="42" y="682" on="0"/>
        <pt x="59" y="700" on="0"/>
      </contour>
      <contour>
        <pt x="243" y="651" on="1"/>
        <pt x="92" y="651" on="1"/>
        <pt x="92" y="49" on="1"/>
        <pt x="249" y="49" on="1"/>
        <pt x="344" y="49" on="0"/>
        <pt x="434" y="139" on="0"/>
        <pt x="434" y="241" on="1"/>
        <pt x="434" y="442" on="1"/>
        <pt x="434" y="552" on="0"/>
        <pt x="354" y="651" on="0"/>
      </contour>
    </TTGlyph>
    <TTGlyph name="E" xMin="62" yMin="0" xMax="471" yMax="700">
      <contour>
        <pt x="102" y="700" on="1"/>
        <pt x="451" y="700" on="1"/>
        <pt x="459" y="700" on="0"/>
        <pt x="471" y="688" on="0"/>
        <pt x="471" y="680" on="1"/>
        <pt x="471" y="671" on="1"/>
        <pt x="471" y="662" on="0"/>
        <pt x="459" y="651" on="0"/>
        <pt x="451" y="651" on="1"/>
        <pt x="112" y="651" on="1"/>
        <pt x="112" y="49" on="1"/>
        <pt x="451" y="49" on="1"/>
        <pt x="459" y="49" on="0"/>
        <pt x="471" y="38" on="0"/>
        <pt x="471" y="29" on="1"/>
        <pt x="471" y="20" on="1"/>
        <pt x="471" y="12" on="0"/>
        <pt x="459" y="0" on="0"/>
        <pt x="451" y="0" on="1"/>
        <pt x="101" y="0" on="1"/>
        <pt x="77" y="0" on="0"/>
        <pt x="62" y="21" on="0"/>
        <pt x="62" y="40" on="1"/>
        <pt x="62" y="661" on="1"/>
        <pt x="62" y="681" on="0"/>
        <pt x="80" y="700" on="0"/>
      </contour>
      <contour>
        <pt x="172" y="388" on="1"/>
        <pt x="386" y="388" on="1"/>
        <pt x="395" y="388" on="0"/>
        <pt x="406" y="376" on="0"/>
        <pt x="406" y="368" on="1"/>
        <pt x="406" y="359" on="1"/>
        <pt x="406" y="339" on="0"/>
        <pt x="386" y="339" on="1"/>
        <pt x="172" y="339" on="1"/>
        <pt x="152" y="339" on="0"/>
        <pt x="152" y="359" on="1"/>
        <pt x="152" y="368" on="1"/>
        <pt x="152" y="376" on="0"/>
        <pt x="163" y="388" on="0"/>
      </contour>
    </TTGlyph>
    <TTGlyph name="Eacute" xMin="62" yMin="0" xMax="471" yMax="933">
      <contour>
        <pt x="102" y="700" on="1"/>
        <pt x="451" y="700" on="1"/>
        <pt x="459" y="700" on="0"/>
        <pt x="471" y="688" on="0"/>
        <pt x="471" y="680" on="1"/>
        <pt x="471" y="671" on="1"/>
        <pt x="471" y="662" on="0"/>
        <pt x="459" y="651" on="0"/>
        <pt x="451" y="651" on="1"/>
        <pt x="112" y="651" on="1"/>
        <pt x="112" y="49" on="1"/>
        <pt x="451" y="49" on="1"/>
        <pt x="459" y="49" on="0"/>
        <pt x="471" y="38" on="0"/>
        <pt x="471" y="29" on="1"/>
        <pt x="471" y="20" on="1"/>
        <pt x="471" y="12" on="0"/>
        <pt x="459" y="0" on="0"/>
        <pt x="451" y="0" on="1"/>
        <pt x="101" y="0" on="1"/>
        <pt x="77" y="0" on="0"/>
        <pt x="62" y="21" on="0"/>
        <pt x="62" y="40" on="1"/>
        <pt x="62" y="661" on="1"/>
        <pt x="62" y="681" on="0"/>
        <pt x="80" y="700" on="0"/>
      </contour>
      <contour>
        <pt x="172" y="388" on="1"/>
        <pt x="386" y="388" on="1"/>
        <pt x="395" y="388" on="0"/>
        <pt x="406" y="376" on="0"/>
        <pt x="406" y="368" on="1"/>
        <pt x="406" y="359" on="1"/>
        <pt x="406" y="339" on="0"/>
        <pt x="386" y="339" on="1"/>
        <pt x="172" y="339" on="1"/>
        <pt x="152" y="339" on="0"/>
        <pt x="152" y="359" on="1"/>
        <pt x="152" y="368" on="1"/>
        <pt x="152" y="376" on="0"/>
        <pt x="163" y="388" on="0"/>
      </contour>
      <contour>
        <pt x="309" y="932" on="1"/>
        <pt x="335" y="932" on="0"/>
        <pt x="335" y="909" on="1"/>
        <pt x="335" y="904" on="0"/>
        <pt x="328" y="896" on="1"/>
        <pt x="221" y="763" on="1"/>
        <pt x="207" y="746" on="0"/>
        <pt x="176" y="746" on="0"/>
        <pt x="166" y="761" on="0"/>
        <pt x="166" y="772" on="0"/>
        <pt x="171" y="778" on="1"/>
        <pt x="278" y="914" on="1"/>
        <pt x="282" y="918" on="0"/>
        <pt x="284" y="922" on="0"/>
        <pt x="289" y="927" on="0"/>
        <pt x="291" y="928" on="0"/>
        <pt x="297" y="932" on="0"/>
        <pt x="301" y="931" on="0"/>
        <pt x="307" y="932" on="0"/>
      </contour>
    </TTGlyph>
    <TTGlyph name="Ecircumflex" xMin="62" yMin="0" xMax="471" yMax="952">
      <contour>
        <pt x="102" y="700" on="1"/>
        <pt x="451" y="700" on="1"/>
        <pt x="459" y="700" on="0"/>
        <pt x="471" y="688" on="0"/>
        <pt x="471" y="680" on="1"/>
        <pt x="471" y="671" on="1"/>
        <pt x="471" y="662" on="0"/>
        <pt x="459" y="651" on="0"/>
        <pt x="451" y="651" on="1"/>
        <pt x="112" y="651" on="1"/>
        <pt x="112" y="49" on="1"/>
        <pt x="451" y="49" on="1"/>
        <pt x="459" y="49" on="0"/>
        <pt x="471" y="38" on="0"/>
        <pt x="471" y="29" on="1"/>
        <pt x="471" y="20" on="1"/>
        <pt x="471" y="12" on="0"/>
        <pt x="459" y="0" on="0"/>
        <pt x="451" y="0" on="1"/>
        <pt x="101" y="0" on="1"/>
        <pt x="77" y="0" on="0"/>
        <pt x="62" y="21" on="0"/>
        <pt x="62" y="40" on="1"/>
        <pt x="62" y="661" on="1"/>
        <pt x="62" y="681" on="0"/>
        <pt x="80" y="700" on="0"/>
      </contour>
      <contour>
        <pt x="172" y="388" on="1"/>
        <pt x="386" y="388" on="1"/>
        <pt x="395" y="388" on="0"/>
        <pt x="406" y="376" on="0"/>
        <pt x="406" y="368" on="1"/>
        <pt x="406" y="359" on="1"/>
        <pt x="406" y="339" on="0"/>
        <pt x="386" y="339" on="1"/>
        <pt x="172" y="339" on="1"/>
        <pt x="152" y="339" on="0"/>
        <pt x="152" y="359" on="1"/>
        <pt x="152" y="368" on="1"/>
        <pt x="152" y="376" on="0"/>
        <pt x="163" y="388" on="0"/>
      </contour>
      <contour>
        <pt x="212" y="933" on="1"/>
        <pt x="226" y="952" on="0"/>
        <pt x="272" y="952" on="0"/>
        <pt x="286" y="933" on="1"/>
        <pt x="407" y="781" on="1"/>
        <pt x="412" y="775" on="0"/>
        <pt x="412" y="767" on="1"/>
        <pt x="412" y="749" on="0"/>
        <pt x="392" y="749" on="1"/>
        <pt x="379" y="749" on="1"/>
        <pt x="368" y="749" on="0"/>
        <pt x="364" y="755" on="1"/>
        <pt x="251" y="900" on="1"/>
        <pt x="249" y="902" on="1"/>
        <pt x="138" y="755" on="1"/>
        <pt x="134" y="749" on="0"/>
        <pt x="124" y="749" on="1"/>
        <pt x="111" y="749" on="1"/>
        <pt x="91" y="749" on="0"/>
        <pt x="91" y="767" on="1"/>
        <pt x="91" y="773" on="0"/>
        <pt x="96" y="781" on="1"/>
      </contour>
    </TTGlyph>
    <TTGlyph name="Edieresis" xMin="62" yMin="0" xMax="471" yMax="867">
      <contour>
        <pt x="102" y="700" on="1"/>
        <pt x="451" y="700" on="1"/>
        <pt x="459" y="700" on="0"/>
        <pt x="471" y="688" on="0"/>
        <pt x="471" y="680" on="1"/>
        <pt x="471" y="671" on="1"/>
        <pt x="471" y="662" on="0"/>
        <pt x="459" y="651" on="0"/>
        <pt x="451" y="651" on="1"/>
        <pt x="112" y="651" on="1"/>
        <pt x="112" y="49" on="1"/>
        <pt x="451" y="49" on="1"/>
        <pt x="459" y="49" on="0"/>
        <pt x="471" y="38" on="0"/>
        <pt x="471" y="29" on="1"/>
        <pt x="471" y="20" on="1"/>
        <pt x="471" y="12" on="0"/>
        <pt x="459" y="0" on="0"/>
        <pt x="451" y="0" on="1"/>
        <pt x="101" y="0" on="1"/>
        <pt x="77" y="0" on="0"/>
        <pt x="62" y="21" on="0"/>
        <pt x="62" y="40" on="1"/>
        <pt x="62" y="661" on="1"/>
        <pt x="62" y="681" on="0"/>
        <pt x="80" y="700" on="0"/>
      </contour>
      <contour>
        <pt x="172" y="388" on="1"/>
        <pt x="386" y="388" on="1"/>
        <pt x="395" y="388" on="0"/>
        <pt x="406" y="376" on="0"/>
        <pt x="406" y="368" on="1"/>
        <pt x="406" y="359" on="1"/>
        <pt x="406" y="339" on="0"/>
        <pt x="386" y="339" on="1"/>
        <pt x="172" y="339" on="1"/>
        <pt x="152" y="339" on="0"/>
        <pt x="152" y="359" on="1"/>
        <pt x="152" y="368" on="1"/>
        <pt x="152" y="376" on="0"/>
        <pt x="163" y="388" on="0"/>
      </contour>
      <contour>
        <pt x="282" y="851" on="0"/>
        <pt x="300" y="867" on="0"/>
        <pt x="365" y="867" on="0"/>
        <pt x="385" y="850" on="0"/>
        <pt x="385" y="822" on="1"/>
        <pt x="385" y="810" on="1"/>
        <pt x="385" y="780" on="0"/>
        <pt x="365" y="763" on="0"/>
        <pt x="300" y="763" on="0"/>
        <pt x="282" y="780" on="0"/>
        <pt x="282" y="810" on="1"/>
        <pt x="282" y="822" on="1"/>
      </contour>
      <contour>
        <pt x="116" y="851" on="0"/>
        <pt x="134" y="867" on="0"/>
        <pt x="199" y="867" on="0"/>
        <pt x="219" y="850" on="0"/>
        <pt x="219" y="822" on="1"/>
        <pt x="219" y="810" on="1"/>
        <pt x="219" y="780" on="0"/>
        <pt x="199" y="763" on="0"/>
        <pt x="134" y="763" on="0"/>
        <pt x="116" y="779" on="0"/>
        <pt x="116" y="810" on="1"/>
        <pt x="116" y="822" on="1"/>
      </contour>
      <contour>
        <pt x="187" y="829" on="0"/>
        <pt x="179" y="835" on="0"/>
        <pt x="155" y="835" on="0"/>
        <pt x="148" y="830" on="0"/>
        <pt x="148" y="820" on="1"/>
        <pt x="148" y="810" on="1"/>
        <pt x="148" y="800" on="0"/>
        <pt x="155" y="795" on="0"/>
        <pt x="180" y="795" on="0"/>
        <pt x="187" y="800" on="0"/>
        <pt x="187" y="810" on="1"/>
        <pt x="187" y="820" on="1"/>
      </contour>
      <contour>
        <pt x="353" y="829" on="0"/>
        <pt x="345" y="835" on="0"/>
        <pt x="321" y="835" on="0"/>
        <pt x="314" y="830" on="0"/>
        <pt x="314" y="820" on="1"/>
        <pt x="314" y="810" on="1"/>
        <pt x="314" y="800" on="0"/>
        <pt x="321" y="795" on="0"/>
        <pt x="346" y="795" on="0"/>
        <pt x="353" y="800" on="0"/>
        <pt x="353" y="810" on="1"/>
        <pt x="353" y="820" on="1"/>
      </contour>
    </TTGlyph>
    <TTGlyph name="Egrave" xMin="62" yMin="0" xMax="471" yMax="933">
      <contour>
        <pt x="102" y="700" on="1"/>
        <pt x="451" y="700" on="1"/>
        <pt x="459" y="700" on="0"/>
        <pt x="471" y="688" on="0"/>
        <pt x="471" y="680" on="1"/>
        <pt x="471" y="671" on="1"/>
        <pt x="471" y="662" on="0"/>
        <pt x="459" y="651" on="0"/>
        <pt x="451" y="651" on="1"/>
        <pt x="112" y="651" on="1"/>
        <pt x="112" y="49" on="1"/>
        <pt x="451" y="49" on="1"/>
        <pt x="459" y="49" on="0"/>
        <pt x="471" y="38" on="0"/>
        <pt x="471" y="29" on="1"/>
        <pt x="471" y="20" on="1"/>
        <pt x="471" y="12" on="0"/>
        <pt x="459" y="0" on="0"/>
        <pt x="451" y="0" on="1"/>
        <pt x="101" y="0" on="1"/>
        <pt x="77" y="0" on="0"/>
        <pt x="62" y="21" on="0"/>
        <pt x="62" y="40" on="1"/>
        <pt x="62" y="661" on="1"/>
        <pt x="62" y="681" on="0"/>
        <pt x="80" y="700" on="0"/>
      </contour>
      <contour>
        <pt x="172" y="388" on="1"/>
        <pt x="386" y="388" on="1"/>
        <pt x="395" y="388" on="0"/>
        <pt x="406" y="376" on="0"/>
        <pt x="406" y="368" on="1"/>
        <pt x="406" y="359" on="1"/>
        <pt x="406" y="339" on="0"/>
        <pt x="386" y="339" on="1"/>
        <pt x="172" y="339" on="1"/>
        <pt x="152" y="339" on="0"/>
        <pt x="152" y="359" on="1"/>
        <pt x="152" y="368" on="1"/>
        <pt x="152" y="376" on="0"/>
        <pt x="163" y="388" on="0"/>
      </contour>
      <contour>
        <pt x="185" y="912" on="1"/>
        <pt x="185" y="932" on="0"/>
        <pt x="212" y="932" on="1"/>
        <pt x="226" y="932" on="0"/>
        <pt x="235" y="923" on="0"/>
        <pt x="242" y="914" on="1"/>
        <pt x="349" y="778" on="1"/>
        <pt x="354" y="772" on="0"/>
        <pt x="354" y="761" on="0"/>
        <pt x="344" y="746" on="0"/>
        <pt x="313" y="746" on="0"/>
        <pt x="299" y="763" on="1"/>
        <pt x="192" y="896" on="1"/>
        <pt x="185" y="904" on="0"/>
      </contour>
    </TTGlyph>
    <TTGlyph name="Eth" xMin="-61" yMin="0" xMax="483" yMax="700">
      <contour>
        <pt x="81" y="700" on="1"/>
        <pt x="243" y="700" on="1"/>
        <pt x="391" y="700" on="0"/>
        <pt x="440" y="628" on="1"/>
        <pt x="465" y="592" on="0"/>
        <pt x="483" y="505" on="0"/>
        <pt x="483" y="439" on="1"/>
        <pt x="483" y="247" on="1"/>
        <pt x="483" y="119" on="0"/>
        <pt x="376" y="0" on="0"/>
        <pt x="249" y="0" on="1"/>
        <pt x="82" y="0" on="1"/>
        <pt x="42" y="0" on="0"/>
        <pt x="42" y="41" on="1"/>
        <pt x="42" y="660" on="1"/>
        <pt x="42" y="682" on="0"/>
        <pt x="59" y="700" on="0"/>
      </contour>
      <contour>
        <pt x="243" y="651" on="1"/>
        <pt x="92" y="651" on="1"/>
        <pt x="92" y="49" on="1"/>
        <pt x="249" y="49" on="1"/>
        <pt x="344" y="49" on="0"/>
        <pt x="434" y="139" on="0"/>
        <pt x="434" y="241" on="1"/>
        <pt x="434" y="442" on="1"/>
        <pt x="434" y="552" on="0"/>
        <pt x="354" y="651" on="0"/>
      </contour>
      <contour>
        <pt x="-41" y="374" on="1"/>
        <pt x="208" y="374" on="1"/>
        <pt x="228" y="374" on="0"/>
        <pt x="228" y="355" on="1"/>
        <pt x="228" y="345" on="1"/>
        <pt x="228" y="326" on="0"/>
        <pt x="208" y="326" on="1"/>
        <pt x="-41" y="326" on="1"/>
        <pt x="-61" y="326" on="0"/>
        <pt x="-61" y="345" on="1"/>
        <pt x="-61" y="355" on="1"/>
        <pt x="-61" y="374" on="0"/>
      </contour>
    </TTGlyph>
    <TTGlyph name="Euro" xMin="18" yMin="-1" xMax="554" yMax="700">
      <contour>
        <pt x="37" y="419" on="1"/>
        <pt x="79" y="419" on="1"/>
        <pt x="79" y="453" on="1"/>
        <pt x="79" y="515" on="0"/>
        <pt x="115" y="609" on="0"/>
        <pt x="167" y="659" on="0"/>
        <pt x="202" y="675" on="1"/>
        <pt x="255" y="700" on="0"/>
        <pt x="317" y="700" on="1"/>
        <pt x="374" y="700" on="0"/>
        <pt x="466" y="659" on="0"/>
        <pt x="519" y="614" on="0"/>
        <pt x="554" y="538" on="0"/>
        <pt x="554" y="490" on="1"/>
        <pt x="554" y="469" on="0"/>
        <pt x="535" y="469" on="1"/>
        <pt x="526" y="469" on="1"/>
        <pt x="519" y="469" on="0"/>
        <pt x="506" y="480" on="0"/>
        <pt x="506" y="487" on="1"/>
        <pt x="506" y="534" on="0"/>
        <pt x="464" y="603" on="0"/>
        <pt x="432" y="620" on="1"/>
        <pt x="371" y="651" on="0"/>
        <pt x="317" y="651" on="1"/>
        <pt x="230" y="651" on="0"/>
        <pt x="176" y="598" on="1"/>
        <pt x="156" y="577" on="0"/>
        <pt x="128" y="500" on="0"/>
        <pt x="128" y="450" on="1"/>
        <pt x="128" y="419" on="1"/>
        <pt x="405" y="419" on="1"/>
        <pt x="414" y="419" on="0"/>
        <pt x="425" y="407" on="0"/>
        <pt x="425" y="399" on="1"/>
        <pt x="425" y="390" on="1"/>
        <pt x="425" y="371" on="0"/>
        <pt x="405" y="371" on="1"/>
        <pt x="128" y="371" on="1"/>
        <pt x="128" y="323" on="1"/>
        <pt x="405" y="323" on="1"/>
        <pt x="425" y="323" on="0"/>
        <pt x="425" y="304" on="1"/>
        <pt x="425" y="294" on="1"/>
        <pt x="425" y="275" on="0"/>
        <pt x="405" y="275" on="1"/>
        <pt x="128" y="275" on="1"/>
        <pt x="128" y="249" on="1"/>
        <pt x="128" y="187" on="0"/>
        <pt x="169" y="100" on="0"/>
        <pt x="202" y="81" on="1"/>
        <pt x="260" y="47" on="0"/>
        <pt x="317" y="47" on="1"/>
        <pt x="450" y="47" on="0"/>
        <pt x="494" y="155" on="1"/>
        <pt x="508" y="191" on="0"/>
        <pt x="508" y="239" on="1"/>
        <pt x="508" y="246" on="0"/>
        <pt x="520" y="258" on="0"/>
        <pt x="527" y="258" on="1"/>
        <pt x="535" y="258" on="1"/>
        <pt x="554" y="258" on="0"/>
        <pt x="554" y="239" on="1"/>
        <pt x="554" y="182" on="0"/>
        <pt x="519" y="93" on="0"/>
        <pt x="466" y="42" on="0"/>
        <pt x="432" y="26" on="1"/>
        <pt x="376" y="-1" on="0"/>
        <pt x="317" y="-1" on="1"/>
        <pt x="256" y="-1" on="0"/>
        <pt x="166" y="42" on="0"/>
        <pt x="114" y="93" on="0"/>
        <pt x="79" y="185" on="0"/>
        <pt x="79" y="245" on="1"/>
        <pt x="79" y="275" on="1"/>
        <pt x="37" y="275" on="1"/>
        <pt x="18" y="275" on="0"/>
        <pt x="18" y="294" on="1"/>
        <pt x="18" y="304" on="1"/>
        <pt x="18" y="323" on="0"/>
        <pt x="37" y="323" on="1"/>
        <pt x="79" y="323" on="1"/>
        <pt x="79" y="371" on="1"/>
        <pt x="37" y="371" on="1"/>
        <pt x="18" y="371" on="0"/>
        <pt x="18" y="390" on="1"/>
        <pt x="18" y="399" on="1"/>
        <pt x="18" y="407" on="0"/>
        <pt x="29" y="419" on="0"/>
      </contour>
    </TTGlyph>
    <TTGlyph name="F" xMin="61" yMin="0" xMax="452" yMax="700">
      <contour>
        <pt x="99" y="700" on="1"/>
        <pt x="432" y="700" on="1"/>
        <pt x="441" y="700" on="0"/>
        <pt x="452" y="688" on="0"/>
        <pt x="452" y="680" on="1"/>
        <pt x="452" y="671" on="1"/>
        <pt x="452" y="651" on="0"/>
        <pt x="432" y="651" on="1"/>
        <pt x="111" y="651" on="1"/>
        <pt x="111" y="20" on="1"/>
        <pt x="111" y="12" on="0"/>
        <pt x="100" y="0" on="0"/>
        <pt x="91" y="0" on="1"/>
        <pt x="81" y="0" on="1"/>
        <pt x="72" y="0" on="0"/>
        <pt x="61" y="12" on="0"/>
        <pt x="61" y="20" on="1"/>
        <pt x="61" y="660" on="1"/>
        <pt x="61" y="679" on="0"/>
        <pt x="75" y="700" on="0"/>
      </contour>
      <contour>
        <pt x="151" y="388" on="1"/>
        <pt x="376" y="388" on="1"/>
        <pt x="384" y="388" on="0"/>
        <pt x="396" y="376" on="0"/>
        <pt x="396" y="368" on="1"/>
        <pt x="396" y="359" on="1"/>
        <pt x="396" y="350" on="0"/>
        <pt x="384" y="339" on="0"/>
        <pt x="376" y="339" on="1"/>
        <pt x="151" y="339" on="1"/>
        <pt x="132" y="339" on="0"/>
        <pt x="132" y="359" on="1"/>
        <pt x="132" y="368" on="1"/>
        <pt x="132" y="376" on="0"/>
        <pt x="143" y="388" on="0"/>
      </contour>
    </TTGlyph>
    <TTGlyph name="G" xMin="40" yMin="-1" xMax="526" yMax="706">
      <contour>
        <pt x="201" y="697" on="0"/>
        <pt x="256" y="706" on="0"/>
        <pt x="309" y="706" on="0"/>
        <pt x="363" y="697" on="0"/>
        <pt x="428" y="668" on="0"/>
        <pt x="480" y="623" on="0"/>
        <pt x="520" y="544" on="0"/>
        <pt x="525" y="492" on="1"/>
        <pt x="525" y="470" on="0"/>
        <pt x="505" y="470" on="1"/>
        <pt x="496" y="470" on="1"/>
        <pt x="478" y="470" on="0"/>
        <pt x="476" y="488" on="1"/>
        <pt x="471" y="530" on="0"/>
        <pt x="439" y="594" on="0"/>
        <pt x="397" y="628" on="0"/>
        <pt x="370" y="639" on="1"/>
        <pt x="330" y="656" on="0"/>
        <pt x="261" y="656" on="0"/>
        <pt x="216" y="648" on="0"/>
        <pt x="160" y="622" on="0"/>
        <pt x="118" y="579" on="0"/>
        <pt x="89" y="501" on="0"/>
        <pt x="89" y="450" on="1"/>
        <pt x="89" y="254" on="1"/>
        <pt x="89" y="203" on="0"/>
        <pt x="119" y="125" on="0"/>
        <pt x="161" y="82" on="0"/>
        <pt x="218" y="56" on="0"/>
        <pt x="262" y="48" on="0"/>
        <pt x="306" y="48" on="0"/>
        <pt x="350" y="55" on="0"/>
        <pt x="406" y="80" on="0"/>
        <pt x="448" y="121" on="0"/>
        <pt x="477" y="195" on="0"/>
        <pt x="477" y="244" on="1"/>
        <pt x="477" y="302" on="1"/>
        <pt x="312" y="302" on="1"/>
        <pt x="292" y="302" on="0"/>
        <pt x="292" y="322" on="1"/>
        <pt x="292" y="331" on="1"/>
        <pt x="292" y="339" on="0"/>
        <pt x="303" y="351" on="0"/>
        <pt x="312" y="351" on="1"/>
        <pt x="486" y="351" on="1"/>
        <pt x="526" y="351" on="0"/>
        <pt x="526" y="308" on="1"/>
        <pt x="526" y="243" on="1"/>
        <pt x="526" y="182" on="0"/>
        <pt x="489" y="89" on="0"/>
        <pt x="437" y="39" on="0"/>
        <pt x="402" y="24" on="1"/>
        <pt x="345" y="-1" on="0"/>
        <pt x="284" y="-1" on="1"/>
        <pt x="220" y="-1" on="0"/>
        <pt x="129" y="43" on="0"/>
        <pt x="76" y="95" on="0"/>
        <pt x="40" y="190" on="0"/>
        <pt x="40" y="251" on="1"/>
        <pt x="40" y="454" on="1"/>
        <pt x="40" y="517" on="0"/>
        <pt x="77" y="613" on="0"/>
        <pt x="130" y="664" on="0"/>
      </contour>
    </TTGlyph>
    <TTGlyph name="H" xMin="46" yMin="0" xMax="480" yMax="700">
      <contour>
        <pt x="451" y="700" on="1"/>
        <pt x="460" y="700" on="1"/>
        <pt x="469" y="700" on="0"/>
        <pt x="480" y="688" on="0"/>
        <pt x="480" y="680" on="1"/>
        <pt x="480" y="20" on="1"/>
        <pt x="480" y="12" on="0"/>
        <pt x="469" y="0" on="0"/>
        <pt x="460" y="0" on="1"/>
        <pt x="451" y="0" on="1"/>
        <pt x="443" y="0" on="0"/>
        <pt x="431" y="12" on="0"/>
        <pt x="431" y="20" on="1"/>
        <pt x="431" y="680" on="1"/>
        <pt x="431" y="688" on="0"/>
        <pt x="443" y="700" on="0"/>
      </contour>
      <contour>
        <pt x="66" y="700" on="1"/>
        <pt x="75" y="700" on="1"/>
        <pt x="84" y="700" on="0"/>
        <pt x="95" y="688" on="0"/>
        <pt x="95" y="680" on="1"/>
        <pt x="95" y="20" on="1"/>
        <pt x="95" y="12" on="0"/>
        <pt x="84" y="0" on="0"/>
        <pt x="75" y="0" on="1"/>
        <pt x="66" y="0" on="1"/>
        <pt x="58" y="0" on="0"/>
        <pt x="46" y="12" on="0"/>
        <pt x="46" y="20" on="1"/>
        <pt x="46" y="680" on="1"/>
        <pt x="46" y="688" on="0"/>
        <pt x="58" y="700" on="0"/>
      </contour>
      <contour>
        <pt x="135" y="393" on="1"/>
        <pt x="393" y="393" on="1"/>
        <pt x="401" y="393" on="0"/>
        <pt x="413" y="381" on="0"/>
        <pt x="413" y="373" on="1"/>
        <pt x="413" y="363" on="1"/>
        <pt x="413" y="355" on="0"/>
        <pt x="401" y="343" on="0"/>
        <pt x="393" y="343" on="1"/>
        <pt x="135" y="343" on="1"/>
        <pt x="127" y="343" on="0"/>
        <pt x="115" y="355" on="0"/>
        <pt x="115" y="363" on="1"/>
        <pt x="115" y="373" on="1"/>
        <pt x="115" y="381" on="0"/>
        <pt x="127" y="393" on="0"/>
      </contour>
    </TTGlyph>
    <TTGlyph name="I" xMin="74" yMin="0" xMax="123" yMax="700">
      <contour>
        <pt x="94" y="700" on="1"/>
        <pt x="103" y="700" on="1"/>
        <pt x="111" y="700" on="0"/>
        <pt x="123" y="688" on="0"/>
        <pt x="123" y="680" on="1"/>
        <pt x="123" y="20" on="1"/>
        <pt x="123" y="12" on="0"/>
        <pt x="111" y="0" on="0"/>
        <pt x="103" y="0" on="1"/>
        <pt x="94" y="0" on="1"/>
        <pt x="85" y="0" on="0"/>
        <pt x="74" y="12" on="0"/>
        <pt x="74" y="20" on="1"/>
        <pt x="74" y="680" on="1"/>
        <pt x="74" y="688" on="0"/>
        <pt x="85" y="700" on="0"/>
      </contour>
    </TTGlyph>
    <TTGlyph name="Iacute" xMin="16" yMin="0" xMax="185" yMax="933">
      <contour>
        <pt x="94" y="700" on="1"/>
        <pt x="103" y="700" on="1"/>
        <pt x="111" y="700" on="0"/>
        <pt x="123" y="688" on="0"/>
        <pt x="123" y="680" on="1"/>
        <pt x="123" y="20" on="1"/>
        <pt x="123" y="12" on="0"/>
        <pt x="111" y="0" on="0"/>
        <pt x="103" y="0" on="1"/>
        <pt x="94" y="0" on="1"/>
        <pt x="85" y="0" on="0"/>
        <pt x="74" y="12" on="0"/>
        <pt x="74" y="20" on="1"/>
        <pt x="74" y="680" on="1"/>
        <pt x="74" y="688" on="0"/>
        <pt x="85" y="700" on="0"/>
      </contour>
      <contour>
        <pt x="159" y="932" on="1"/>
        <pt x="185" y="932" on="0"/>
        <pt x="185" y="909" on="1"/>
        <pt x="185" y="904" on="0"/>
        <pt x="178" y="896" on="1"/>
        <pt x="71" y="763" on="1"/>
        <pt x="57" y="746" on="0"/>
        <pt x="26" y="746" on="0"/>
        <pt x="16" y="761" on="0"/>
        <pt x="16" y="772" on="0"/>
        <pt x="21" y="778" on="1"/>
        <pt x="128" y="914" on="1"/>
        <pt x="132" y="918" on="0"/>
        <pt x="134" y="922" on="0"/>
        <pt x="139" y="927" on="0"/>
        <pt x="141" y="928" on="0"/>
        <pt x="147" y="932" on="0"/>
        <pt x="151" y="931" on="0"/>
        <pt x="157" y="932" on="0"/>
      </contour>
    </TTGlyph>
    <TTGlyph name="Icircumflex" xMin="-59" yMin="0" xMax="262" yMax="952">
      <contour>
        <pt x="94" y="700" on="1"/>
        <pt x="103" y="700" on="1"/>
        <pt x="111" y="700" on="0"/>
        <pt x="123" y="688" on="0"/>
        <pt x="123" y="680" on="1"/>
        <pt x="123" y="20" on="1"/>
        <pt x="123" y="12" on="0"/>
        <pt x="111" y="0" on="0"/>
        <pt x="103" y="0" on="1"/>
        <pt x="94" y="0" on="1"/>
        <pt x="85" y="0" on="0"/>
        <pt x="74" y="12" on="0"/>
        <pt x="74" y="20" on="1"/>
        <pt x="74" y="680" on="1"/>
        <pt x="74" y="688" on="0"/>
        <pt x="85" y="700" on="0"/>
      </contour>
      <contour>
        <pt x="62" y="933" on="1"/>
        <pt x="76" y="952" on="0"/>
        <pt x="122" y="952" on="0"/>
        <pt x="136" y="933" on="1"/>
        <pt x="257" y="781" on="1"/>
        <pt x="262" y="775" on="0"/>
        <pt x="262" y="767" on="1"/>
        <pt x="262" y="749" on="0"/>
        <pt x="242" y="749" on="1"/>
        <pt x="229" y="749" on="1"/>
        <pt x="218" y="749" on="0"/>
        <pt x="214" y="755" on="1"/>
        <pt x="101" y="900" on="1"/>
        <pt x="99" y="902" on="1"/>
        <pt x="-12" y="755" on="1"/>
        <pt x="-16" y="749" on="0"/>
        <pt x="-26" y="749" on="1"/>
        <pt x="-39" y="749" on="1"/>
        <pt x="-59" y="749" on="0"/>
        <pt x="-59" y="767" on="1"/>
        <pt x="-59" y="773" on="0"/>
        <pt x="-54" y="781" on="1"/>
      </contour>
    </TTGlyph>
    <TTGlyph name="Idieresis" xMin="-34" yMin="0" xMax="235" yMax="867">
      <contour>
        <pt x="94" y="700" on="1"/>
        <pt x="103" y="700" on="1"/>
        <pt x="111" y="700" on="0"/>
        <pt x="123" y="688" on="0"/>
        <pt x="123" y="680" on="1"/>
        <pt x="123" y="20" on="1"/>
        <pt x="123" y="12" on="0"/>
        <pt x="111" y="0" on="0"/>
        <pt x="103" y="0" on="1"/>
        <pt x="94" y="0" on="1"/>
        <pt x="85" y="0" on="0"/>
        <pt x="74" y="12" on="0"/>
        <pt x="74" y="20" on="1"/>
        <pt x="74" y="680" on="1"/>
        <pt x="74" y="688" on="0"/>
        <pt x="85" y="700" on="0"/>
      </contour>
      <contour>
        <pt x="132" y="851" on="0"/>
        <pt x="150" y="867" on="0"/>
        <pt x="215" y="867" on="0"/>
        <pt x="235" y="850" on="0"/>
        <pt x="235" y="822" on="1"/>
        <pt x="235" y="810" on="1"/>
        <pt x="235" y="780" on="0"/>
        <pt x="215" y="763" on="0"/>
        <pt x="150" y="763" on="0"/>
        <pt x="132" y="780" on="0"/>
        <pt x="132" y="810" on="1"/>
        <pt x="132" y="822" on="1"/>
      </contour>
      <contour>
        <pt x="-34" y="851" on="0"/>
        <pt x="-16" y="867" on="0"/>
        <pt x="49" y="867" on="0"/>
        <pt x="69" y="850" on="0"/>
        <pt x="69" y="822" on="1"/>
        <pt x="69" y="810" on="1"/>
        <pt x="69" y="780" on="0"/>
        <pt x="49" y="763" on="0"/>
        <pt x="-16" y="763" on="0"/>
        <pt x="-34" y="779" on="0"/>
        <pt x="-34" y="810" on="1"/>
        <pt x="-34" y="822" on="1"/>
      </contour>
      <contour>
        <pt x="37" y="829" on="0"/>
        <pt x="29" y="835" on="0"/>
        <pt x="5" y="835" on="0"/>
        <pt x="-2" y="830" on="0"/>
        <pt x="-2" y="820" on="1"/>
        <pt x="-2" y="810" on="1"/>
        <pt x="-2" y="800" on="0"/>
        <pt x="5" y="795" on="0"/>
        <pt x="30" y="795" on="0"/>
        <pt x="37" y="800" on="0"/>
        <pt x="37" y="810" on="1"/>
        <pt x="37" y="820" on="1"/>
      </contour>
      <contour>
        <pt x="203" y="829" on="0"/>
        <pt x="195" y="835" on="0"/>
        <pt x="171" y="835" on="0"/>
        <pt x="164" y="830" on="0"/>
        <pt x="164" y="820" on="1"/>
        <pt x="164" y="810" on="1"/>
        <pt x="164" y="800" on="0"/>
        <pt x="171" y="795" on="0"/>
        <pt x="196" y="795" on="0"/>
        <pt x="203" y="800" on="0"/>
        <pt x="203" y="810" on="1"/>
        <pt x="203" y="820" on="1"/>
      </contour>
    </TTGlyph>
    <TTGlyph name="Igrave" xMin="35" yMin="0" xMax="204" yMax="933">
      <contour>
        <pt x="94" y="700" on="1"/>
        <pt x="103" y="700" on="1"/>
        <pt x="111" y="700" on="0"/>
        <pt x="123" y="688" on="0"/>
        <pt x="123" y="680" on="1"/>
        <pt x="123" y="20" on="1"/>
        <pt x="123" y="12" on="0"/>
        <pt x="111" y="0" on="0"/>
        <pt x="103" y="0" on="1"/>
        <pt x="94" y="0" on="1"/>
        <pt x="85" y="0" on="0"/>
        <pt x="74" y="12" on="0"/>
        <pt x="74" y="20" on="1"/>
        <pt x="74" y="680" on="1"/>
        <pt x="74" y="688" on="0"/>
        <pt x="85" y="700" on="0"/>
      </contour>
      <contour>
        <pt x="35" y="912" on="1"/>
        <pt x="35" y="932" on="0"/>
        <pt x="62" y="932" on="1"/>
        <pt x="76" y="932" on="0"/>
        <pt x="85" y="923" on="0"/>
        <pt x="92" y="914" on="1"/>
        <pt x="199" y="778" on="1"/>
        <pt x="204" y="772" on="0"/>
        <pt x="204" y="761" on="0"/>
        <pt x="194" y="746" on="0"/>
        <pt x="163" y="746" on="0"/>
        <pt x="149" y="763" on="1"/>
        <pt x="42" y="896" on="1"/>
        <pt x="35" y="904" on="0"/>
      </contour>
    </TTGlyph>
    <TTGlyph name="J" xMin="33" yMin="0" xMax="427" yMax="700">
      <contour>
        <pt x="74" y="700" on="1"/>
        <pt x="387" y="700" on="1"/>
        <pt x="427" y="700" on="0"/>
        <pt x="427" y="663" on="1"/>
        <pt x="427" y="218" on="1"/>
        <pt x="427" y="118" on="0"/>
        <pt x="324" y="0" on="0"/>
        <pt x="233" y="0" on="1"/>
        <pt x="167" y="0" on="0"/>
        <pt x="60" y="59" on="0"/>
        <pt x="35" y="122" on="1"/>
        <pt x="33" y="126" on="0"/>
        <pt x="33" y="129" on="1"/>
        <pt x="33" y="144" on="0"/>
        <pt x="47" y="149" on="1"/>
        <pt x="59" y="153" on="0"/>
        <pt x="74" y="153" on="0"/>
        <pt x="79" y="141" on="1"/>
        <pt x="91" y="110" on="0"/>
        <pt x="136" y="68" on="0"/>
        <pt x="162" y="60" on="1"/>
        <pt x="203" y="49" on="0"/>
        <pt x="233" y="49" on="1"/>
        <pt x="377" y="49" on="0"/>
        <pt x="377" y="217" on="1"/>
        <pt x="377" y="650" on="1"/>
        <pt x="74" y="650" on="1"/>
        <pt x="55" y="650" on="0"/>
        <pt x="55" y="670" on="1"/>
        <pt x="55" y="680" on="1"/>
        <pt x="55" y="688" on="0"/>
        <pt x="66" y="700" on="0"/>
      </contour>
    </TTGlyph>
    <TTGlyph name="K" xMin="60" yMin="-3" xMax="508" yMax="700">
      <contour>
        <pt x="464" y="700" on="1"/>
        <pt x="475" y="700" on="1"/>
        <pt x="484" y="700" on="0"/>
        <pt x="490" y="694" on="1"/>
        <pt x="499" y="684" on="0"/>
        <pt x="492" y="671" on="1"/>
        <pt x="317" y="357" on="1"/>
        <pt x="505" y="29" on="1"/>
        <pt x="508" y="23" on="0"/>
        <pt x="508" y="18" on="1"/>
        <pt x="508" y="0" on="0"/>
        <pt x="488" y="0" on="1"/>
        <pt x="477" y="0" on="1"/>
        <pt x="466" y="0" on="0"/>
        <pt x="462" y="6" on="1"/>
        <pt x="290" y="307" on="1"/>
        <pt x="138" y="27" on="1"/>
        <pt x="120" y="-3" on="0"/>
        <pt x="98" y="-3" on="1"/>
        <pt x="60" y="-3" on="0"/>
        <pt x="60" y="37" on="1"/>
        <pt x="60" y="680" on="1"/>
        <pt x="60" y="688" on="0"/>
        <pt x="71" y="700" on="0"/>
        <pt x="80" y="700" on="1"/>
        <pt x="90" y="700" on="1"/>
        <pt x="99" y="700" on="0"/>
        <pt x="110" y="688" on="0"/>
        <pt x="110" y="680" on="1"/>
        <pt x="110" y="80" on="1"/>
        <pt x="308" y="442" on="1"/>
        <pt x="450" y="694" on="1"/>
        <pt x="454" y="700" on="0"/>
      </contour>
    </TTGlyph>
    <TTGlyph name="L" xMin="51" yMin="0" xMax="454" yMax="700">
      <contour>
        <pt x="71" y="700" on="1"/>
        <pt x="81" y="700" on="1"/>
        <pt x="89" y="700" on="0"/>
        <pt x="101" y="688" on="0"/>
        <pt x="101" y="680" on="1"/>
        <pt x="101" y="49" on="1"/>
        <pt x="435" y="49" on="1"/>
        <pt x="454" y="49" on="0"/>
        <pt x="454" y="29" on="1"/>
        <pt x="454" y="20" on="1"/>
        <pt x="454" y="12" on="0"/>
        <pt x="443" y="0" on="0"/>
        <pt x="435" y="0" on="1"/>
        <pt x="92" y="0" on="1"/>
        <pt x="51" y="0" on="0"/>
        <pt x="51" y="43" on="1"/>
        <pt x="51" y="680" on="1"/>
        <pt x="51" y="688" on="0"/>
        <pt x="63" y="700" on="0"/>
      </contour>
    </TTGlyph>
    <TTGlyph name="Lslash" xMin="-36" yMin="0" xMax="484" yMax="700">
      <contour>
        <pt x="101" y="700" on="1"/>
        <pt x="111" y="700" on="1"/>
        <pt x="119" y="700" on="0"/>
        <pt x="131" y="688" on="0"/>
        <pt x="131" y="680" on="1"/>
        <pt x="131" y="49" on="1"/>
        <pt x="465" y="49" on="1"/>
        <pt x="484" y="49" on="0"/>
        <pt x="484" y="29" on="1"/>
        <pt x="484" y="20" on="1"/>
        <pt x="484" y="12" on="0"/>
        <pt x="473" y="0" on="0"/>
        <pt x="465" y="0" on="1"/>
        <pt x="122" y="0" on="1"/>
        <pt x="81" y="0" on="0"/>
        <pt x="81" y="43" on="1"/>
        <pt x="81" y="680" on="1"/>
        <pt x="81" y="688" on="0"/>
        <pt x="93" y="700" on="0"/>
      </contour>
      <contour>
        <pt x="273" y="501" on="1"/>
        <pt x="286" y="501" on="0"/>
        <pt x="291" y="486" on="1"/>
        <pt x="293" y="482" on="0"/>
        <pt x="293" y="476" on="1"/>
        <pt x="293" y="464" on="0"/>
        <pt x="279" y="460" on="1"/>
        <pt x="181" y="412" on="1"/>
        <pt x="161" y="408" on="0"/>
        <pt x="158" y="425" on="1"/>
        <pt x="156" y="428" on="1"/>
        <pt x="151" y="445" on="0"/>
        <pt x="168" y="453" on="1"/>
        <pt x="265" y="500" on="1"/>
        <pt x="269" y="501" on="0"/>
      </contour>
      <contour>
        <pt x="43" y="394" on="1"/>
        <pt x="56" y="394" on="0"/>
        <pt x="61" y="379" on="1"/>
        <pt x="63" y="375" on="0"/>
        <pt x="63" y="369" on="1"/>
        <pt x="63" y="357" on="0"/>
        <pt x="49" y="353" on="1"/>
        <pt x="-9" y="319" on="1"/>
        <pt x="-13" y="318" on="0"/>
        <pt x="-16" y="318" on="1"/>
        <pt x="-30" y="318" on="0"/>
        <pt x="-32" y="332" on="1"/>
        <pt x="-35" y="337" on="0"/>
        <pt x="-35" y="353" on="0"/>
        <pt x="-22" y="360" on="1"/>
        <pt x="35" y="393" on="1"/>
        <pt x="39" y="394" on="0"/>
      </contour>
    </TTGlyph>
    <TTGlyph name="M" xMin="45" yMin="0" xMax="578" yMax="703">
      <contour>
        <pt x="538" y="703" on="1"/>
        <pt x="554" y="703" on="0"/>
        <pt x="578" y="682" on="0"/>
        <pt x="578" y="660" on="1"/>
        <pt x="578" y="20" on="1"/>
        <pt x="578" y="12" on="0"/>
        <pt x="567" y="0" on="0"/>
        <pt x="558" y="0" on="1"/>
        <pt x="549" y="0" on="1"/>
        <pt x="540" y="0" on="0"/>
        <pt x="529" y="12" on="0"/>
        <pt x="529" y="20" on="1"/>
        <pt x="529" y="615" on="1"/>
        <pt x="355" y="185" on="1"/>
        <pt x="344" y="159" on="0"/>
        <pt x="319" y="156" on="1"/>
        <pt x="290" y="156" on="0"/>
        <pt x="278" y="184" on="1"/>
        <pt x="94" y="619" on="1"/>
        <pt x="94" y="20" on="1"/>
        <pt x="94" y="12" on="0"/>
        <pt x="82" y="0" on="0"/>
        <pt x="74" y="0" on="1"/>
        <pt x="64" y="0" on="1"/>
        <pt x="56" y="0" on="0"/>
        <pt x="45" y="12" on="0"/>
        <pt x="45" y="20" on="1"/>
        <pt x="45" y="660" on="1"/>
        <pt x="45" y="703" on="0"/>
        <pt x="84" y="703" on="1"/>
        <pt x="111" y="703" on="0"/>
        <pt x="124" y="673" on="1"/>
        <pt x="316" y="220" on="1"/>
        <pt x="498" y="673" on="1"/>
        <pt x="512" y="703" on="0"/>
      </contour>
    </TTGlyph>
    <TTGlyph name="N" xMin="52" yMin="-2" xMax="536" yMax="702">
      <contour>
        <pt x="89" y="702" on="1"/>
        <pt x="116" y="702" on="0"/>
        <pt x="131" y="678" on="1"/>
        <pt x="324" y="358" on="0"/>
        <pt x="486" y="69" on="1"/>
        <pt x="486" y="680" on="1"/>
        <pt x="486" y="688" on="0"/>
        <pt x="497" y="700" on="0"/>
        <pt x="506" y="700" on="1"/>
        <pt x="516" y="700" on="1"/>
        <pt x="525" y="700" on="0"/>
        <pt x="536" y="688" on="0"/>
        <pt x="536" y="680" on="1"/>
        <pt x="536" y="37" on="1"/>
        <pt x="536" y="17" on="0"/>
        <pt x="513" y="-2" on="0"/>
        <pt x="471" y="-2" on="0"/>
        <pt x="457" y="20" on="1"/>
        <pt x="102" y="629" on="1"/>
        <pt x="102" y="20" on="1"/>
        <pt x="102" y="12" on="0"/>
        <pt x="90" y="0" on="0"/>
        <pt x="82" y="0" on="1"/>
        <pt x="71" y="0" on="1"/>
        <pt x="63" y="0" on="0"/>
        <pt x="52" y="12" on="0"/>
        <pt x="52" y="20" on="1"/>
        <pt x="52" y="661" on="1"/>
        <pt x="52" y="702" on="0"/>
      </contour>
    </TTGlyph>
    <TTGlyph name="Ntilde" xMin="52" yMin="-2" xMax="536" yMax="888">
      <contour>
        <pt x="89" y="702" on="1"/>
        <pt x="116" y="702" on="0"/>
        <pt x="131" y="678" on="1"/>
        <pt x="324" y="358" on="0"/>
        <pt x="486" y="69" on="1"/>
        <pt x="486" y="680" on="1"/>
        <pt x="486" y="688" on="0"/>
        <pt x="497" y="700" on="0"/>
        <pt x="506" y="700" on="1"/>
        <pt x="516" y="700" on="1"/>
        <pt x="525" y="700" on="0"/>
        <pt x="536" y="688" on="0"/>
        <pt x="536" y="680" on="1"/>
        <pt x="536" y="37" on="1"/>
        <pt x="536" y="17" on="0"/>
        <pt x="513" y="-2" on="0"/>
        <pt x="471" y="-2" on="0"/>
        <pt x="457" y="20" on="1"/>
        <pt x="102" y="629" on="1"/>
        <pt x="102" y="20" on="1"/>
        <pt x="102" y="12" on="0"/>
        <pt x="90" y="0" on="0"/>
        <pt x="82" y="0" on="1"/>
        <pt x="71" y="0" on="1"/>
        <pt x="63" y="0" on="0"/>
        <pt x="52" y="12" on="0"/>
        <pt x="52" y="20" on="1"/>
        <pt x="52" y="661" on="1"/>
        <pt x="52" y="702" on="0"/>
      </contour>
      <contour>
        <pt x="435" y="888" on="1"/>
        <pt x="459" y="888" on="1"/>
        <pt x="472" y="888" on="0"/>
        <pt x="472" y="871" on="1"/>
        <pt x="472" y="815" on="0"/>
        <pt x="424" y="758" on="0"/>
        <pt x="380" y="758" on="1"/>
        <pt x="356" y="758" on="0"/>
        <pt x="314" y="782" on="0"/>
        <pt x="265" y="825" on="0"/>
        <pt x="237" y="843" on="0"/>
        <pt x="199" y="843" on="0"/>
        <pt x="169" y="810" on="0"/>
        <pt x="169" y="774" on="1"/>
        <pt x="169" y="758" on="0"/>
        <pt x="154" y="758" on="1"/>
        <pt x="139" y="758" on="1"/>
        <pt x="126" y="758" on="0"/>
        <pt x="126" y="778" on="1"/>
        <pt x="126" y="830" on="0"/>
        <pt x="177" y="886" on="0"/>
        <pt x="221" y="886" on="1"/>
        <pt x="257" y="886" on="0"/>
        <pt x="302" y="850" on="1"/>
        <pt x="307" y="846" on="0"/>
        <pt x="334" y="824" on="0"/>
        <pt x="339" y="820" on="1"/>
        <pt x="361" y="802" on="0"/>
        <pt x="378" y="802" on="1"/>
        <pt x="426" y="802" on="0"/>
        <pt x="426" y="870" on="1"/>
        <pt x="426" y="873" on="0"/>
        <pt x="426" y="876" on="1"/>
        <pt x="426" y="888" on="0"/>
      </contour>
    </TTGlyph>
    <TTGlyph name="O" xMin="50" yMin="-1" xMax="537" yMax="700">
      <contour>
        <pt x="211" y="692" on="0"/>
        <pt x="265" y="700" on="0"/>
        <pt x="322" y="700" on="0"/>
        <pt x="378" y="691" on="0"/>
        <pt x="449" y="659" on="0"/>
        <pt x="501" y="608" on="0"/>
        <pt x="537" y="515" on="0"/>
        <pt x="537" y="454" on="1"/>
        <pt x="537" y="251" on="1"/>
        <pt x="537" y="188" on="0"/>
        <pt x="500" y="92" on="0"/>
        <pt x="447" y="40" on="0"/>
        <pt x="412" y="24" on="1"/>
        <pt x="356" y="-1" on="0"/>
        <pt x="294" y="-1" on="1"/>
        <pt x="229" y="-1" on="0"/>
        <pt x="138" y="43" on="0"/>
        <pt x="86" y="95" on="0"/>
        <pt x="50" y="190" on="0"/>
        <pt x="50" y="251" on="1"/>
        <pt x="50" y="454" on="1"/>
        <pt x="50" y="517" on="0"/>
        <pt x="87" y="611" on="0"/>
        <pt x="139" y="661" on="0"/>
      </contour>
      <contour>
        <pt x="359" y="644" on="0"/>
        <pt x="316" y="651" on="0"/>
        <pt x="271" y="651" on="0"/>
        <pt x="227" y="644" on="0"/>
        <pt x="170" y="619" on="0"/>
        <pt x="128" y="578" on="0"/>
        <pt x="99" y="501" on="0"/>
        <pt x="99" y="450" on="1"/>
        <pt x="99" y="254" on="1"/>
        <pt x="99" y="203" on="0"/>
        <pt x="128" y="125" on="0"/>
        <pt x="171" y="82" on="0"/>
        <pt x="227" y="56" on="0"/>
        <pt x="272" y="48" on="0"/>
        <pt x="316" y="48" on="0"/>
        <pt x="361" y="56" on="0"/>
        <pt x="417" y="82" on="0"/>
        <pt x="459" y="125" on="0"/>
        <pt x="488" y="203" on="0"/>
        <pt x="488" y="254" on="1"/>
        <pt x="488" y="450" on="1"/>
        <pt x="488" y="501" on="0"/>
        <pt x="458" y="578" on="0"/>
        <pt x="416" y="619" on="0"/>
      </contour>
    </TTGlyph>
    <TTGlyph name="OE" xMin="50" yMin="-1" xMax="896" yMax="700">
      <contour>
        <pt x="527" y="700" on="1"/>
        <pt x="876" y="700" on="1"/>
        <pt x="884" y="700" on="0"/>
        <pt x="896" y="688" on="0"/>
        <pt x="896" y="680" on="1"/>
        <pt x="896" y="671" on="1"/>
        <pt x="896" y="662" on="0"/>
        <pt x="884" y="651" on="0"/>
        <pt x="876" y="651" on="1"/>
        <pt x="537" y="651" on="1"/>
        <pt x="537" y="49" on="1"/>
        <pt x="876" y="49" on="1"/>
        <pt x="884" y="49" on="0"/>
        <pt x="896" y="38" on="0"/>
        <pt x="896" y="29" on="1"/>
        <pt x="896" y="20" on="1"/>
        <pt x="896" y="12" on="0"/>
        <pt x="884" y="0" on="0"/>
        <pt x="876" y="0" on="1"/>
        <pt x="526" y="0" on="1"/>
        <pt x="502" y="0" on="0"/>
        <pt x="487" y="21" on="0"/>
        <pt x="487" y="40" on="1"/>
        <pt x="487" y="661" on="1"/>
        <pt x="487" y="681" on="0"/>
        <pt x="505" y="700" on="0"/>
      </contour>
      <contour>
        <pt x="597" y="388" on="1"/>
        <pt x="811" y="388" on="1"/>
        <pt x="820" y="388" on="0"/>
        <pt x="831" y="376" on="0"/>
        <pt x="831" y="368" on="1"/>
        <pt x="831" y="359" on="1"/>
        <pt x="831" y="339" on="0"/>
        <pt x="811" y="339" on="1"/>
        <pt x="597" y="339" on="1"/>
        <pt x="577" y="339" on="0"/>
        <pt x="577" y="359" on="1"/>
        <pt x="577" y="368" on="1"/>
        <pt x="577" y="376" on="0"/>
        <pt x="588" y="388" on="0"/>
      </contour>
      <contour>
        <pt x="211" y="692" on="0"/>
        <pt x="265" y="700" on="0"/>
        <pt x="322" y="700" on="0"/>
        <pt x="378" y="691" on="0"/>
        <pt x="449" y="659" on="0"/>
        <pt x="501" y="608" on="0"/>
        <pt x="537" y="515" on="0"/>
        <pt x="537" y="454" on="1"/>
        <pt x="537" y="251" on="1"/>
        <pt x="537" y="188" on="0"/>
        <pt x="500" y="92" on="0"/>
        <pt x="447" y="40" on="0"/>
        <pt x="412" y="24" on="1"/>
        <pt x="356" y="-1" on="0"/>
        <pt x="294" y="-1" on="1"/>
        <pt x="229" y="-1" on="0"/>
        <pt x="138" y="43" on="0"/>
        <pt x="86" y="95" on="0"/>
        <pt x="50" y="190" on="0"/>
        <pt x="50" y="251" on="1"/>
        <pt x="50" y="454" on="1"/>
        <pt x="50" y="517" on="0"/>
        <pt x="87" y="611" on="0"/>
        <pt x="139" y="661" on="0"/>
      </contour>
      <contour>
        <pt x="359" y="644" on="0"/>
        <pt x="316" y="651" on="0"/>
        <pt x="271" y="651" on="0"/>
        <pt x="227" y="644" on="0"/>
        <pt x="170" y="619" on="0"/>
        <pt x="128" y="578" on="0"/>
        <pt x="99" y="501" on="0"/>
        <pt x="99" y="450" on="1"/>
        <pt x="99" y="254" on="1"/>
        <pt x="99" y="203" on="0"/>
        <pt x="128" y="125" on="0"/>
        <pt x="171" y="82" on="0"/>
        <pt x="227" y="56" on="0"/>
        <pt x="272" y="48" on="0"/>
        <pt x="316" y="48" on="0"/>
        <pt x="361" y="56" on="0"/>
        <pt x="417" y="82" on="0"/>
        <pt x="459" y="125" on="0"/>
        <pt x="488" y="203" on="0"/>
        <pt x="488" y="254" on="1"/>
        <pt x="488" y="450" on="1"/>
        <pt x="488" y="501" on="0"/>
        <pt x="458" y="578" on="0"/>
        <pt x="416" y="619" on="0"/>
      </contour>
    </TTGlyph>
    <TTGlyph name="Oacute" xMin="50" yMin="-1" xMax="537" yMax="933">
      <contour>
        <pt x="211" y="692" on="0"/>
        <pt x="265" y="700" on="0"/>
        <pt x="322" y="700" on="0"/>
        <pt x="378" y="691" on="0"/>
        <pt x="449" y="659" on="0"/>
        <pt x="501" y="608" on="0"/>
        <pt x="537" y="515" on="0"/>
        <pt x="537" y="454" on="1"/>
        <pt x="537" y="251" on="1"/>
        <pt x="537" y="188" on="0"/>
        <pt x="500" y="92" on="0"/>
        <pt x="447" y="40" on="0"/>
        <pt x="412" y="24" on="1"/>
        <pt x="356" y="-1" on="0"/>
        <pt x="294" y="-1" on="1"/>
        <pt x="229" y="-1" on="0"/>
        <pt x="138" y="43" on="0"/>
        <pt x="86" y="95" on="0"/>
        <pt x="50" y="190" on="0"/>
        <pt x="50" y="251" on="1"/>
        <pt x="50" y="454" on="1"/>
        <pt x="50" y="517" on="0"/>
        <pt x="87" y="611" on="0"/>
        <pt x="139" y="661" on="0"/>
      </contour>
      <contour>
        <pt x="359" y="644" on="0"/>
        <pt x="316" y="651" on="0"/>
        <pt x="271" y="651" on="0"/>
        <pt x="227" y="644" on="0"/>
        <pt x="170" y="619" on="0"/>
        <pt x="128" y="578" on="0"/>
        <pt x="99" y="501" on="0"/>
        <pt x="99" y="450" on="1"/>
        <pt x="99" y="254" on="1"/>
        <pt x="99" y="203" on="0"/>
        <pt x="128" y="125" on="0"/>
        <pt x="171" y="82" on="0"/>
        <pt x="227" y="56" on="0"/>
        <pt x="272" y="48" on="0"/>
        <pt x="316" y="48" on="0"/>
        <pt x="361" y="56" on="0"/>
        <pt x="417" y="82" on="0"/>
        <pt x="459" y="125" on="0"/>
        <pt x="488" y="203" on="0"/>
        <pt x="488" y="254" on="1"/>
        <pt x="488" y="450" on="1"/>
        <pt x="488" y="501" on="0"/>
        <pt x="458" y="578" on="0"/>
        <pt x="416" y="619" on="0"/>
      </contour>
      <contour>
        <pt x="362" y="932" on="1"/>
        <pt x="388" y="932" on="0"/>
        <pt x="388" y="909" on="1"/>
        <pt x="388" y="904" on="0"/>
        <pt x="381" y="896" on="1"/>
        <pt x="274" y="763" on="1"/>
        <pt x="260" y="746" on="0"/>
        <pt x="229" y="746" on="0"/>
        <pt x="219" y="761" on="0"/>
        <pt x="219" y="772" on="0"/>
        <pt x="224" y="778" on="1"/>
        <pt x="331" y="914" on="1"/>
        <pt x="335" y="918" on="0"/>
        <pt x="337" y="922" on="0"/>
        <pt x="342" y="927" on="0"/>
        <pt x="344" y="928" on="0"/>
        <pt x="350" y="932" on="0"/>
        <pt x="354" y="931" on="0"/>
        <pt x="360" y="932" on="0"/>
      </contour>
    </TTGlyph>
    <TTGlyph name="Ocircumflex" xMin="50" yMin="-1" xMax="537" yMax="952">
      <contour>
        <pt x="211" y="692" on="0"/>
        <pt x="265" y="700" on="0"/>
        <pt x="322" y="700" on="0"/>
        <pt x="378" y="691" on="0"/>
        <pt x="449" y="659" on="0"/>
        <pt x="501" y="608" on="0"/>
        <pt x="537" y="515" on="0"/>
        <pt x="537" y="454" on="1"/>
        <pt x="537" y="251" on="1"/>
        <pt x="537" y="188" on="0"/>
        <pt x="500" y="92" on="0"/>
        <pt x="447" y="40" on="0"/>
        <pt x="412" y="24" on="1"/>
        <pt x="356" y="-1" on="0"/>
        <pt x="294" y="-1" on="1"/>
        <pt x="229" y="-1" on="0"/>
        <pt x="138" y="43" on="0"/>
        <pt x="86" y="95" on="0"/>
        <pt x="50" y="190" on="0"/>
        <pt x="50" y="251" on="1"/>
        <pt x="50" y="454" on="1"/>
        <pt x="50" y="517" on="0"/>
        <pt x="87" y="611" on="0"/>
        <pt x="139" y="661" on="0"/>
      </contour>
      <contour>
        <pt x="359" y="644" on="0"/>
        <pt x="316" y="651" on="0"/>
        <pt x="271" y="651" on="0"/>
        <pt x="227" y="644" on="0"/>
        <pt x="170" y="619" on="0"/>
        <pt x="128" y="578" on="0"/>
        <pt x="99" y="501" on="0"/>
        <pt x="99" y="450" on="1"/>
        <pt x="99" y="254" on="1"/>
        <pt x="99" y="203" on="0"/>
        <pt x="128" y="125" on="0"/>
        <pt x="171" y="82" on="0"/>
        <pt x="227" y="56" on="0"/>
        <pt x="272" y="48" on="0"/>
        <pt x="316" y="48" on="0"/>
        <pt x="361" y="56" on="0"/>
        <pt x="417" y="82" on="0"/>
        <pt x="459" y="125" on="0"/>
        <pt x="488" y="203" on="0"/>
        <pt x="488" y="254" on="1"/>
        <pt x="488" y="450" on="1"/>
        <pt x="488" y="501" on="0"/>
        <pt x="458" y="578" on="0"/>
        <pt x="416" y="619" on="0"/>
      </contour>
      <contour>
        <pt x="265" y="933" on="1"/>
        <pt x="279" y="952" on="0"/>
        <pt x="325" y="952" on="0"/>
        <pt x="339" y="933" on="1"/>
        <pt x="460" y="781" on="1"/>
        <pt x="465" y="775" on="0"/>
        <pt x="465" y="767" on="1"/>
        <pt x="465" y="749" on="0"/>
        <pt x="445" y="749" on="1"/>
        <pt x="432" y="749" on="1"/>
        <pt x="421" y="749" on="0"/>
        <pt x="417" y="755" on="1"/>
        <pt x="304" y="900" on="1"/>
        <pt x="302" y="902" on="1"/>
        <pt x="191" y="755" on="1"/>
        <pt x="187" y="749" on="0"/>
        <pt x="177" y="749" on="1"/>
        <pt x="164" y="749" on="1"/>
        <pt x="144" y="749" on="0"/>
        <pt x="144" y="767" on="1"/>
        <pt x="144" y="773" on="0"/>
        <pt x="149" y="781" on="1"/>
      </contour>
    </TTGlyph>
    <TTGlyph name="Odieresis" xMin="50" yMin="-1" xMax="537" yMax="867">
      <contour>
        <pt x="211" y="692" on="0"/>
        <pt x="265" y="700" on="0"/>
        <pt x="322" y="700" on="0"/>
        <pt x="378" y="691" on="0"/>
        <pt x="449" y="659" on="0"/>
        <pt x="501" y="608" on="0"/>
        <pt x="537" y="515" on="0"/>
        <pt x="537" y="454" on="1"/>
        <pt x="537" y="251" on="1"/>
        <pt x="537" y="188" on="0"/>
        <pt x="500" y="92" on="0"/>
        <pt x="447" y="40" on="0"/>
        <pt x="412" y="24" on="1"/>
        <pt x="356" y="-1" on="0"/>
        <pt x="294" y="-1" on="1"/>
        <pt x="229" y="-1" on="0"/>
        <pt x="138" y="43" on="0"/>
        <pt x="86" y="95" on="0"/>
        <pt x="50" y="190" on="0"/>
        <pt x="50" y="251" on="1"/>
        <pt x="50" y="454" on="1"/>
        <pt x="50" y="517" on="0"/>
        <pt x="87" y="611" on="0"/>
        <pt x="139" y="661" on="0"/>
      </contour>
      <contour>
        <pt x="359" y="644" on="0"/>
        <pt x="316" y="651" on="0"/>
        <pt x="271" y="651" on="0"/>
        <pt x="227" y="644" on="0"/>
        <pt x="170" y="619" on="0"/>
        <pt x="128" y="578" on="0"/>
        <pt x="99" y="501" on="0"/>
        <pt x="99" y="450" on="1"/>
        <pt x="99" y="254" on="1"/>
        <pt x="99" y="203" on="0"/>
        <pt x="128" y="125" on="0"/>
        <pt x="171" y="82" on="0"/>
        <pt x="227" y="56" on="0"/>
        <pt x="272" y="48" on="0"/>
        <pt x="316" y="48" on="0"/>
        <pt x="361" y="56" on="0"/>
        <pt x="417" y="82" on="0"/>
        <pt x="459" y="125" on="0"/>
        <pt x="488" y="203" on="0"/>
        <pt x="488" y="254" on="1"/>
        <pt x="488" y="450" on="1"/>
        <pt x="488" y="501" on="0"/>
        <pt x="458" y="578" on="0"/>
        <pt x="416" y="619" on="0"/>
      </contour>
      <contour>
        <pt x="335" y="851" on="0"/>
        <pt x="353" y="867" on="0"/>
        <pt x="418" y="867" on="0"/>
        <pt x="438" y="850" on="0"/>
        <pt x="438" y="822" on="1"/>
        <pt x="438" y="810" on="1"/>
        <pt x="438" y="780" on="0"/>
        <pt x="418" y="763" on="0"/>
        <pt x="353" y="763" on="0"/>
        <pt x="335" y="780" on="0"/>
        <pt x="335" y="810" on="1"/>
        <pt x="335" y="822" on="1"/>
      </contour>
      <contour>
        <pt x="169" y="851" on="0"/>
        <pt x="187" y="867" on="0"/>
        <pt x="252" y="867" on="0"/>
        <pt x="272" y="850" on="0"/>
        <pt x="272" y="822" on="1"/>
        <pt x="272" y="810" on="1"/>
        <pt x="272" y="780" on="0"/>
        <pt x="252" y="763" on="0"/>
        <pt x="187" y="763" on="0"/>
        <pt x="169" y="779" on="0"/>
        <pt x="169" y="810" on="1"/>
        <pt x="169" y="822" on="1"/>
      </contour>
      <contour>
        <pt x="240" y="829" on="0"/>
        <pt x="232" y="835" on="0"/>
        <pt x="208" y="835" on="0"/>
        <pt x="201" y="830" on="0"/>
        <pt x="201" y="820" on="1"/>
        <pt x="201" y="810" on="1"/>
        <pt x="201" y="800" on="0"/>
        <pt x="208" y="795" on="0"/>
        <pt x="233" y="795" on="0"/>
        <pt x="240" y="800" on="0"/>
        <pt x="240" y="810" on="1"/>
        <pt x="240" y="820" on="1"/>
      </contour>
      <contour>
        <pt x="406" y="829" on="0"/>
        <pt x="398" y="835" on="0"/>
        <pt x="374" y="835" on="0"/>
        <pt x="367" y="830" on="0"/>
        <pt x="367" y="820" on="1"/>
        <pt x="367" y="810" on="1"/>
        <pt x="367" y="800" on="0"/>
        <pt x="374" y="795" on="0"/>
        <pt x="399" y="795" on="0"/>
        <pt x="406" y="800" on="0"/>
        <pt x="406" y="810" on="1"/>
        <pt x="406" y="820" on="1"/>
      </contour>
    </TTGlyph>
    <TTGlyph name="Ograve" xMin="50" yMin="-1" xMax="537" yMax="933">
      <contour>
        <pt x="211" y="692" on="0"/>
        <pt x="265" y="700" on="0"/>
        <pt x="322" y="700" on="0"/>
        <pt x="378" y="691" on="0"/>
        <pt x="449" y="659" on="0"/>
        <pt x="501" y="608" on="0"/>
        <pt x="537" y="515" on="0"/>
        <pt x="537" y="454" on="1"/>
        <pt x="537" y="251" on="1"/>
        <pt x="537" y="188" on="0"/>
        <pt x="500" y="92" on="0"/>
        <pt x="447" y="40" on="0"/>
        <pt x="412" y="24" on="1"/>
        <pt x="356" y="-1" on="0"/>
        <pt x="294" y="-1" on="1"/>
        <pt x="229" y="-1" on="0"/>
        <pt x="138" y="43" on="0"/>
        <pt x="86" y="95" on="0"/>
        <pt x="50" y="190" on="0"/>
        <pt x="50" y="251" on="1"/>
        <pt x="50" y="454" on="1"/>
        <pt x="50" y="517" on="0"/>
        <pt x="87" y="611" on="0"/>
        <pt x="139" y="661" on="0"/>
      </contour>
      <contour>
        <pt x="359" y="644" on="0"/>
        <pt x="316" y="651" on="0"/>
        <pt x="271" y="651" on="0"/>
        <pt x="227" y="644" on="0"/>
        <pt x="170" y="619" on="0"/>
        <pt x="128" y="578" on="0"/>
        <pt x="99" y="501" on="0"/>
        <pt x="99" y="450" on="1"/>
        <pt x="99" y="254" on="1"/>
        <pt x="99" y="203" on="0"/>
        <pt x="128" y="125" on="0"/>
        <pt x="171" y="82" on="0"/>
        <pt x="227" y="56" on="0"/>
        <pt x="272" y="48" on="0"/>
        <pt x="316" y="48" on="0"/>
        <pt x="361" y="56" on="0"/>
        <pt x="417" y="82" on="0"/>
        <pt x="459" y="125" on="0"/>
        <pt x="488" y="203" on="0"/>
        <pt x="488" y="254" on="1"/>
        <pt x="488" y="450" on="1"/>
        <pt x="488" y="501" on="0"/>
        <pt x="458" y="578" on="0"/>
        <pt x="416" y="619" on="0"/>
      </contour>
      <contour>
        <pt x="238" y="912" on="1"/>
        <pt x="238" y="932" on="0"/>
        <pt x="265" y="932" on="1"/>
        <pt x="279" y="932" on="0"/>
        <pt x="288" y="923" on="0"/>
        <pt x="295" y="914" on="1"/>
        <pt x="402" y="778" on="1"/>
        <pt x="407" y="772" on="0"/>
        <pt x="407" y="761" on="0"/>
        <pt x="397" y="746" on="0"/>
        <pt x="366" y="746" on="0"/>
        <pt x="352" y="763" on="1"/>
        <pt x="245" y="896" on="1"/>
        <pt x="238" y="904" on="0"/>
      </contour>
    </TTGlyph>
    <TTGlyph name="Oslash" xMin="50" yMin="-1" xMax="537" yMax="700">
      <contour>
        <pt x="211" y="692" on="0"/>
        <pt x="265" y="700" on="0"/>
        <pt x="322" y="700" on="0"/>
        <pt x="378" y="691" on="0"/>
        <pt x="449" y="659" on="0"/>
        <pt x="501" y="608" on="0"/>
        <pt x="537" y="515" on="0"/>
        <pt x="537" y="454" on="1"/>
        <pt x="537" y="251" on="1"/>
        <pt x="537" y="188" on="0"/>
        <pt x="500" y="92" on="0"/>
        <pt x="447" y="40" on="0"/>
        <pt x="412" y="24" on="1"/>
        <pt x="356" y="-1" on="0"/>
        <pt x="294" y="-1" on="1"/>
        <pt x="229" y="-1" on="0"/>
        <pt x="138" y="43" on="0"/>
        <pt x="86" y="95" on="0"/>
        <pt x="50" y="190" on="0"/>
        <pt x="50" y="251" on="1"/>
        <pt x="50" y="454" on="1"/>
        <pt x="50" y="517" on="0"/>
        <pt x="87" y="611" on="0"/>
        <pt x="139" y="661" on="0"/>
      </contour>
      <contour>
        <pt x="359" y="644" on="0"/>
        <pt x="316" y="651" on="0"/>
        <pt x="271" y="651" on="0"/>
        <pt x="227" y="644" on="0"/>
        <pt x="170" y="619" on="0"/>
        <pt x="128" y="578" on="0"/>
        <pt x="99" y="501" on="0"/>
        <pt x="99" y="450" on="1"/>
        <pt x="99" y="254" on="1"/>
        <pt x="99" y="203" on="0"/>
        <pt x="128" y="125" on="0"/>
        <pt x="171" y="82" on="0"/>
        <pt x="227" y="56" on="0"/>
        <pt x="272" y="48" on="0"/>
        <pt x="316" y="48" on="0"/>
        <pt x="361" y="56" on="0"/>
        <pt x="417" y="82" on="0"/>
        <pt x="459" y="125" on="0"/>
        <pt x="488" y="203" on="0"/>
        <pt x="488" y="254" on="1"/>
        <pt x="488" y="450" on="1"/>
        <pt x="488" y="501" on="0"/>
        <pt x="458" y="578" on="0"/>
        <pt x="416" y="619" on="0"/>
      </contour>
      <contour>
        <pt x="421" y="699" on="1"/>
        <pt x="438" y="699" on="0"/>
        <pt x="438" y="682" on="1"/>
        <pt x="438" y="678" on="0"/>
        <pt x="436" y="673" on="1"/>
        <pt x="175" y="13" on="1"/>
        <pt x="167" y="0" on="0"/>
        <pt x="160" y="0" on="1"/>
        <pt x="148" y="0" on="1"/>
        <pt x="137" y="0" on="0"/>
        <pt x="127" y="13" on="0"/>
        <pt x="127" y="22" on="0"/>
        <pt x="129" y="26" on="1"/>
        <pt x="389" y="686" on="1"/>
        <pt x="396" y="699" on="0"/>
        <pt x="408" y="699" on="1"/>
      </contour>
    </TTGlyph>
    <TTGlyph name="Otilde" xMin="50" yMin="-1" xMax="537" yMax="888">
      <contour>
        <pt x="211" y="692" on="0"/>
        <pt x="265" y="700" on="0"/>
        <pt x="322" y="700" on="0"/>
        <pt x="378" y="691" on="0"/>
        <pt x="449" y="659" on="0"/>
        <pt x="501" y="608" on="0"/>
        <pt x="537" y="515" on="0"/>
        <pt x="537" y="454" on="1"/>
        <pt x="537" y="251" on="1"/>
        <pt x="537" y="188" on="0"/>
        <pt x="500" y="92" on="0"/>
        <pt x="447" y="40" on="0"/>
        <pt x="412" y="24" on="1"/>
        <pt x="356" y="-1" on="0"/>
        <pt x="294" y="-1" on="1"/>
        <pt x="229" y="-1" on="0"/>
        <pt x="138" y="43" on="0"/>
        <pt x="86" y="95" on="0"/>
        <pt x="50" y="190" on="0"/>
        <pt x="50" y="251" on="1"/>
        <pt x="50" y="454" on="1"/>
        <pt x="50" y="517" on="0"/>
        <pt x="87" y="611" on="0"/>
        <pt x="139" y="661" on="0"/>
      </contour>
      <contour>
        <pt x="359" y="644" on="0"/>
        <pt x="316" y="651" on="0"/>
        <pt x="271" y="651" on="0"/>
        <pt x="227" y="644" on="0"/>
        <pt x="170" y="619" on="0"/>
        <pt x="128" y="578" on="0"/>
        <pt x="99" y="501" on="0"/>
        <pt x="99" y="450" on="1"/>
        <pt x="99" y="254" on="1"/>
        <pt x="99" y="203" on="0"/>
        <pt x="128" y="125" on="0"/>
        <pt x="171" y="82" on="0"/>
        <pt x="227" y="56" on="0"/>
        <pt x="272" y="48" on="0"/>
        <pt x="316" y="48" on="0"/>
        <pt x="361" y="56" on="0"/>
        <pt x="417" y="82" on="0"/>
        <pt x="459" y="125" on="0"/>
        <pt x="488" y="203" on="0"/>
        <pt x="488" y="254" on="1"/>
        <pt x="488" y="450" on="1"/>
        <pt x="488" y="501" on="0"/>
        <pt x="458" y="578" on="0"/>
        <pt x="416" y="619" on="0"/>
      </contour>
      <contour>
        <pt x="438" y="888" on="1"/>
        <pt x="462" y="888" on="1"/>
        <pt x="475" y="888" on="0"/>
        <pt x="475" y="871" on="1"/>
        <pt x="475" y="815" on="0"/>
        <pt x="427" y="758" on="0"/>
        <pt x="383" y="758" on="1"/>
        <pt x="359" y="758" on="0"/>
        <pt x="317" y="782" on="0"/>
        <pt x="268" y="825" on="0"/>
        <pt x="240" y="843" on="0"/>
        <pt x="202" y="843" on="0"/>
        <pt x="172" y="810" on="0"/>
        <pt x="172" y="774" on="1"/>
        <pt x="172" y="758" on="0"/>
        <pt x="157" y="758" on="1"/>
        <pt x="142" y="758" on="1"/>
        <pt x="129" y="758" on="0"/>
        <pt x="129" y="778" on="1"/>
        <pt x="129" y="830" on="0"/>
        <pt x="180" y="886" on="0"/>
        <pt x="224" y="886" on="1"/>
        <pt x="260" y="886" on="0"/>
        <pt x="305" y="850" on="1"/>
        <pt x="310" y="846" on="0"/>
        <pt x="337" y="824" on="0"/>
        <pt x="342" y="820" on="1"/>
        <pt x="364" y="802" on="0"/>
        <pt x="381" y="802" on="1"/>
        <pt x="429" y="802" on="0"/>
        <pt x="429" y="870" on="1"/>
        <pt x="429" y="873" on="0"/>
        <pt x="429" y="876" on="1"/>
        <pt x="429" y="888" on="0"/>
      </contour>
    </TTGlyph>
    <TTGlyph name="P" xMin="54" yMin="0" xMax="451" yMax="700">
      <contour>
        <pt x="98" y="700" on="1"/>
        <pt x="253" y="700" on="1"/>
        <pt x="323" y="700" on="0"/>
        <pt x="382" y="662" on="1"/>
        <pt x="413" y="642" on="0"/>
        <pt x="451" y="566" on="0"/>
        <pt x="451" y="514" on="1"/>
        <pt x="451" y="435" on="0"/>
        <pt x="359" y="328" on="0"/>
        <pt x="245" y="328" on="1"/>
        <pt x="179" y="328" on="1"/>
        <pt x="170" y="328" on="0"/>
        <pt x="159" y="340" on="0"/>
        <pt x="159" y="348" on="1"/>
        <pt x="159" y="357" on="1"/>
        <pt x="159" y="377" on="0"/>
        <pt x="179" y="377" on="1"/>
        <pt x="233" y="377" on="1"/>
        <pt x="342" y="377" on="0"/>
        <pt x="374" y="423" on="1"/>
        <pt x="401" y="461" on="0"/>
        <pt x="401" y="515" on="1"/>
        <pt x="401" y="586" on="0"/>
        <pt x="310" y="650" on="0"/>
        <pt x="248" y="650" on="1"/>
        <pt x="104" y="650" on="1"/>
        <pt x="104" y="20" on="1"/>
        <pt x="104" y="12" on="0"/>
        <pt x="92" y="0" on="0"/>
        <pt x="84" y="0" on="1"/>
        <pt x="74" y="0" on="1"/>
        <pt x="66" y="0" on="0"/>
        <pt x="54" y="12" on="0"/>
        <pt x="54" y="20" on="1"/>
        <pt x="54" y="656" on="1"/>
        <pt x="54" y="682" on="0"/>
        <pt x="72" y="700" on="0"/>
      </contour>
    </TTGlyph>
    <TTGlyph name="Q" xMin="50" yMin="-1" xMax="552" yMax="706">
      <contour>
        <pt x="266" y="706" on="0"/>
        <pt x="322" y="706" on="0"/>
        <pt x="378" y="696" on="0"/>
        <pt x="448" y="662" on="0"/>
        <pt x="501" y="610" on="0"/>
        <pt x="537" y="515" on="0"/>
        <pt x="537" y="454" on="1"/>
        <pt x="537" y="251" on="1"/>
        <pt x="537" y="152" on="0"/>
        <pt x="491" y="87" on="1"/>
        <pt x="545" y="25" on="1"/>
        <pt x="551" y="17" on="0"/>
        <pt x="551" y="11" on="1"/>
        <pt x="551" y="0" on="0"/>
        <pt x="536" y="0" on="1"/>
        <pt x="510" y="0" on="1"/>
        <pt x="502" y="0" on="0"/>
        <pt x="495" y="7" on="1"/>
        <pt x="457" y="51" on="1"/>
        <pt x="392" y="-1" on="0"/>
        <pt x="294" y="-1" on="1"/>
        <pt x="229" y="-1" on="0"/>
        <pt x="138" y="43" on="0"/>
        <pt x="86" y="95" on="0"/>
        <pt x="50" y="190" on="0"/>
        <pt x="50" y="251" on="1"/>
        <pt x="50" y="454" on="1"/>
        <pt x="50" y="517" on="0"/>
        <pt x="87" y="613" on="0"/>
        <pt x="139" y="665" on="0"/>
        <pt x="210" y="697" on="0"/>
      </contour>
      <contour>
        <pt x="360" y="648" on="0"/>
        <pt x="316" y="656" on="0"/>
        <pt x="271" y="656" on="0"/>
        <pt x="226" y="648" on="0"/>
        <pt x="170" y="622" on="0"/>
        <pt x="128" y="579" on="0"/>
        <pt x="99" y="501" on="0"/>
        <pt x="99" y="450" on="1"/>
        <pt x="99" y="254" on="1"/>
        <pt x="99" y="203" on="0"/>
        <pt x="128" y="125" on="0"/>
        <pt x="171" y="82" on="0"/>
        <pt x="199" y="69" on="1"/>
        <pt x="244" y="48" on="0"/>
        <pt x="294" y="48" on="1"/>
        <pt x="373" y="48" on="0"/>
        <pt x="423" y="90" on="1"/>
        <pt x="311" y="223" on="1"/>
        <pt x="300" y="235" on="0"/>
        <pt x="300" y="243" on="1"/>
        <pt x="300" y="253" on="0"/>
        <pt x="322" y="253" on="1"/>
        <pt x="338" y="253" on="1"/>
        <pt x="347" y="253" on="0"/>
        <pt x="354" y="246" on="1"/>
        <pt x="456" y="127" on="1"/>
        <pt x="488" y="178" on="0"/>
        <pt x="488" y="254" on="1"/>
        <pt x="488" y="450" on="1"/>
        <pt x="488" y="501" on="0"/>
        <pt x="458" y="579" on="0"/>
        <pt x="416" y="622" on="0"/>
      </contour>
    </TTGlyph>
    <TTGlyph name="R" xMin="55" yMin="0" xMax="498" yMax="700">
      <contour>
        <pt x="97" y="700" on="1"/>
        <pt x="234" y="700" on="1"/>
        <pt x="476" y="700" on="0"/>
        <pt x="476" y="510" on="1"/>
        <pt x="476" y="436" on="0"/>
        <pt x="382" y="321" on="0"/>
        <pt x="281" y="321" on="1"/>
        <pt x="270" y="321" on="1"/>
        <pt x="486" y="37" on="1"/>
        <pt x="498" y="19" on="0"/>
        <pt x="498" y="15" on="1"/>
        <pt x="498" y="0" on="0"/>
        <pt x="484" y="0" on="1"/>
        <pt x="464" y="0" on="1"/>
        <pt x="451" y="0" on="0"/>
        <pt x="445" y="8" on="1"/>
        <pt x="214" y="312" on="1"/>
        <pt x="203" y="328" on="0"/>
        <pt x="203" y="338" on="1"/>
        <pt x="203" y="370" on="0"/>
        <pt x="238" y="370" on="1"/>
        <pt x="282" y="370" on="1"/>
        <pt x="324" y="370" on="0"/>
        <pt x="384" y="398" on="0"/>
        <pt x="398" y="420" on="1"/>
        <pt x="426" y="463" on="0"/>
        <pt x="426" y="509" on="1"/>
        <pt x="426" y="650" on="0"/>
        <pt x="233" y="650" on="1"/>
        <pt x="105" y="650" on="1"/>
        <pt x="105" y="20" on="1"/>
        <pt x="105" y="12" on="0"/>
        <pt x="94" y="0" on="0"/>
        <pt x="85" y="0" on="1"/>
        <pt x="75" y="0" on="1"/>
        <pt x="66" y="0" on="0"/>
        <pt x="55" y="12" on="0"/>
        <pt x="55" y="20" on="1"/>
        <pt x="55" y="653" on="1"/>
        <pt x="55" y="680" on="0"/>
        <pt x="72" y="700" on="0"/>
      </contour>
    </TTGlyph>
    <TTGlyph name="S" xMin="52" yMin="-1" xMax="508" yMax="702">
      <contour>
        <pt x="85" y="606" on="0"/>
        <pt x="191" y="702" on="0"/>
        <pt x="374" y="702" on="0"/>
        <pt x="499" y="605" on="0"/>
        <pt x="503" y="509" on="1"/>
        <pt x="503" y="501" on="0"/>
        <pt x="491" y="488" on="0"/>
        <pt x="483" y="488" on="1"/>
        <pt x="473" y="488" on="1"/>
        <pt x="466" y="488" on="0"/>
        <pt x="454" y="499" on="0"/>
        <pt x="453" y="507" on="1"/>
        <pt x="450" y="583" on="0"/>
        <pt x="354" y="652" on="0"/>
        <pt x="287" y="652" on="1"/>
        <pt x="215" y="652" on="0"/>
        <pt x="135" y="586" on="0"/>
        <pt x="135" y="489" on="0"/>
        <pt x="163" y="460" on="1"/>
        <pt x="202" y="421" on="0"/>
        <pt x="308" y="380" on="1"/>
        <pt x="434" y="330" on="0"/>
        <pt x="476" y="280" on="1"/>
        <pt x="508" y="242" on="0"/>
        <pt x="508" y="100" on="0"/>
        <pt x="393" y="-1" on="0"/>
        <pt x="287" y="-1" on="1"/>
        <pt x="208" y="-1" on="0"/>
        <pt x="138" y="42" on="1"/>
        <pt x="101" y="65" on="0"/>
        <pt x="54" y="148" on="0"/>
        <pt x="52" y="202" on="1"/>
        <pt x="52" y="223" on="0"/>
        <pt x="72" y="223" on="1"/>
        <pt x="81" y="223" on="1"/>
        <pt x="99" y="223" on="0"/>
        <pt x="101" y="204" on="1"/>
        <pt x="103" y="160" on="0"/>
        <pt x="143" y="95" on="0"/>
        <pt x="173" y="79" on="1"/>
        <pt x="231" y="48" on="0"/>
        <pt x="370" y="48" on="0"/>
        <pt x="459" y="121" on="0"/>
        <pt x="459" y="176" on="1"/>
        <pt x="459" y="232" on="0"/>
        <pt x="423" y="262" on="1"/>
        <pt x="394" y="286" on="0"/>
        <pt x="360" y="303" on="1"/>
        <pt x="316" y="324" on="0"/>
        <pt x="222" y="362" on="1"/>
        <pt x="150" y="394" on="0"/>
        <pt x="85" y="477" on="0"/>
      </contour>
    </TTGlyph>
    <TTGlyph name="Scaron" xMin="52" yMin="-1" xMax="508" yMax="893">
      <contour>
        <pt x="85" y="606" on="0"/>
        <pt x="191" y="702" on="0"/>
        <pt x="374" y="702" on="0"/>
        <pt x="499" y="605" on="0"/>
        <pt x="503" y="509" on="1"/>
        <pt x="503" y="501" on="0"/>
        <pt x="491" y="488" on="0"/>
        <pt x="483" y="488" on="1"/>
        <pt x="473" y="488" on="1"/>
        <pt x="466" y="488" on="0"/>
        <pt x="454" y="499" on="0"/>
        <pt x="453" y="507" on="1"/>
        <pt x="450" y="583" on="0"/>
        <pt x="354" y="652" on="0"/>
        <pt x="287" y="652" on="1"/>
        <pt x="215" y="652" on="0"/>
        <pt x="135" y="586" on="0"/>
        <pt x="135" y="489" on="0"/>
        <pt x="163" y="460" on="1"/>
        <pt x="202" y="421" on="0"/>
        <pt x="308" y="380" on="1"/>
        <pt x="434" y="330" on="0"/>
        <pt x="476" y="280" on="1"/>
        <pt x="508" y="242" on="0"/>
        <pt x="508" y="100" on="0"/>
        <pt x="393" y="-1" on="0"/>
        <pt x="287" y="-1" on="1"/>
        <pt x="208" y="-1" on="0"/>
        <pt x="138" y="42" on="1"/>
        <pt x="101" y="65" on="0"/>
        <pt x="54" y="148" on="0"/>
        <pt x="52" y="202" on="1"/>
        <pt x="52" y="223" on="0"/>
        <pt x="72" y="223" on="1"/>
        <pt x="81" y="223" on="1"/>
        <pt x="99" y="223" on="0"/>
        <pt x="101" y="204" on="1"/>
        <pt x="103" y="160" on="0"/>
        <pt x="143" y="95" on="0"/>
        <pt x="173" y="79" on="1"/>
        <pt x="231" y="48" on="0"/>
        <pt x="370" y="48" on="0"/>
        <pt x="459" y="121" on="0"/>
        <pt x="459" y="176" on="1"/>
        <pt x="459" y="232" on="0"/>
        <pt x="423" y="262" on="1"/>
        <pt x="394" y="286" on="0"/>
        <pt x="360" y="303" on="1"/>
        <pt x="316" y="324" on="0"/>
        <pt x="222" y="362" on="1"/>
        <pt x="150" y="394" on="0"/>
        <pt x="85" y="477" on="0"/>
      </contour>
      <contour>
        <pt x="366" y="870" on="0"/>
        <pt x="395" y="893" on="0"/>
        <pt x="421" y="893" on="0"/>
        <pt x="426" y="881" on="1"/>
        <pt x="428" y="877" on="0"/>
        <pt x="428" y="866" on="0"/>
        <pt x="422" y="861" on="1"/>
        <pt x="315" y="756" on="1"/>
        <pt x="314" y="755" on="0"/>
        <pt x="306" y="748" on="0"/>
        <pt x="302" y="744" on="0"/>
        <pt x="298" y="742" on="1"/>
        <pt x="291" y="737" on="0"/>
        <pt x="279" y="737" on="1"/>
        <pt x="277" y="737" on="1"/>
        <pt x="261" y="737" on="0"/>
        <pt x="250" y="748" on="0"/>
        <pt x="242" y="755" on="0"/>
        <pt x="241" y="756" on="1"/>
        <pt x="134" y="861" on="1"/>
        <pt x="128" y="866" on="0"/>
        <pt x="128" y="877" on="0"/>
        <pt x="130" y="881" on="1"/>
        <pt x="135" y="893" on="0"/>
        <pt x="161" y="893" on="0"/>
        <pt x="190" y="870" on="0"/>
        <pt x="276" y="792" on="1"/>
        <pt x="278" y="790" on="1"/>
        <pt x="280" y="792" on="1"/>
      </contour>
    </TTGlyph>
    <TTGlyph name="T" xMin="5" yMin="0" xMax="489" yMax="700">
      <contour>
        <pt x="241" y="624" on="1"/>
        <pt x="251" y="624" on="1"/>
        <pt x="271" y="624" on="0"/>
        <pt x="271" y="605" on="1"/>
        <pt x="271" y="20" on="1"/>
        <pt x="271" y="12" on="0"/>
        <pt x="260" y="0" on="0"/>
        <pt x="251" y="0" on="1"/>
        <pt x="241" y="0" on="1"/>
        <pt x="232" y="0" on="0"/>
        <pt x="221" y="12" on="0"/>
        <pt x="221" y="20" on="1"/>
        <pt x="221" y="605" on="1"/>
        <pt x="221" y="624" on="0"/>
      </contour>
      <contour>
        <pt x="25" y="700" on="1"/>
        <pt x="469" y="700" on="1"/>
        <pt x="478" y="700" on="0"/>
        <pt x="489" y="688" on="0"/>
        <pt x="489" y="680" on="1"/>
        <pt x="489" y="669" on="1"/>
        <pt x="489" y="651" on="0"/>
        <pt x="469" y="651" on="1"/>
        <pt x="25" y="651" on="1"/>
        <pt x="5" y="651" on="0"/>
        <pt x="5" y="669" on="1"/>
        <pt x="5" y="680" on="1"/>
        <pt x="5" y="688" on="0"/>
        <pt x="17" y="700" on="0"/>
      </contour>
    </TTGlyph>
    <TTGlyph name="Thorn" xMin="75" yMin="0" xMax="462" yMax="732">
      <contour>
        <pt x="176" y="590" on="1"/>
        <pt x="261" y="590" on="1"/>
        <pt x="332" y="590" on="0"/>
        <pt x="392" y="554" on="1"/>
        <pt x="423" y="535" on="0"/>
        <pt x="462" y="459" on="0"/>
        <pt x="462" y="407" on="1"/>
        <pt x="462" y="323" on="0"/>
        <pt x="362" y="218" on="0"/>
        <pt x="269" y="218" on="1"/>
        <pt x="180" y="218" on="1"/>
        <pt x="171" y="218" on="0"/>
        <pt x="160" y="230" on="0"/>
        <pt x="160" y="238" on="1"/>
        <pt x="160" y="247" on="1"/>
        <pt x="160" y="267" on="0"/>
        <pt x="180" y="267" on="1"/>
        <pt x="260" y="267" on="1"/>
        <pt x="412" y="267" on="0"/>
        <pt x="412" y="403" on="1"/>
        <pt x="412" y="474" on="0"/>
        <pt x="319" y="541" on="0"/>
        <pt x="259" y="541" on="1"/>
        <pt x="176" y="541" on="1"/>
        <pt x="167" y="541" on="0"/>
        <pt x="156" y="553" on="0"/>
        <pt x="156" y="561" on="1"/>
        <pt x="156" y="570" on="1"/>
        <pt x="156" y="590" on="0"/>
      </contour>
      <contour>
        <pt x="95" y="732" on="1"/>
        <pt x="105" y="732" on="1"/>
        <pt x="113" y="732" on="0"/>
        <pt x="125" y="720" on="0"/>
        <pt x="125" y="712" on="1"/>
        <pt x="125" y="20" on="1"/>
        <pt x="125" y="12" on="0"/>
        <pt x="113" y="0" on="0"/>
        <pt x="105" y="0" on="1"/>
        <pt x="95" y="0" on="1"/>
        <pt x="87" y="0" on="0"/>
        <pt x="75" y="12" on="0"/>
        <pt x="75" y="20" on="1"/>
        <pt x="75" y="712" on="1"/>
        <pt x="75" y="720" on="0"/>
        <pt x="87" y="732" on="0"/>
      </contour>
    </TTGlyph>
    <TTGlyph name="U" xMin="39" yMin="-1" xMax="510" yMax="700">
      <contour>
        <pt x="480" y="700" on="1"/>
        <pt x="490" y="700" on="1"/>
        <pt x="498" y="700" on="0"/>
        <pt x="510" y="688" on="0"/>
        <pt x="510" y="680" on="1"/>
        <pt x="510" y="251" on="1"/>
        <pt x="510" y="179" on="0"/>
        <pt x="462" y="74" on="0"/>
        <pt x="424" y="48" on="1"/>
        <pt x="354" y="-1" on="0"/>
        <pt x="281" y="-1" on="1"/>
        <pt x="269" y="-1" on="1"/>
        <pt x="196" y="-1" on="0"/>
        <pt x="124" y="48" on="1"/>
        <pt x="86" y="74" on="0"/>
        <pt x="39" y="179" on="0"/>
        <pt x="39" y="251" on="1"/>
        <pt x="39" y="680" on="1"/>
        <pt x="39" y="688" on="0"/>
        <pt x="50" y="700" on="0"/>
        <pt x="59" y="700" on="1"/>
        <pt x="69" y="700" on="1"/>
        <pt x="78" y="700" on="0"/>
        <pt x="89" y="688" on="0"/>
        <pt x="89" y="680" on="1"/>
        <pt x="89" y="251" on="1"/>
        <pt x="89" y="192" on="0"/>
        <pt x="127" y="107" on="0"/>
        <pt x="158" y="86" on="1"/>
        <pt x="212" y="50" on="0"/>
        <pt x="271" y="48" on="1"/>
        <pt x="280" y="48" on="1"/>
        <pt x="337" y="50" on="0"/>
        <pt x="392" y="87" on="1"/>
        <pt x="422" y="107" on="0"/>
        <pt x="460" y="192" on="0"/>
        <pt x="460" y="251" on="1"/>
        <pt x="460" y="680" on="1"/>
        <pt x="460" y="688" on="0"/>
        <pt x="471" y="700" on="0"/>
      </contour>
    </TTGlyph>
    <TTGlyph name="Uacute" xMin="39" yMin="-1" xMax="510" yMax="933">
      <contour>
        <pt x="480" y="700" on="1"/>
        <pt x="490" y="700" on="1"/>
        <pt x="498" y="700" on="0"/>
        <pt x="510" y="688" on="0"/>
        <pt x="510" y="680" on="1"/>
        <pt x="510" y="251" on="1"/>
        <pt x="510" y="179" on="0"/>
        <pt x="462" y="74" on="0"/>
        <pt x="424" y="48" on="1"/>
        <pt x="354" y="-1" on="0"/>
        <pt x="281" y="-1" on="1"/>
        <pt x="269" y="-1" on="1"/>
        <pt x="196" y="-1" on="0"/>
        <pt x="124" y="48" on="1"/>
        <pt x="86" y="74" on="0"/>
        <pt x="39" y="179" on="0"/>
        <pt x="39" y="251" on="1"/>
        <pt x="39" y="680" on="1"/>
        <pt x="39" y="688" on="0"/>
        <pt x="50" y="700" on="0"/>
        <pt x="59" y="700" on="1"/>
        <pt x="69" y="700" on="1"/>
        <pt x="78" y="700" on="0"/>
        <pt x="89" y="688" on="0"/>
        <pt x="89" y="680" on="1"/>
        <pt x="89" y="251" on="1"/>
        <pt x="89" y="192" on="0"/>
        <pt x="127" y="107" on="0"/>
        <pt x="158" y="86" on="1"/>
        <pt x="212" y="50" on="0"/>
        <pt x="271" y="48" on="1"/>
        <pt x="280" y="48" on="1"/>
        <pt x="337" y="50" on="0"/>
        <pt x="392" y="87" on="1"/>
        <pt x="422" y="107" on="0"/>
        <pt x="460" y="192" on="0"/>
        <pt x="460" y="251" on="1"/>
        <pt x="460" y="680" on="1"/>
        <pt x="460" y="688" on="0"/>
        <pt x="471" y="700" on="0"/>
      </contour>
      <contour>
        <pt x="327" y="932" on="1"/>
        <pt x="353" y="932" on="0"/>
        <pt x="353" y="909" on="1"/>
        <pt x="353" y="904" on="0"/>
        <pt x="346" y="896" on="1"/>
        <pt x="239" y="763" on="1"/>
        <pt x="225" y="746" on="0"/>
        <pt x="194" y="746" on="0"/>
        <pt x="184" y="761" on="0"/>
        <pt x="184" y="772" on="0"/>
        <pt x="189" y="778" on="1"/>
        <pt x="296" y="914" on="1"/>
        <pt x="300" y="918" on="0"/>
        <pt x="302" y="922" on="0"/>
        <pt x="307" y="927" on="0"/>
        <pt x="309" y="928" on="0"/>
        <pt x="315" y="932" on="0"/>
        <pt x="319" y="931" on="0"/>
        <pt x="325" y="932" on="0"/>
      </contour>
    </TTGlyph>
    <TTGlyph name="Ucircumflex" xMin="39" yMin="-1" xMax="510" yMax="952">
      <contour>
        <pt x="480" y="700" on="1"/>
        <pt x="490" y="700" on="1"/>
        <pt x="498" y="700" on="0"/>
        <pt x="510" y="688" on="0"/>
        <pt x="510" y="680" on="1"/>
        <pt x="510" y="251" on="1"/>
        <pt x="510" y="179" on="0"/>
        <pt x="462" y="74" on="0"/>
        <pt x="424" y="48" on="1"/>
        <pt x="354" y="-1" on="0"/>
        <pt x="281" y="-1" on="1"/>
        <pt x="269" y="-1" on="1"/>
        <pt x="196" y="-1" on="0"/>
        <pt x="124" y="48" on="1"/>
        <pt x="86" y="74" on="0"/>
        <pt x="39" y="179" on="0"/>
        <pt x="39" y="251" on="1"/>
        <pt x="39" y="680" on="1"/>
        <pt x="39" y="688" on="0"/>
        <pt x="50" y="700" on="0"/>
        <pt x="59" y="700" on="1"/>
        <pt x="69" y="700" on="1"/>
        <pt x="78" y="700" on="0"/>
        <pt x="89" y="688" on="0"/>
        <pt x="89" y="680" on="1"/>
        <pt x="89" y="251" on="1"/>
        <pt x="89" y="192" on="0"/>
        <pt x="127" y="107" on="0"/>
        <pt x="158" y="86" on="1"/>
        <pt x="212" y="50" on="0"/>
        <pt x="271" y="48" on="1"/>
        <pt x="280" y="48" on="1"/>
        <pt x="337" y="50" on="0"/>
        <pt x="392" y="87" on="1"/>
        <pt x="422" y="107" on="0"/>
        <pt x="460" y="192" on="0"/>
        <pt x="460" y="251" on="1"/>
        <pt x="460" y="680" on="1"/>
        <pt x="460" y="688" on="0"/>
        <pt x="471" y="700" on="0"/>
      </contour>
      <contour>
        <pt x="230" y="933" on="1"/>
        <pt x="244" y="952" on="0"/>
        <pt x="290" y="952" on="0"/>
        <pt x="304" y="933" on="1"/>
        <pt x="425" y="781" on="1"/>
        <pt x="430" y="775" on="0"/>
        <pt x="430" y="767" on="1"/>
        <pt x="430" y="749" on="0"/>
        <pt x="410" y="749" on="1"/>
        <pt x="397" y="749" on="1"/>
        <pt x="386" y="749" on="0"/>
        <pt x="382" y="755" on="1"/>
        <pt x="269" y="900" on="1"/>
        <pt x="267" y="902" on="1"/>
        <pt x="156" y="755" on="1"/>
        <pt x="152" y="749" on="0"/>
        <pt x="142" y="749" on="1"/>
        <pt x="129" y="749" on="1"/>
        <pt x="109" y="749" on="0"/>
        <pt x="109" y="767" on="1"/>
        <pt x="109" y="773" on="0"/>
        <pt x="114" y="781" on="1"/>
      </contour>
    </TTGlyph>
    <TTGlyph name="Udieresis" xMin="39" yMin="-1" xMax="510" yMax="867">
      <contour>
        <pt x="480" y="700" on="1"/>
        <pt x="490" y="700" on="1"/>
        <pt x="498" y="700" on="0"/>
        <pt x="510" y="688" on="0"/>
        <pt x="510" y="680" on="1"/>
        <pt x="510" y="251" on="1"/>
        <pt x="510" y="179" on="0"/>
        <pt x="462" y="74" on="0"/>
        <pt x="424" y="48" on="1"/>
        <pt x="354" y="-1" on="0"/>
        <pt x="281" y="-1" on="1"/>
        <pt x="269" y="-1" on="1"/>
        <pt x="196" y="-1" on="0"/>
        <pt x="124" y="48" on="1"/>
        <pt x="86" y="74" on="0"/>
        <pt x="39" y="179" on="0"/>
        <pt x="39" y="251" on="1"/>
        <pt x="39" y="680" on="1"/>
        <pt x="39" y="688" on="0"/>
        <pt x="50" y="700" on="0"/>
        <pt x="59" y="700" on="1"/>
        <pt x="69" y="700" on="1"/>
        <pt x="78" y="700" on="0"/>
        <pt x="89" y="688" on="0"/>
        <pt x="89" y="680" on="1"/>
        <pt x="89" y="251" on="1"/>
        <pt x="89" y="192" on="0"/>
        <pt x="127" y="107" on="0"/>
        <pt x="158" y="86" on="1"/>
        <pt x="212" y="50" on="0"/>
        <pt x="271" y="48" on="1"/>
        <pt x="280" y="48" on="1"/>
        <pt x="337" y="50" on="0"/>
        <pt x="392" y="87" on="1"/>
        <pt x="422" y="107" on="0"/>
        <pt x="460" y="192" on="0"/>
        <pt x="460" y="251" on="1"/>
        <pt x="460" y="680" on="1"/>
        <pt x="460" y="688" on="0"/>
        <pt x="471" y="700" on="0"/>
      </contour>
      <contour>
        <pt x="300" y="851" on="0"/>
        <pt x="318" y="867" on="0"/>
        <pt x="383" y="867" on="0"/>
        <pt x="403" y="850" on="0"/>
        <pt x="403" y="822" on="1"/>
        <pt x="403" y="810" on="1"/>
        <pt x="403" y="780" on="0"/>
        <pt x="383" y="763" on="0"/>
        <pt x="318" y="763" on="0"/>
        <pt x="300" y="780" on="0"/>
        <pt x="300" y="810" on="1"/>
        <pt x="300" y="822" on="1"/>
      </contour>
      <contour>
        <pt x="134" y="851" on="0"/>
        <pt x="152" y="867" on="0"/>
        <pt x="217" y="867" on="0"/>
        <pt x="237" y="850" on="0"/>
        <pt x="237" y="822" on="1"/>
        <pt x="237" y="810" on="1"/>
        <pt x="237" y="780" on="0"/>
        <pt x="217" y="763" on="0"/>
        <pt x="152" y="763" on="0"/>
        <pt x="134" y="779" on="0"/>
        <pt x="134" y="810" on="1"/>
        <pt x="134" y="822" on="1"/>
      </contour>
      <contour>
        <pt x="205" y="829" on="0"/>
        <pt x="197" y="835" on="0"/>
        <pt x="173" y="835" on="0"/>
        <pt x="166" y="830" on="0"/>
        <pt x="166" y="820" on="1"/>
        <pt x="166" y="810" on="1"/>
        <pt x="166" y="800" on="0"/>
        <pt x="173" y="795" on="0"/>
        <pt x="198" y="795" on="0"/>
        <pt x="205" y="800" on="0"/>
        <pt x="205" y="810" on="1"/>
        <pt x="205" y="820" on="1"/>
      </contour>
      <contour>
        <pt x="371" y="829" on="0"/>
        <pt x="363" y="835" on="0"/>
        <pt x="339" y="835" on="0"/>
        <pt x="332" y="830" on="0"/>
        <pt x="332" y="820" on="1"/>
        <pt x="332" y="810" on="1"/>
        <pt x="332" y="800" on="0"/>
        <pt x="339" y="795" on="0"/>
        <pt x="364" y="795" on="0"/>
        <pt x="371" y="800" on="0"/>
        <pt x="371" y="810" on="1"/>
        <pt x="371" y="820" on="1"/>
      </contour>
    </TTGlyph>
    <TTGlyph name="Ugrave" xMin="39" yMin="-1" xMax="510" yMax="933">
      <contour>
        <pt x="480" y="700" on="1"/>
        <pt x="490" y="700" on="1"/>
        <pt x="498" y="700" on="0"/>
        <pt x="510" y="688" on="0"/>
        <pt x="510" y="680" on="1"/>
        <pt x="510" y="251" on="1"/>
        <pt x="510" y="179" on="0"/>
        <pt x="462" y="74" on="0"/>
        <pt x="424" y="48" on="1"/>
        <pt x="354" y="-1" on="0"/>
        <pt x="281" y="-1" on="1"/>
        <pt x="269" y="-1" on="1"/>
        <pt x="196" y="-1" on="0"/>
        <pt x="124" y="48" on="1"/>
        <pt x="86" y="74" on="0"/>
        <pt x="39" y="179" on="0"/>
        <pt x="39" y="251" on="1"/>
        <pt x="39" y="680" on="1"/>
        <pt x="39" y="688" on="0"/>
        <pt x="50" y="700" on="0"/>
        <pt x="59" y="700" on="1"/>
        <pt x="69" y="700" on="1"/>
        <pt x="78" y="700" on="0"/>
        <pt x="89" y="688" on="0"/>
        <pt x="89" y="680" on="1"/>
        <pt x="89" y="251" on="1"/>
        <pt x="89" y="192" on="0"/>
        <pt x="127" y="107" on="0"/>
        <pt x="158" y="86" on="1"/>
        <pt x="212" y="50" on="0"/>
        <pt x="271" y="48" on="1"/>
        <pt x="280" y="48" on="1"/>
        <pt x="337" y="50" on="0"/>
        <pt x="392" y="87" on="1"/>
        <pt x="422" y="107" on="0"/>
        <pt x="460" y="192" on="0"/>
        <pt x="460" y="251" on="1"/>
        <pt x="460" y="680" on="1"/>
        <pt x="460" y="688" on="0"/>
        <pt x="471" y="700" on="0"/>
      </contour>
      <contour>
        <pt x="203" y="912" on="1"/>
        <pt x="203" y="932" on="0"/>
        <pt x="230" y="932" on="1"/>
        <pt x="244" y="932" on="0"/>
        <pt x="253" y="923" on="0"/>
        <pt x="260" y="914" on="1"/>
        <pt x="367" y="778" on="1"/>
        <pt x="372" y="772" on="0"/>
        <pt x="372" y="761" on="0"/>
        <pt x="362" y="746" on="0"/>
        <pt x="331" y="746" on="0"/>
        <pt x="317" y="763" on="1"/>
        <pt x="210" y="896" on="1"/>
        <pt x="203" y="904" on="0"/>
      </contour>
    </TTGlyph>
    <TTGlyph name="V" xMin="-4" yMin="-1" xMax="535" yMax="700">
      <contour>
        <pt x="503" y="700" on="1"/>
        <pt x="515" y="700" on="1"/>
        <pt x="535" y="700" on="0"/>
        <pt x="535" y="680" on="1"/>
        <pt x="535" y="676" on="0"/>
        <pt x="534" y="673" on="1"/>
        <pt x="306" y="26" on="1"/>
        <pt x="297" y="-1" on="0"/>
        <pt x="237" y="-1" on="0"/>
        <pt x="227" y="27" on="1"/>
        <pt x="-3" y="673" on="1"/>
        <pt x="-4" y="676" on="0"/>
        <pt x="-4" y="680" on="1"/>
        <pt x="-4" y="700" on="0"/>
        <pt x="16" y="700" on="1"/>
        <pt x="28" y="700" on="1"/>
        <pt x="40" y="700" on="0"/>
        <pt x="47" y="687" on="1"/>
        <pt x="266" y="63" on="1"/>
        <pt x="484" y="687" on="1"/>
        <pt x="490" y="700" on="0"/>
      </contour>
    </TTGlyph>
    <TTGlyph name="W" xMin="-19" yMin="-1" xMax="761" yMax="700">
      <contour>
        <pt x="730" y="700" on="1"/>
        <pt x="741" y="700" on="1"/>
        <pt x="752" y="700" on="0"/>
        <pt x="761" y="687" on="0"/>
        <pt x="761" y="678" on="0"/>
        <pt x="760" y="675" on="1"/>
        <pt x="581" y="32" on="1"/>
        <pt x="571" y="-1" on="0"/>
        <pt x="508" y="-1" on="0"/>
        <pt x="499" y="32" on="1"/>
        <pt x="376" y="472" on="1"/>
        <pt x="253" y="30" on="1"/>
        <pt x="242" y="-1" on="0"/>
        <pt x="183" y="-1" on="0"/>
        <pt x="172" y="30" on="1"/>
        <pt x="-17" y="674" on="1"/>
        <pt x="-18" y="678" on="0"/>
        <pt x="-18" y="688" on="0"/>
        <pt x="-9" y="700" on="0"/>
        <pt x="2" y="700" on="1"/>
        <pt x="12" y="700" on="1"/>
        <pt x="24" y="700" on="0"/>
        <pt x="31" y="686" on="1"/>
        <pt x="213" y="68" on="1"/>
        <pt x="342" y="529" on="1"/>
        <pt x="350" y="557" on="0"/>
        <pt x="405" y="557" on="0"/>
        <pt x="411" y="528" on="1"/>
        <pt x="432" y="452" on="0"/>
        <pt x="519" y="145" on="0"/>
        <pt x="540" y="69" on="1"/>
        <pt x="711" y="685" on="1"/>
        <pt x="713" y="690" on="0"/>
        <pt x="724" y="700" on="0"/>
      </contour>
    </TTGlyph>
    <TTGlyph name="X" xMin="-4" yMin="0" xMax="460" yMax="700">
      <contour>
        <pt x="418" y="700" on="1"/>
        <pt x="429" y="700" on="1"/>
        <pt x="441" y="700" on="0"/>
        <pt x="452" y="680" on="0"/>
        <pt x="446" y="670" on="1"/>
        <pt x="446" y="671" on="1"/>
        <pt x="277" y="363" on="1"/>
        <pt x="276" y="362" on="0"/>
        <pt x="271" y="354" on="0"/>
        <pt x="269" y="352" on="1"/>
        <pt x="275" y="344" on="1"/>
        <pt x="456" y="29" on="1"/>
        <pt x="459" y="24" on="0"/>
        <pt x="459" y="14" on="0"/>
        <pt x="451" y="0" on="0"/>
        <pt x="439" y="0" on="1"/>
        <pt x="427" y="0" on="1"/>
        <pt x="416" y="0" on="0"/>
        <pt x="412" y="6" on="1"/>
        <pt x="239" y="306" on="1"/>
        <pt x="229" y="289" on="0"/>
        <pt x="90" y="66" on="0"/>
        <pt x="55" y="9" on="1"/>
        <pt x="48" y="0" on="0"/>
        <pt x="38" y="0" on="1"/>
        <pt x="26" y="0" on="1"/>
        <pt x="13" y="0" on="0"/>
        <pt x="3" y="20" on="0"/>
        <pt x="9" y="31" on="1"/>
        <pt x="205" y="344" on="1"/>
        <pt x="205" y="343" on="1"/>
        <pt x="209" y="351" on="0"/>
        <pt x="212" y="354" on="1"/>
        <pt x="208" y="358" on="0"/>
        <pt x="207" y="361" on="1"/>
        <pt x="0" y="669" on="1"/>
        <pt x="-3" y="674" on="0"/>
        <pt x="-3" y="684" on="0"/>
        <pt x="5" y="700" on="0"/>
        <pt x="17" y="700" on="1"/>
        <pt x="28" y="700" on="1"/>
        <pt x="38" y="700" on="0"/>
        <pt x="45" y="691" on="1"/>
        <pt x="241" y="400" on="1"/>
        <pt x="402" y="694" on="1"/>
        <pt x="406" y="700" on="0"/>
      </contour>
    </TTGlyph>
    <TTGlyph name="Y" xMin="-6" yMin="0" xMax="423" yMax="700">
      <contour>
        <pt x="391" y="700" on="1"/>
        <pt x="402" y="700" on="1"/>
        <pt x="414" y="700" on="0"/>
        <pt x="422" y="685" on="0"/>
        <pt x="422" y="675" on="0"/>
        <pt x="419" y="670" on="1"/>
        <pt x="419" y="671" on="1"/>
        <pt x="250" y="363" on="1"/>
        <pt x="242" y="351" on="0"/>
        <pt x="239" y="348" on="1"/>
        <pt x="239" y="20" on="1"/>
        <pt x="239" y="12" on="0"/>
        <pt x="227" y="0" on="0"/>
        <pt x="219" y="0" on="1"/>
        <pt x="209" y="0" on="1"/>
        <pt x="201" y="0" on="0"/>
        <pt x="189" y="12" on="0"/>
        <pt x="189" y="20" on="1"/>
        <pt x="189" y="349" on="1"/>
        <pt x="184" y="354" on="0"/>
        <pt x="180" y="361" on="1"/>
        <pt x="-2" y="670" on="1"/>
        <pt x="-5" y="675" on="0"/>
        <pt x="-5" y="685" on="0"/>
        <pt x="3" y="700" on="0"/>
        <pt x="15" y="700" on="1"/>
        <pt x="27" y="700" on="1"/>
        <pt x="37" y="700" on="0"/>
        <pt x="44" y="691" on="1"/>
        <pt x="214" y="399" on="1"/>
        <pt x="375" y="694" on="1"/>
        <pt x="379" y="700" on="0"/>
      </contour>
    </TTGlyph>
    <TTGlyph name="Yacute" xMin="-6" yMin="0" xMax="423" yMax="933">
      <contour>
        <pt x="391" y="700" on="1"/>
        <pt x="402" y="700" on="1"/>
        <pt x="414" y="700" on="0"/>
        <pt x="422" y="685" on="0"/>
        <pt x="422" y="675" on="0"/>
        <pt x="419" y="670" on="1"/>
        <pt x="419" y="671" on="1"/>
        <pt x="250" y="363" on="1"/>
        <pt x="242" y="351" on="0"/>
        <pt x="239" y="348" on="1"/>
        <pt x="239" y="20" on="1"/>
        <pt x="239" y="12" on="0"/>
        <pt x="227" y="0" on="0"/>
        <pt x="219" y="0" on="1"/>
        <pt x="209" y="0" on="1"/>
        <pt x="201" y="0" on="0"/>
        <pt x="189" y="12" on="0"/>
        <pt x="189" y="20" on="1"/>
        <pt x="189" y="349" on="1"/>
        <pt x="184" y="354" on="0"/>
        <pt x="180" y="361" on="1"/>
        <pt x="-2" y="670" on="1"/>
        <pt x="-5" y="675" on="0"/>
        <pt x="-5" y="685" on="0"/>
        <pt x="3" y="700" on="0"/>
        <pt x="15" y="700" on="1"/>
        <pt x="27" y="700" on="1"/>
        <pt x="37" y="700" on="0"/>
        <pt x="44" y="691" on="1"/>
        <pt x="214" y="399" on="1"/>
        <pt x="375" y="694" on="1"/>
        <pt x="379" y="700" on="0"/>
      </contour>
      <contour>
        <pt x="277" y="932" on="1"/>
        <pt x="303" y="932" on="0"/>
        <pt x="303" y="909" on="1"/>
        <pt x="303" y="904" on="0"/>
        <pt x="296" y="896" on="1"/>
        <pt x="189" y="763" on="1"/>
        <pt x="175" y="746" on="0"/>
        <pt x="144" y="746" on="0"/>
        <pt x="134" y="761" on="0"/>
        <pt x="134" y="772" on="0"/>
        <pt x="139" y="778" on="1"/>
        <pt x="246" y="914" on="1"/>
        <pt x="250" y="918" on="0"/>
        <pt x="252" y="922" on="0"/>
        <pt x="257" y="927" on="0"/>
        <pt x="259" y="928" on="0"/>
        <pt x="265" y="932" on="0"/>
        <pt x="269" y="931" on="0"/>
        <pt x="275" y="932" on="0"/>
      </contour>
    </TTGlyph>
    <TTGlyph name="Ydieresis" xMin="-6" yMin="0" xMax="423" yMax="867">
      <contour>
        <pt x="391" y="700" on="1"/>
        <pt x="402" y="700" on="1"/>
        <pt x="414" y="700" on="0"/>
        <pt x="422" y="685" on="0"/>
        <pt x="422" y="675" on="0"/>
        <pt x="419" y="670" on="1"/>
        <pt x="419" y="671" on="1"/>
        <pt x="250" y="363" on="1"/>
        <pt x="242" y="351" on="0"/>
        <pt x="239" y="348" on="1"/>
        <pt x="239" y="20" on="1"/>
        <pt x="239" y="12" on="0"/>
        <pt x="227" y="0" on="0"/>
        <pt x="219" y="0" on="1"/>
        <pt x="209" y="0" on="1"/>
        <pt x="201" y="0" on="0"/>
        <pt x="189" y="12" on="0"/>
        <pt x="189" y="20" on="1"/>
        <pt x="189" y="349" on="1"/>
        <pt x="184" y="354" on="0"/>
        <pt x="180" y="361" on="1"/>
        <pt x="-2" y="670" on="1"/>
        <pt x="-5" y="675" on="0"/>
        <pt x="-5" y="685" on="0"/>
        <pt x="3" y="700" on="0"/>
        <pt x="15" y="700" on="1"/>
        <pt x="27" y="700" on="1"/>
        <pt x="37" y="700" on="0"/>
        <pt x="44" y="691" on="1"/>
        <pt x="214" y="399" on="1"/>
        <pt x="375" y="694" on="1"/>
        <pt x="379" y="700" on="0"/>
      </contour>
      <contour>
        <pt x="250" y="851" on="0"/>
        <pt x="268" y="867" on="0"/>
        <pt x="333" y="867" on="0"/>
        <pt x="353" y="850" on="0"/>
        <pt x="353" y="822" on="1"/>
        <pt x="353" y="810" on="1"/>
        <pt x="353" y="780" on="0"/>
        <pt x="333" y="763" on="0"/>
        <pt x="268" y="763" on="0"/>
        <pt x="250" y="780" on="0"/>
        <pt x="250" y="810" on="1"/>
        <pt x="250" y="822" on="1"/>
      </contour>
      <contour>
        <pt x="84" y="851" on="0"/>
        <pt x="102" y="867" on="0"/>
        <pt x="167" y="867" on="0"/>
        <pt x="187" y="850" on="0"/>
        <pt x="187" y="822" on="1"/>
        <pt x="187" y="810" on="1"/>
        <pt x="187" y="780" on="0"/>
        <pt x="167" y="763" on="0"/>
        <pt x="102" y="763" on="0"/>
        <pt x="84" y="779" on="0"/>
        <pt x="84" y="810" on="1"/>
        <pt x="84" y="822" on="1"/>
      </contour>
      <contour>
        <pt x="155" y="829" on="0"/>
        <pt x="147" y="835" on="0"/>
        <pt x="123" y="835" on="0"/>
        <pt x="116" y="830" on="0"/>
        <pt x="116" y="820" on="1"/>
        <pt x="116" y="810" on="1"/>
        <pt x="116" y="800" on="0"/>
        <pt x="123" y="795" on="0"/>
        <pt x="148" y="795" on="0"/>
        <pt x="155" y="800" on="0"/>
        <pt x="155" y="810" on="1"/>
        <pt x="155" y="820" on="1"/>
      </contour>
      <contour>
        <pt x="321" y="829" on="0"/>
        <pt x="313" y="835" on="0"/>
        <pt x="289" y="835" on="0"/>
        <pt x="282" y="830" on="0"/>
        <pt x="282" y="820" on="1"/>
        <pt x="282" y="810" on="1"/>
        <pt x="282" y="800" on="0"/>
        <pt x="289" y="795" on="0"/>
        <pt x="314" y="795" on="0"/>
        <pt x="321" y="800" on="0"/>
        <pt x="321" y="810" on="1"/>
        <pt x="321" y="820" on="1"/>
      </contour>
    </TTGlyph>
    <TTGlyph name="Z" xMin="31" yMin="0" xMax="514" yMax="700">
      <contour>
        <pt x="43" y="37" on="1"/>
        <pt x="43" y="50" on="0"/>
        <pt x="59" y="74" on="1"/>
        <pt x="59" y="75" on="1"/>
        <pt x="423" y="651" on="1"/>
        <pt x="51" y="651" on="1"/>
        <pt x="43" y="651" on="0"/>
        <pt x="31" y="662" on="0"/>
        <pt x="31" y="671" on="1"/>
        <pt x="31" y="680" on="1"/>
        <pt x="31" y="688" on="0"/>
        <pt x="43" y="700" on="0"/>
        <pt x="51" y="700" on="1"/>
        <pt x="441" y="700" on="1"/>
        <pt x="483" y="700" on="0"/>
        <pt x="483" y="665" on="1"/>
        <pt x="483" y="647" on="0"/>
        <pt x="469" y="629" on="1"/>
        <pt x="469" y="630" on="1"/>
        <pt x="466" y="627" on="1"/>
        <pt x="467" y="625" on="1"/>
        <pt x="101" y="49" on="1"/>
        <pt x="494" y="49" on="1"/>
        <pt x="502" y="49" on="0"/>
        <pt x="514" y="38" on="0"/>
        <pt x="514" y="29" on="1"/>
        <pt x="514" y="20" on="1"/>
        <pt x="514" y="12" on="0"/>
        <pt x="502" y="0" on="0"/>
        <pt x="494" y="0" on="1"/>
        <pt x="83" y="0" on="1"/>
        <pt x="43" y="0" on="0"/>
      </contour>
    </TTGlyph>
    <TTGlyph name="Zcaron" xMin="31" yMin="0" xMax="514" yMax="893">
      <contour>
        <pt x="43" y="37" on="1"/>
        <pt x="43" y="50" on="0"/>
        <pt x="59" y="74" on="1"/>
        <pt x="59" y="75" on="1"/>
        <pt x="423" y="651" on="1"/>
        <pt x="51" y="651" on="1"/>
        <pt x="43" y="651" on="0"/>
        <pt x="31" y="662" on="0"/>
        <pt x="31" y="671" on="1"/>
        <pt x="31" y="680" on="1"/>
        <pt x="31" y="688" on="0"/>
        <pt x="43" y="700" on="0"/>
        <pt x="51" y="700" on="1"/>
        <pt x="441" y="700" on="1"/>
        <pt x="483" y="700" on="0"/>
        <pt x="483" y="665" on="1"/>
        <pt x="483" y="647" on="0"/>
        <pt x="469" y="629" on="1"/>
        <pt x="469" y="630" on="1"/>
        <pt x="466" y="627" on="1"/>
        <pt x="467" y="625" on="1"/>
        <pt x="101" y="49" on="1"/>
        <pt x="494" y="49" on="1"/>
        <pt x="502" y="49" on="0"/>
        <pt x="514" y="38" on="0"/>
        <pt x="514" y="29" on="1"/>
        <pt x="514" y="20" on="1"/>
        <pt x="514" y="12" on="0"/>
        <pt x="502" y="0" on="0"/>
        <pt x="494" y="0" on="1"/>
        <pt x="83" y="0" on="1"/>
        <pt x="43" y="0" on="0"/>
      </contour>
      <contour>
        <pt x="363" y="870" on="0"/>
        <pt x="392" y="893" on="0"/>
        <pt x="418" y="893" on="0"/>
        <pt x="423" y="881" on="1"/>
        <pt x="425" y="877" on="0"/>
        <pt x="425" y="866" on="0"/>
        <pt x="419" y="861" on="1"/>
        <pt x="312" y="756" on="1"/>
        <pt x="311" y="755" on="0"/>
        <pt x="303" y="748" on="0"/>
        <pt x="299" y="744" on="0"/>
        <pt x="295" y="742" on="1"/>
        <pt x="288" y="737" on="0"/>
        <pt x="276" y="737" on="1"/>
        <pt x="274" y="737" on="1"/>
        <pt x="258" y="737" on="0"/>
        <pt x="247" y="748" on="0"/>
        <pt x="239" y="755" on="0"/>
        <pt x="238" y="756" on="1"/>
        <pt x="131" y="861" on="1"/>
        <pt x="125" y="866" on="0"/>
        <pt x="125" y="877" on="0"/>
        <pt x="127" y="881" on="1"/>
        <pt x="132" y="893" on="0"/>
        <pt x="158" y="893" on="0"/>
        <pt x="187" y="870" on="0"/>
        <pt x="273" y="792" on="1"/>
        <pt x="275" y="790" on="1"/>
        <pt x="277" y="792" on="1"/>
      </contour>
    </TTGlyph>
    <TTGlyph name="a" xMin="73" yMin="0" xMax="475" yMax="502">
      <contour>
        <pt x="73" y="416" on="0"/>
        <pt x="169" y="502" on="0"/>
        <pt x="323" y="502" on="0"/>
        <pt x="417" y="415" on="0"/>
        <pt x="417" y="337" on="1"/>
        <pt x="417" y="117" on="1"/>
        <pt x="417" y="78" on="0"/>
        <pt x="430" y="49" on="0"/>
        <pt x="449" y="44" on="1"/>
        <pt x="460" y="41" on="1"/>
        <pt x="475" y="38" on="0"/>
        <pt x="475" y="28" on="1"/>
        <pt x="475" y="17" on="1"/>
        <pt x="475" y="0" on="0"/>
        <pt x="455" y="0" on="1"/>
        <pt x="406" y="0" on="0"/>
        <pt x="370" y="58" on="0"/>
        <pt x="370" y="118" on="1"/>
        <pt x="370" y="337" on="1"/>
        <pt x="370" y="394" on="0"/>
        <pt x="300" y="455" on="0"/>
        <pt x="192" y="455" on="0"/>
        <pt x="120" y="394" on="0"/>
        <pt x="120" y="337" on="1"/>
        <pt x="120" y="166" on="1"/>
        <pt x="120" y="107" on="0"/>
        <pt x="179" y="47" on="0"/>
        <pt x="290" y="47" on="0"/>
        <pt x="326" y="92" on="1"/>
        <pt x="333" y="101" on="0"/>
        <pt x="358" y="101" on="0"/>
        <pt x="363" y="86" on="1"/>
        <pt x="366" y="74" on="0"/>
        <pt x="360" y="65" on="1"/>
        <pt x="317" y="0" on="0"/>
        <pt x="156" y="0" on="0"/>
        <pt x="73" y="86" on="0"/>
        <pt x="73" y="165" on="1"/>
        <pt x="73" y="337" on="1"/>
      </contour>
    </TTGlyph>
    <TTGlyph name="aacute" xMin="73" yMin="0" xMax="475" yMax="733">
      <contour>
        <pt x="73" y="416" on="0"/>
        <pt x="169" y="502" on="0"/>
        <pt x="323" y="502" on="0"/>
        <pt x="417" y="415" on="0"/>
        <pt x="417" y="337" on="1"/>
        <pt x="417" y="117" on="1"/>
        <pt x="417" y="78" on="0"/>
        <pt x="430" y="49" on="0"/>
        <pt x="449" y="44" on="1"/>
        <pt x="460" y="41" on="1"/>
        <pt x="475" y="38" on="0"/>
        <pt x="475" y="28" on="1"/>
        <pt x="475" y="17" on="1"/>
        <pt x="475" y="0" on="0"/>
        <pt x="455" y="0" on="1"/>
        <pt x="406" y="0" on="0"/>
        <pt x="370" y="58" on="0"/>
        <pt x="370" y="118" on="1"/>
        <pt x="370" y="337" on="1"/>
        <pt x="370" y="394" on="0"/>
        <pt x="300" y="455" on="0"/>
        <pt x="192" y="455" on="0"/>
        <pt x="120" y="394" on="0"/>
        <pt x="120" y="337" on="1"/>
        <pt x="120" y="166" on="1"/>
        <pt x="120" y="107" on="0"/>
        <pt x="179" y="47" on="0"/>
        <pt x="290" y="47" on="0"/>
        <pt x="326" y="92" on="1"/>
        <pt x="333" y="101" on="0"/>
        <pt x="358" y="101" on="0"/>
        <pt x="363" y="86" on="1"/>
        <pt x="366" y="74" on="0"/>
        <pt x="360" y="65" on="1"/>
        <pt x="317" y="0" on="0"/>
        <pt x="156" y="0" on="0"/>
        <pt x="73" y="86" on="0"/>
        <pt x="73" y="165" on="1"/>
        <pt x="73" y="337" on="1"/>
      </contour>
      <contour>
        <pt x="311" y="732" on="1"/>
        <pt x="337" y="732" on="0"/>
        <pt x="337" y="709" on="1"/>
        <pt x="337" y="704" on="0"/>
        <pt x="330" y="696" on="1"/>
        <pt x="223" y="563" on="1"/>
        <pt x="209" y="546" on="0"/>
        <pt x="178" y="546" on="0"/>
        <pt x="168" y="561" on="0"/>
        <pt x="168" y="572" on="0"/>
        <pt x="173" y="578" on="1"/>
        <pt x="280" y="714" on="1"/>
        <pt x="284" y="718" on="0"/>
        <pt x="286" y="722" on="0"/>
        <pt x="291" y="727" on="0"/>
        <pt x="293" y="728" on="0"/>
        <pt x="299" y="732" on="0"/>
        <pt x="303" y="731" on="0"/>
        <pt x="309" y="732" on="0"/>
      </contour>
    </TTGlyph>
    <TTGlyph name="acircumflex" xMin="73" yMin="0" xMax="475" yMax="752">
      <contour>
        <pt x="73" y="416" on="0"/>
        <pt x="169" y="502" on="0"/>
        <pt x="323" y="502" on="0"/>
        <pt x="417" y="415" on="0"/>
        <pt x="417" y="337" on="1"/>
        <pt x="417" y="117" on="1"/>
        <pt x="417" y="78" on="0"/>
        <pt x="430" y="49" on="0"/>
        <pt x="449" y="44" on="1"/>
        <pt x="460" y="41" on="1"/>
        <pt x="475" y="38" on="0"/>
        <pt x="475" y="28" on="1"/>
        <pt x="475" y="17" on="1"/>
        <pt x="475" y="0" on="0"/>
        <pt x="455" y="0" on="1"/>
        <pt x="406" y="0" on="0"/>
        <pt x="370" y="58" on="0"/>
        <pt x="370" y="118" on="1"/>
        <pt x="370" y="337" on="1"/>
        <pt x="370" y="394" on="0"/>
        <pt x="300" y="455" on="0"/>
        <pt x="192" y="455" on="0"/>
        <pt x="120" y="394" on="0"/>
        <pt x="120" y="337" on="1"/>
        <pt x="120" y="166" on="1"/>
        <pt x="120" y="107" on="0"/>
        <pt x="179" y="47" on="0"/>
        <pt x="290" y="47" on="0"/>
        <pt x="326" y="92" on="1"/>
        <pt x="333" y="101" on="0"/>
        <pt x="358" y="101" on="0"/>
        <pt x="363" y="86" on="1"/>
        <pt x="366" y="74" on="0"/>
        <pt x="360" y="65" on="1"/>
        <pt x="317" y="0" on="0"/>
        <pt x="156" y="0" on="0"/>
        <pt x="73" y="86" on="0"/>
        <pt x="73" y="165" on="1"/>
        <pt x="73" y="337" on="1"/>
      </contour>
      <contour>
        <pt x="214" y="733" on="1"/>
        <pt x="228" y="752" on="0"/>
        <pt x="274" y="752" on="0"/>
        <pt x="288" y="733" on="1"/>
        <pt x="409" y="581" on="1"/>
        <pt x="414" y="575" on="0"/>
        <pt x="414" y="567" on="1"/>
        <pt x="414" y="549" on="0"/>
        <pt x="394" y="549" on="1"/>
        <pt x="381" y="549" on="1"/>
        <pt x="370" y="549" on="0"/>
        <pt x="366" y="555" on="1"/>
        <pt x="253" y="700" on="1"/>
        <pt x="251" y="702" on="1"/>
        <pt x="140" y="555" on="1"/>
        <pt x="136" y="549" on="0"/>
        <pt x="126" y="549" on="1"/>
        <pt x="113" y="549" on="1"/>
        <pt x="93" y="549" on="0"/>
        <pt x="93" y="567" on="1"/>
        <pt x="93" y="573" on="0"/>
        <pt x="98" y="581" on="1"/>
      </contour>
    </TTGlyph>
    <TTGlyph name="acute" xMin="98" yMin="546" xMax="267" yMax="733">
      <contour>
        <pt x="241" y="732" on="1"/>
        <pt x="267" y="732" on="0"/>
        <pt x="267" y="709" on="1"/>
        <pt x="267" y="704" on="0"/>
        <pt x="260" y="696" on="1"/>
        <pt x="153" y="563" on="1"/>
        <pt x="139" y="546" on="0"/>
        <pt x="108" y="546" on="0"/>
        <pt x="98" y="561" on="0"/>
        <pt x="98" y="572" on="0"/>
        <pt x="103" y="578" on="1"/>
        <pt x="210" y="714" on="1"/>
        <pt x="214" y="718" on="0"/>
        <pt x="216" y="722" on="0"/>
        <pt x="221" y="727" on="0"/>
        <pt x="223" y="728" on="0"/>
        <pt x="229" y="732" on="0"/>
        <pt x="233" y="731" on="0"/>
        <pt x="239" y="732" on="0"/>
      </contour>
    </TTGlyph>
    <TTGlyph name="adieresis" xMin="73" yMin="0" xMax="475" yMax="667">
      <contour>
        <pt x="73" y="416" on="0"/>
        <pt x="169" y="502" on="0"/>
        <pt x="323" y="502" on="0"/>
        <pt x="417" y="415" on="0"/>
        <pt x="417" y="337" on="1"/>
        <pt x="417" y="117" on="1"/>
        <pt x="417" y="78" on="0"/>
        <pt x="430" y="49" on="0"/>
        <pt x="449" y="44" on="1"/>
        <pt x="460" y="41" on="1"/>
        <pt x="475" y="38" on="0"/>
        <pt x="475" y="28" on="1"/>
        <pt x="475" y="17" on="1"/>
        <pt x="475" y="0" on="0"/>
        <pt x="455" y="0" on="1"/>
        <pt x="406" y="0" on="0"/>
        <pt x="370" y="58" on="0"/>
        <pt x="370" y="118" on="1"/>
        <pt x="370" y="337" on="1"/>
        <pt x="370" y="394" on="0"/>
        <pt x="300" y="455" on="0"/>
        <pt x="192" y="455" on="0"/>
        <pt x="120" y="394" on="0"/>
        <pt x="120" y="337" on="1"/>
        <pt x="120" y="166" on="1"/>
        <pt x="120" y="107" on="0"/>
        <pt x="179" y="47" on="0"/>
        <pt x="290" y="47" on="0"/>
        <pt x="326" y="92" on="1"/>
        <pt x="333" y="101" on="0"/>
        <pt x="358" y="101" on="0"/>
        <pt x="363" y="86" on="1"/>
        <pt x="366" y="74" on="0"/>
        <pt x="360" y="65" on="1"/>
        <pt x="317" y="0" on="0"/>
        <pt x="156" y="0" on="0"/>
        <pt x="73" y="86" on="0"/>
        <pt x="73" y="165" on="1"/>
        <pt x="73" y="337" on="1"/>
      </contour>
      <contour>
        <pt x="284" y="651" on="0"/>
        <pt x="302" y="667" on="0"/>
        <pt x="367" y="667" on="0"/>
        <pt x="387" y="650" on="0"/>
        <pt x="387" y="622" on="1"/>
        <pt x="387" y="610" on="1"/>
        <pt x="387" y="580" on="0"/>
        <pt x="367" y="563" on="0"/>
        <pt x="302" y="563" on="0"/>
        <pt x="284" y="580" on="0"/>
        <pt x="284" y="610" on="1"/>
        <pt x="284" y="622" on="1"/>
      </contour>
      <contour>
        <pt x="118" y="651" on="0"/>
        <pt x="136" y="667" on="0"/>
        <pt x="201" y="667" on="0"/>
        <pt x="221" y="650" on="0"/>
        <pt x="221" y="622" on="1"/>
        <pt x="221" y="610" on="1"/>
        <pt x="221" y="580" on="0"/>
        <pt x="201" y="563" on="0"/>
        <pt x="136" y="563" on="0"/>
        <pt x="118" y="579" on="0"/>
        <pt x="118" y="610" on="1"/>
        <pt x="118" y="622" on="1"/>
      </contour>
      <contour>
        <pt x="189" y="629" on="0"/>
        <pt x="181" y="635" on="0"/>
        <pt x="157" y="635" on="0"/>
        <pt x="150" y="630" on="0"/>
        <pt x="150" y="620" on="1"/>
        <pt x="150" y="610" on="1"/>
        <pt x="150" y="600" on="0"/>
        <pt x="157" y="595" on="0"/>
        <pt x="182" y="595" on="0"/>
        <pt x="189" y="600" on="0"/>
        <pt x="189" y="610" on="1"/>
        <pt x="189" y="620" on="1"/>
      </contour>
      <contour>
        <pt x="355" y="629" on="0"/>
        <pt x="347" y="635" on="0"/>
        <pt x="323" y="635" on="0"/>
        <pt x="316" y="630" on="0"/>
        <pt x="316" y="620" on="1"/>
        <pt x="316" y="610" on="1"/>
        <pt x="316" y="600" on="0"/>
        <pt x="323" y="595" on="0"/>
        <pt x="348" y="595" on="0"/>
        <pt x="355" y="600" on="0"/>
        <pt x="355" y="610" on="1"/>
        <pt x="355" y="620" on="1"/>
      </contour>
    </TTGlyph>
    <TTGlyph name="ae" xMin="60" yMin="-2" xMax="701" yMax="502">
      <contour>
        <pt x="234" y="502" on="1"/>
        <pt x="337" y="502" on="0"/>
        <pt x="380" y="429" on="1"/>
        <pt x="426" y="502" on="0"/>
        <pt x="531" y="502" on="1"/>
        <pt x="607" y="502" on="0"/>
        <pt x="701" y="415" on="0"/>
        <pt x="701" y="337" on="1"/>
        <pt x="701" y="277" on="1"/>
        <pt x="701" y="234" on="0"/>
        <pt x="660" y="234" on="1"/>
        <pt x="444" y="234" on="1"/>
        <pt x="435" y="234" on="0"/>
        <pt x="424" y="246" on="0"/>
        <pt x="424" y="254" on="1"/>
        <pt x="424" y="262" on="1"/>
        <pt x="424" y="270" on="0"/>
        <pt x="435" y="282" on="0"/>
        <pt x="444" y="282" on="1"/>
        <pt x="654" y="282" on="1"/>
        <pt x="654" y="336" on="1"/>
        <pt x="654" y="393" on="0"/>
        <pt x="584" y="454" on="0"/>
        <pt x="476" y="454" on="0"/>
        <pt x="405" y="393" on="0"/>
        <pt x="405" y="336" on="1"/>
        <pt x="405" y="164" on="1"/>
        <pt x="405" y="107" on="0"/>
        <pt x="476" y="46" on="0"/>
        <pt x="583" y="46" on="0"/>
        <pt x="654" y="105" on="0"/>
        <pt x="654" y="160" on="1"/>
        <pt x="654" y="168" on="0"/>
        <pt x="665" y="180" on="0"/>
        <pt x="673" y="180" on="1"/>
        <pt x="681" y="180" on="1"/>
        <pt x="690" y="180" on="0"/>
        <pt x="701" y="168" on="0"/>
        <pt x="701" y="160" on="1"/>
        <pt x="700" y="83" on="0"/>
        <pt x="606" y="-2" on="0"/>
        <pt x="454" y="-2" on="0"/>
        <pt x="357" y="85" on="0"/>
        <pt x="357" y="163" on="1"/>
        <pt x="357" y="337" on="1"/>
        <pt x="357" y="394" on="0"/>
        <pt x="287" y="455" on="0"/>
        <pt x="179" y="455" on="0"/>
        <pt x="107" y="394" on="0"/>
        <pt x="107" y="337" on="1"/>
        <pt x="107" y="166" on="1"/>
        <pt x="107" y="107" on="0"/>
        <pt x="166" y="47" on="0"/>
        <pt x="277" y="47" on="0"/>
        <pt x="313" y="92" on="1"/>
        <pt x="320" y="101" on="0"/>
        <pt x="345" y="101" on="0"/>
        <pt x="350" y="86" on="1"/>
        <pt x="353" y="74" on="0"/>
        <pt x="347" y="65" on="1"/>
        <pt x="304" y="0" on="0"/>
        <pt x="143" y="0" on="0"/>
        <pt x="60" y="86" on="0"/>
        <pt x="60" y="165" on="1"/>
        <pt x="60" y="337" on="1"/>
        <pt x="60" y="416" on="0"/>
        <pt x="156" y="502" on="0"/>
      </contour>
    </TTGlyph>
    <TTGlyph name="agrave" xMin="73" yMin="0" xMax="475" yMax="733">
      <contour>
        <pt x="73" y="416" on="0"/>
        <pt x="169" y="502" on="0"/>
        <pt x="323" y="502" on="0"/>
        <pt x="417" y="415" on="0"/>
        <pt x="417" y="337" on="1"/>
        <pt x="417" y="117" on="1"/>
        <pt x="417" y="78" on="0"/>
        <pt x="430" y="49" on="0"/>
        <pt x="449" y="44" on="1"/>
        <pt x="460" y="41" on="1"/>
        <pt x="475" y="38" on="0"/>
        <pt x="475" y="28" on="1"/>
        <pt x="475" y="17" on="1"/>
        <pt x="475" y="0" on="0"/>
        <pt x="455" y="0" on="1"/>
        <pt x="406" y="0" on="0"/>
        <pt x="370" y="58" on="0"/>
        <pt x="370" y="118" on="1"/>
        <pt x="370" y="337" on="1"/>
        <pt x="370" y="394" on="0"/>
        <pt x="300" y="455" on="0"/>
        <pt x="192" y="455" on="0"/>
        <pt x="120" y="394" on="0"/>
        <pt x="120" y="337" on="1"/>
        <pt x="120" y="166" on="1"/>
        <pt x="120" y="107" on="0"/>
        <pt x="179" y="47" on="0"/>
        <pt x="290" y="47" on="0"/>
        <pt x="326" y="92" on="1"/>
        <pt x="333" y="101" on="0"/>
        <pt x="358" y="101" on="0"/>
        <pt x="363" y="86" on="1"/>
        <pt x="366" y="74" on="0"/>
        <pt x="360" y="65" on="1"/>
        <pt x="317" y="0" on="0"/>
        <pt x="156" y="0" on="0"/>
        <pt x="73" y="86" on="0"/>
        <pt x="73" y="165" on="1"/>
        <pt x="73" y="337" on="1"/>
      </contour>
      <contour>
        <pt x="187" y="712" on="1"/>
        <pt x="187" y="732" on="0"/>
        <pt x="214" y="732" on="1"/>
        <pt x="228" y="732" on="0"/>
        <pt x="237" y="723" on="0"/>
        <pt x="244" y="714" on="1"/>
        <pt x="351" y="578" on="1"/>
        <pt x="356" y="572" on="0"/>
        <pt x="356" y="561" on="0"/>
        <pt x="346" y="546" on="0"/>
        <pt x="315" y="546" on="0"/>
        <pt x="301" y="563" on="1"/>
        <pt x="194" y="696" on="1"/>
        <pt x="187" y="704" on="0"/>
      </contour>
    </TTGlyph>
    <TTGlyph name="ampersand" xMin="50" yMin="-3" xMax="507" yMax="700">
      <contour>
        <pt x="89" y="615" on="0"/>
        <pt x="168" y="700" on="0"/>
        <pt x="309" y="700" on="0"/>
        <pt x="393" y="617" on="0"/>
        <pt x="393" y="557" on="1"/>
        <pt x="393" y="457" on="0"/>
        <pt x="262" y="374" on="1"/>
        <pt x="256" y="374" on="1"/>
        <pt x="236" y="404" on="1"/>
        <pt x="235" y="408" on="1"/>
        <pt x="236" y="410" on="1"/>
        <pt x="284" y="439" on="0"/>
        <pt x="306" y="461" on="1"/>
        <pt x="346" y="502" on="0"/>
        <pt x="346" y="598" on="0"/>
        <pt x="290" y="653" on="0"/>
        <pt x="196" y="653" on="0"/>
        <pt x="139" y="601" on="0"/>
        <pt x="139" y="503" on="0"/>
        <pt x="217" y="395" on="1"/>
        <pt x="488" y="15" on="1"/>
        <pt x="498" y="0" on="0"/>
        <pt x="483" y="0" on="1"/>
        <pt x="436" y="1" on="1"/>
        <pt x="428" y="1" on="0"/>
        <pt x="418" y="18" on="0"/>
        <pt x="407" y="36" on="0"/>
        <pt x="314" y="166" on="0"/>
        <pt x="199" y="325" on="0"/>
        <pt x="175" y="360" on="1"/>
        <pt x="89" y="485" on="0"/>
      </contour>
      <contour>
        <pt x="97" y="216" on="1"/>
        <pt x="97" y="168" on="1"/>
        <pt x="97" y="43" on="0"/>
        <pt x="245" y="43" on="1"/>
        <pt x="299" y="43" on="0"/>
        <pt x="343" y="60" on="1"/>
        <pt x="351" y="63" on="0"/>
        <pt x="355" y="58" on="1"/>
        <pt x="377" y="31" on="1"/>
        <pt x="382" y="25" on="0"/>
        <pt x="376" y="23" on="1"/>
        <pt x="318" y="-3" on="0"/>
        <pt x="245" y="-3" on="1"/>
        <pt x="50" y="-3" on="0"/>
        <pt x="50" y="169" on="1"/>
        <pt x="50" y="208" on="1"/>
        <pt x="50" y="234" on="0"/>
        <pt x="53" y="250" on="0"/>
        <pt x="56" y="272" on="0"/>
        <pt x="61" y="284" on="0"/>
        <pt x="64" y="292" on="1"/>
        <pt x="69" y="303" on="0"/>
        <pt x="85" y="319" on="1"/>
        <pt x="98" y="330" on="0"/>
        <pt x="147" y="358" on="1"/>
        <pt x="155" y="362" on="0"/>
        <pt x="158" y="358" on="1"/>
        <pt x="177" y="330" on="1"/>
        <pt x="180" y="328" on="0"/>
        <pt x="177" y="326" on="1"/>
        <pt x="120" y="297" on="0"/>
        <pt x="108" y="272" on="1"/>
        <pt x="97" y="249" on="0"/>
      </contour>
      <contour>
        <pt x="332" y="369" on="1"/>
        <pt x="495" y="369" on="1"/>
        <pt x="507" y="369" on="0"/>
        <pt x="507" y="349" on="1"/>
        <pt x="507" y="340" on="1"/>
        <pt x="507" y="321" on="0"/>
        <pt x="495" y="321" on="1"/>
        <pt x="332" y="321" on="1"/>
        <pt x="320" y="321" on="0"/>
        <pt x="320" y="340" on="1"/>
        <pt x="320" y="349" on="1"/>
        <pt x="320" y="369" on="0"/>
      </contour>
    </TTGlyph>
    <TTGlyph name="approxequal" xMin="66" yMin="208" xMax="490" yMax="508">
      <contour>
        <pt x="453" y="508" on="1"/>
        <pt x="477" y="508" on="1"/>
        <pt x="490" y="508" on="0"/>
        <pt x="490" y="491" on="1"/>
        <pt x="490" y="436" on="0"/>
        <pt x="430" y="378" on="0"/>
        <pt x="346" y="378" on="0"/>
        <pt x="266" y="421" on="0"/>
        <pt x="194" y="463" on="0"/>
        <pt x="148" y="463" on="0"/>
        <pt x="109" y="431" on="0"/>
        <pt x="109" y="396" on="1"/>
        <pt x="109" y="378" on="0"/>
        <pt x="94" y="378" on="1"/>
        <pt x="79" y="378" on="1"/>
        <pt x="66" y="378" on="0"/>
        <pt x="66" y="396" on="1"/>
        <pt x="66" y="447" on="0"/>
        <pt x="126" y="506" on="0"/>
        <pt x="213" y="506" on="0"/>
        <pt x="350" y="422" on="0"/>
        <pt x="378" y="422" on="1"/>
        <pt x="444" y="422" on="0"/>
        <pt x="444" y="491" on="1"/>
        <pt x="444" y="508" on="0"/>
      </contour>
      <contour>
        <pt x="453" y="338" on="1"/>
        <pt x="477" y="338" on="1"/>
        <pt x="490" y="338" on="0"/>
        <pt x="490" y="321" on="1"/>
        <pt x="490" y="266" on="0"/>
        <pt x="430" y="208" on="0"/>
        <pt x="346" y="208" on="0"/>
        <pt x="266" y="251" on="0"/>
        <pt x="194" y="293" on="0"/>
        <pt x="148" y="293" on="0"/>
        <pt x="109" y="261" on="0"/>
        <pt x="109" y="226" on="1"/>
        <pt x="109" y="208" on="0"/>
        <pt x="94" y="208" on="1"/>
        <pt x="79" y="208" on="1"/>
        <pt x="66" y="208" on="0"/>
        <pt x="66" y="226" on="1"/>
        <pt x="66" y="277" on="0"/>
        <pt x="126" y="336" on="0"/>
        <pt x="213" y="336" on="0"/>
        <pt x="350" y="252" on="0"/>
        <pt x="378" y="252" on="1"/>
        <pt x="444" y="252" on="0"/>
        <pt x="444" y="321" on="1"/>
        <pt x="444" y="338" on="0"/>
      </contour>
    </TTGlyph>
    <TTGlyph name="aring" xMin="73" yMin="0" xMax="475" yMax="733">
      <contour>
        <pt x="73" y="416" on="0"/>
        <pt x="169" y="502" on="0"/>
        <pt x="323" y="502" on="0"/>
        <pt x="417" y="415" on="0"/>
        <pt x="417" y="337" on="1"/>
        <pt x="417" y="117" on="1"/>
        <pt x="417" y="78" on="0"/>
        <pt x="430" y="49" on="0"/>
        <pt x="449" y="44" on="1"/>
        <pt x="460" y="41" on="1"/>
        <pt x="475" y="38" on="0"/>
        <pt x="475" y="28" on="1"/>
        <pt x="475" y="17" on="1"/>
        <pt x="475" y="0" on="0"/>
        <pt x="455" y="0" on="1"/>
        <pt x="406" y="0" on="0"/>
        <pt x="370" y="58" on="0"/>
        <pt x="370" y="118" on="1"/>
        <pt x="370" y="337" on="1"/>
        <pt x="370" y="394" on="0"/>
        <pt x="300" y="455" on="0"/>
        <pt x="192" y="455" on="0"/>
        <pt x="120" y="394" on="0"/>
        <pt x="120" y="337" on="1"/>
        <pt x="120" y="166" on="1"/>
        <pt x="120" y="107" on="0"/>
        <pt x="179" y="47" on="0"/>
        <pt x="290" y="47" on="0"/>
        <pt x="326" y="92" on="1"/>
        <pt x="333" y="101" on="0"/>
        <pt x="358" y="101" on="0"/>
        <pt x="363" y="86" on="1"/>
        <pt x="366" y="74" on="0"/>
        <pt x="360" y="65" on="1"/>
        <pt x="317" y="0" on="0"/>
        <pt x="156" y="0" on="0"/>
        <pt x="73" y="86" on="0"/>
        <pt x="73" y="165" on="1"/>
        <pt x="73" y="337" on="1"/>
      </contour>
      <contour>
        <pt x="154" y="689" on="0"/>
        <pt x="206" y="733" on="0"/>
        <pt x="297" y="733" on="0"/>
        <pt x="346" y="689" on="0"/>
        <pt x="346" y="648" on="1"/>
        <pt x="346" y="586" on="1"/>
        <pt x="346" y="545" on="0"/>
        <pt x="297" y="501" on="0"/>
        <pt x="206" y="501" on="0"/>
        <pt x="154" y="545" on="0"/>
        <pt x="154" y="586" on="1"/>
        <pt x="154" y="648" on="1"/>
      </contour>
      <contour>
        <pt x="304" y="664" on="0"/>
        <pt x="274" y="690" on="0"/>
        <pt x="228" y="690" on="0"/>
        <pt x="196" y="665" on="0"/>
        <pt x="196" y="641" on="1"/>
        <pt x="196" y="593" on="1"/>
        <pt x="196" y="569" on="0"/>
        <pt x="228" y="544" on="0"/>
        <pt x="274" y="544" on="0"/>
        <pt x="304" y="570" on="0"/>
        <pt x="304" y="593" on="1"/>
        <pt x="304" y="641" on="1"/>
      </contour>
    </TTGlyph>
    <TTGlyph name="asciicircum" xMin="12" yMin="256" xMax="393" yMax="732">
      <contour>
        <pt x="165" y="711" on="1"/>
        <pt x="172" y="732" on="0"/>
        <pt x="232" y="732" on="0"/>
        <pt x="239" y="711" on="1"/>
        <pt x="389" y="288" on="1"/>
        <pt x="393" y="278" on="0"/>
        <pt x="393" y="272" on="1"/>
        <pt x="393" y="256" on="0"/>
        <pt x="374" y="256" on="1"/>
        <pt x="362" y="256" on="1"/>
        <pt x="353" y="256" on="0"/>
        <pt x="347" y="272" on="1"/>
        <pt x="202" y="667" on="1"/>
        <pt x="58" y="272" on="1"/>
        <pt x="53" y="256" on="0"/>
        <pt x="43" y="256" on="1"/>
        <pt x="31" y="256" on="1"/>
        <pt x="12" y="256" on="0"/>
        <pt x="12" y="272" on="1"/>
        <pt x="12" y="278" on="0"/>
        <pt x="16" y="288" on="1"/>
      </contour>
    </TTGlyph>
    <TTGlyph name="asciitilde" xMin="66" yMin="378" xMax="490" yMax="508">
      <contour>
        <pt x="453" y="508" on="1"/>
        <pt x="477" y="508" on="1"/>
        <pt x="490" y="508" on="0"/>
        <pt x="490" y="491" on="1"/>
        <pt x="490" y="436" on="0"/>
        <pt x="430" y="378" on="0"/>
        <pt x="346" y="378" on="0"/>
        <pt x="266" y="421" on="0"/>
        <pt x="194" y="463" on="0"/>
        <pt x="148" y="463" on="0"/>
        <pt x="109" y="431" on="0"/>
        <pt x="109" y="396" on="1"/>
        <pt x="109" y="378" on="0"/>
        <pt x="94" y="378" on="1"/>
        <pt x="79" y="378" on="1"/>
        <pt x="66" y="378" on="0"/>
        <pt x="66" y="396" on="1"/>
        <pt x="66" y="447" on="0"/>
        <pt x="126" y="506" on="0"/>
        <pt x="213" y="506" on="0"/>
        <pt x="350" y="422" on="0"/>
        <pt x="378" y="422" on="1"/>
        <pt x="444" y="422" on="0"/>
        <pt x="444" y="491" on="1"/>
        <pt x="444" y="508" on="0"/>
      </contour>
    </TTGlyph>
    <TTGlyph name="asterisk" xMin="40" yMin="476" xMax="297" yMax="730">
      <contour>
        <pt x="107" y="510" on="1"/>
        <pt x="98" y="503" on="0"/>
        <pt x="84" y="503" on="0"/>
        <pt x="73" y="518" on="1"/>
        <pt x="73" y="517" on="1"/>
        <pt x="61" y="529" on="0"/>
        <pt x="73" y="545" on="1"/>
        <pt x="111" y="581" on="1"/>
        <pt x="59" y="581" on="1"/>
        <pt x="51" y="581" on="0"/>
        <pt x="40" y="593" on="0"/>
        <pt x="40" y="601" on="1"/>
        <pt x="40" y="610" on="1"/>
        <pt x="40" y="629" on="0"/>
        <pt x="59" y="629" on="1"/>
        <pt x="108" y="629" on="1"/>
        <pt x="72" y="665" on="1"/>
        <pt x="60" y="677" on="0"/>
        <pt x="72" y="693" on="1"/>
        <pt x="79" y="699" on="1"/>
        <pt x="91" y="711" on="0"/>
        <pt x="107" y="699" on="1"/>
        <pt x="144" y="660" on="1"/>
        <pt x="144" y="711" on="1"/>
        <pt x="144" y="719" on="0"/>
        <pt x="156" y="730" on="0"/>
        <pt x="164" y="730" on="1"/>
        <pt x="173" y="730" on="1"/>
        <pt x="181" y="730" on="0"/>
        <pt x="193" y="719" on="0"/>
        <pt x="193" y="711" on="1"/>
        <pt x="193" y="660" on="1"/>
        <pt x="230" y="697" on="1"/>
        <pt x="238" y="704" on="0"/>
        <pt x="246" y="704" on="1"/>
        <pt x="252" y="704" on="0"/>
        <pt x="264" y="691" on="1"/>
        <pt x="276" y="675" on="0"/>
        <pt x="264" y="663" on="1"/>
        <pt x="229" y="629" on="1"/>
        <pt x="278" y="629" on="1"/>
        <pt x="297" y="629" on="0"/>
        <pt x="297" y="610" on="1"/>
        <pt x="297" y="601" on="1"/>
        <pt x="297" y="593" on="0"/>
        <pt x="286" y="581" on="0"/>
        <pt x="278" y="581" on="1"/>
        <pt x="222" y="581" on="1"/>
        <pt x="261" y="540" on="1"/>
        <pt x="268" y="532" on="0"/>
        <pt x="268" y="524" on="1"/>
        <pt x="268" y="518" on="0"/>
        <pt x="255" y="506" on="1"/>
        <pt x="239" y="494" on="0"/>
        <pt x="227" y="506" on="1"/>
        <pt x="193" y="541" on="1"/>
        <pt x="193" y="495" on="1"/>
        <pt x="193" y="487" on="0"/>
        <pt x="181" y="476" on="0"/>
        <pt x="173" y="476" on="1"/>
        <pt x="164" y="476" on="1"/>
        <pt x="156" y="476" on="0"/>
        <pt x="144" y="487" on="0"/>
        <pt x="144" y="495" on="1"/>
        <pt x="144" y="547" on="1"/>
      </contour>
      <contour>
        <pt x="183" y="599" on="1"/>
        <pt x="183" y="607" on="1"/>
        <pt x="175" y="616" on="1"/>
        <pt x="174" y="616" on="0"/>
        <pt x="174" y="617" on="1"/>
        <pt x="163" y="617" on="1"/>
        <pt x="155" y="609" on="1"/>
        <pt x="155" y="600" on="1"/>
        <pt x="164" y="590" on="1"/>
        <pt x="173" y="590" on="1"/>
      </contour>
    </TTGlyph>
    <TTGlyph name="at" xMin="20" yMin="-22" xMax="453" yMax="530">
      <contour>
        <pt x="20" y="429" on="0"/>
        <pt x="144" y="530" on="0"/>
        <pt x="327" y="530" on="0"/>
        <pt x="453" y="434" on="0"/>
        <pt x="453" y="341" on="1"/>
        <pt x="453" y="173" on="1"/>
        <pt x="453" y="136" on="0"/>
        <pt x="407" y="87" on="0"/>
        <pt x="344" y="87" on="0"/>
        <pt x="319" y="109" on="1"/>
        <pt x="284" y="80" on="0"/>
        <pt x="183" y="80" on="0"/>
        <pt x="121" y="138" on="0"/>
        <pt x="121" y="193" on="1"/>
        <pt x="121" y="323" on="1"/>
        <pt x="121" y="378" on="0"/>
        <pt x="186" y="436" on="0"/>
        <pt x="291" y="436" on="0"/>
        <pt x="356" y="377" on="0"/>
        <pt x="356" y="323" on="1"/>
        <pt x="356" y="163" on="1"/>
        <pt x="356" y="153" on="0"/>
        <pt x="370" y="138" on="0"/>
        <pt x="391" y="138" on="0"/>
        <pt x="406" y="157" on="0"/>
        <pt x="406" y="167" on="1"/>
        <pt x="406" y="320" on="1"/>
        <pt x="406" y="404" on="0"/>
        <pt x="310" y="482" on="0"/>
        <pt x="167" y="482" on="0"/>
        <pt x="67" y="407" on="0"/>
        <pt x="67" y="342" on="1"/>
        <pt x="67" y="170" on="1"/>
        <pt x="67" y="107" on="0"/>
        <pt x="118" y="68" on="1"/>
        <pt x="170" y="27" on="0"/>
        <pt x="298" y="27" on="0"/>
        <pt x="359" y="57" on="1"/>
        <pt x="373" y="23" on="0"/>
        <pt x="375" y="11" on="1"/>
        <pt x="311" y="-21" on="0"/>
        <pt x="233" y="-21" on="1"/>
        <pt x="141" y="-21" on="0"/>
        <pt x="20" y="84" on="0"/>
        <pt x="20" y="169" on="1"/>
        <pt x="20" y="343" on="1"/>
      </contour>
      <contour>
        <pt x="307" y="323" on="1"/>
        <pt x="307" y="387" on="0"/>
        <pt x="170" y="387" on="0"/>
        <pt x="170" y="323" on="1"/>
        <pt x="170" y="193" on="1"/>
        <pt x="170" y="128" on="0"/>
        <pt x="239" y="128" on="1"/>
        <pt x="284" y="128" on="0"/>
        <pt x="307" y="163" on="1"/>
      </contour>
    </TTGlyph>
    <TTGlyph name="atilde" xMin="73" yMin="0" xMax="475" yMax="688">
      <contour>
        <pt x="73" y="416" on="0"/>
        <pt x="169" y="502" on="0"/>
        <pt x="323" y="502" on="0"/>
        <pt x="417" y="415" on="0"/>
        <pt x="417" y="337" on="1"/>
        <pt x="417" y="117" on="1"/>
        <pt x="417" y="78" on="0"/>
        <pt x="430" y="49" on="0"/>
        <pt x="449" y="44" on="1"/>
        <pt x="460" y="41" on="1"/>
        <pt x="475" y="38" on="0"/>
        <pt x="475" y="28" on="1"/>
        <pt x="475" y="17" on="1"/>
        <pt x="475" y="0" on="0"/>
        <pt x="455" y="0" on="1"/>
        <pt x="406" y="0" on="0"/>
        <pt x="370" y="58" on="0"/>
        <pt x="370" y="118" on="1"/>
        <pt x="370" y="337" on="1"/>
        <pt x="370" y="394" on="0"/>
        <pt x="300" y="455" on="0"/>
        <pt x="192" y="455" on="0"/>
        <pt x="120" y="394" on="0"/>
        <pt x="120" y="337" on="1"/>
        <pt x="120" y="166" on="1"/>
        <pt x="120" y="107" on="0"/>
        <pt x="179" y="47" on="0"/>
        <pt x="290" y="47" on="0"/>
        <pt x="326" y="92" on="1"/>
        <pt x="333" y="101" on="0"/>
        <pt x="358" y="101" on="0"/>
        <pt x="363" y="86" on="1"/>
        <pt x="366" y="74" on="0"/>
        <pt x="360" y="65" on="1"/>
        <pt x="317" y="0" on="0"/>
        <pt x="156" y="0" on="0"/>
        <pt x="73" y="86" on="0"/>
        <pt x="73" y="165" on="1"/>
        <pt x="73" y="337" on="1"/>
      </contour>
      <contour>
        <pt x="387" y="688" on="1"/>
        <pt x="411" y="688" on="1"/>
        <pt x="424" y="688" on="0"/>
        <pt x="424" y="671" on="1"/>
        <pt x="424" y="615" on="0"/>
        <pt x="376" y="558" on="0"/>
        <pt x="332" y="558" on="1"/>
        <pt x="308" y="558" on="0"/>
        <pt x="266" y="582" on="0"/>
        <pt x="217" y="625" on="0"/>
        <pt x="189" y="643" on="0"/>
        <pt x="151" y="643" on="0"/>
        <pt x="121" y="610" on="0"/>
        <pt x="121" y="574" on="1"/>
        <pt x="121" y="558" on="0"/>
        <pt x="106" y="558" on="1"/>
        <pt x="91" y="558" on="1"/>
        <pt x="78" y="558" on="0"/>
        <pt x="78" y="578" on="1"/>
        <pt x="78" y="630" on="0"/>
        <pt x="129" y="686" on="0"/>
        <pt x="173" y="686" on="1"/>
        <pt x="209" y="686" on="0"/>
        <pt x="254" y="650" on="1"/>
        <pt x="259" y="646" on="0"/>
        <pt x="286" y="624" on="0"/>
        <pt x="291" y="620" on="1"/>
        <pt x="313" y="602" on="0"/>
        <pt x="330" y="602" on="1"/>
        <pt x="378" y="602" on="0"/>
        <pt x="378" y="670" on="1"/>
        <pt x="378" y="673" on="0"/>
        <pt x="378" y="676" on="1"/>
        <pt x="378" y="688" on="0"/>
      </contour>
    </TTGlyph>
    <TTGlyph name="b" xMin="49" yMin="-2" xMax="394" yMax="730">
      <contour>
        <pt x="69" y="730" on="1"/>
        <pt x="77" y="730" on="1"/>
        <pt x="85" y="730" on="0"/>
        <pt x="97" y="719" on="0"/>
        <pt x="97" y="711" on="1"/>
        <pt x="97" y="452" on="1"/>
        <pt x="149" y="502" on="0"/>
        <pt x="305" y="502" on="0"/>
        <pt x="394" y="415" on="0"/>
        <pt x="394" y="337" on="1"/>
        <pt x="394" y="163" on="1"/>
        <pt x="394" y="84" on="0"/>
        <pt x="298" y="-2" on="0"/>
        <pt x="144" y="-2" on="0"/>
        <pt x="49" y="85" on="0"/>
        <pt x="49" y="163" on="1"/>
        <pt x="49" y="711" on="1"/>
        <pt x="49" y="719" on="0"/>
        <pt x="61" y="730" on="0"/>
      </contour>
      <contour>
        <pt x="229" y="454" on="1"/>
        <pt x="143" y="454" on="0"/>
        <pt x="97" y="393" on="1"/>
        <pt x="97" y="164" on="1"/>
        <pt x="97" y="107" on="0"/>
        <pt x="167" y="46" on="0"/>
        <pt x="275" y="46" on="0"/>
        <pt x="346" y="106" on="0"/>
        <pt x="346" y="164" on="1"/>
        <pt x="346" y="335" on="1"/>
        <pt x="346" y="393" on="0"/>
        <pt x="282" y="454" on="0"/>
      </contour>
    </TTGlyph>
    <TTGlyph name="backslash" xMin="-6" yMin="0" xMax="296" yMax="684">
      <contour>
        <pt x="15" y="684" on="1"/>
        <pt x="26" y="684" on="1"/>
        <pt x="38" y="684" on="0"/>
        <pt x="45" y="671" on="1"/>
        <pt x="294" y="26" on="1"/>
        <pt x="295" y="22" on="0"/>
        <pt x="295" y="13" on="0"/>
        <pt x="287" y="0" on="0"/>
        <pt x="276" y="0" on="1"/>
        <pt x="266" y="0" on="1"/>
        <pt x="253" y="0" on="0"/>
        <pt x="247" y="13" on="1"/>
        <pt x="-4" y="658" on="1"/>
        <pt x="-5" y="662" on="0"/>
        <pt x="-5" y="671" on="0"/>
        <pt x="4" y="684" on="0"/>
      </contour>
    </TTGlyph>
    <TTGlyph name="bar" xMin="76" yMin="-92" xMax="126" yMax="730">
      <contour>
        <pt x="95" y="730" on="1"/>
        <pt x="107" y="730" on="1"/>
        <pt x="126" y="730" on="0"/>
        <pt x="126" y="711" on="1"/>
        <pt x="126" y="-72" on="1"/>
        <pt x="126" y="-80" on="0"/>
        <pt x="115" y="-92" on="0"/>
        <pt x="107" y="-92" on="1"/>
        <pt x="95" y="-92" on="1"/>
        <pt x="87" y="-92" on="0"/>
        <pt x="76" y="-80" on="0"/>
        <pt x="76" y="-72" on="1"/>
        <pt x="76" y="711" on="1"/>
        <pt x="76" y="730" on="0"/>
      </contour>
    </TTGlyph>
    <TTGlyph name="braceleft" xMin="-2" yMin="-2" xMax="312" yMax="687">
      <contour>
        <pt x="291" y="687" on="1"/>
        <pt x="302" y="687" on="0"/>
        <pt x="311" y="675" on="0"/>
        <pt x="311" y="671" on="1"/>
        <pt x="311" y="652" on="0"/>
        <pt x="293" y="639" on="0"/>
        <pt x="288" y="639" on="1"/>
        <pt x="151" y="636" on="0"/>
        <pt x="151" y="515" on="1"/>
        <pt x="151" y="487" on="1"/>
        <pt x="151" y="481" on="0"/>
        <pt x="151" y="475" on="1"/>
        <pt x="151" y="372" on="0"/>
        <pt x="103" y="341" on="1"/>
        <pt x="139" y="318" on="0"/>
        <pt x="146" y="271" on="1"/>
        <pt x="151" y="233" on="0"/>
        <pt x="151" y="197" on="1"/>
        <pt x="151" y="170" on="1"/>
        <pt x="151" y="49" on="0"/>
        <pt x="291" y="46" on="1"/>
        <pt x="299" y="46" on="0"/>
        <pt x="311" y="35" on="0"/>
        <pt x="311" y="27" on="1"/>
        <pt x="307" y="12" on="1"/>
        <pt x="303" y="-2" on="0"/>
        <pt x="288" y="-2" on="1"/>
        <pt x="103" y="1" on="0"/>
        <pt x="103" y="170" on="1"/>
        <pt x="103" y="195" on="1"/>
        <pt x="103" y="200" on="0"/>
        <pt x="103" y="205" on="1"/>
        <pt x="103" y="309" on="0"/>
        <pt x="40" y="309" on="1"/>
        <pt x="35" y="309" on="1"/>
        <pt x="21" y="309" on="0"/>
        <pt x="-2" y="326" on="0"/>
        <pt x="-2" y="358" on="0"/>
        <pt x="21" y="374" on="0"/>
        <pt x="35" y="374" on="1"/>
        <pt x="40" y="374" on="1"/>
        <pt x="103" y="374" on="0"/>
        <pt x="103" y="477" on="1"/>
        <pt x="103" y="482" on="0"/>
        <pt x="103" y="487" on="1"/>
        <pt x="103" y="515" on="1"/>
        <pt x="103" y="684" on="0"/>
      </contour>
    </TTGlyph>
    <TTGlyph name="braceright" xMin="14" yMin="-2" xMax="327" yMax="687">
      <contour>
        <pt x="222" y="515" on="1"/>
        <pt x="222" y="487" on="1"/>
        <pt x="222" y="482" on="0"/>
        <pt x="222" y="477" on="1"/>
        <pt x="222" y="374" on="0"/>
        <pt x="285" y="374" on="1"/>
        <pt x="291" y="374" on="1"/>
        <pt x="304" y="374" on="0"/>
        <pt x="327" y="358" on="0"/>
        <pt x="327" y="326" on="0"/>
        <pt x="304" y="309" on="0"/>
        <pt x="291" y="309" on="1"/>
        <pt x="285" y="309" on="1"/>
        <pt x="222" y="309" on="0"/>
        <pt x="222" y="205" on="1"/>
        <pt x="222" y="200" on="0"/>
        <pt x="222" y="195" on="1"/>
        <pt x="222" y="170" on="1"/>
        <pt x="222" y="1" on="0"/>
        <pt x="34" y="-2" on="1"/>
        <pt x="15" y="-2" on="0"/>
        <pt x="15" y="18" on="1"/>
        <pt x="19" y="32" on="1"/>
        <pt x="20" y="38" on="0"/>
        <pt x="32" y="46" on="0"/>
        <pt x="37" y="46" on="1"/>
        <pt x="175" y="49" on="0"/>
        <pt x="175" y="170" on="1"/>
        <pt x="175" y="197" on="1"/>
        <pt x="175" y="309" on="0"/>
        <pt x="222" y="341" on="1"/>
        <pt x="199" y="355" on="0"/>
        <pt x="176" y="416" on="0"/>
        <pt x="174" y="444" on="0"/>
        <pt x="174" y="470" on="0"/>
        <pt x="175" y="487" on="1"/>
        <pt x="175" y="515" on="1"/>
        <pt x="175" y="636" on="0"/>
        <pt x="34" y="639" on="1"/>
        <pt x="23" y="639" on="0"/>
        <pt x="14" y="651" on="0"/>
        <pt x="14" y="655" on="1"/>
        <pt x="14" y="659" on="0"/>
        <pt x="19" y="673" on="1"/>
        <pt x="24" y="687" on="0"/>
        <pt x="37" y="687" on="1"/>
        <pt x="222" y="684" on="0"/>
      </contour>
    </TTGlyph>
    <TTGlyph name="bracketleft" xMin="108" yMin="0" xMax="305" yMax="699">
      <contour>
        <pt x="146" y="699" on="1"/>
        <pt x="286" y="699" on="1"/>
        <pt x="305" y="699" on="0"/>
        <pt x="305" y="680" on="1"/>
        <pt x="305" y="670" on="1"/>
        <pt x="305" y="651" on="0"/>
        <pt x="286" y="651" on="1"/>
        <pt x="157" y="651" on="1"/>
        <pt x="157" y="48" on="1"/>
        <pt x="286" y="48" on="1"/>
        <pt x="305" y="48" on="0"/>
        <pt x="305" y="29" on="1"/>
        <pt x="305" y="20" on="1"/>
        <pt x="305" y="0" on="0"/>
        <pt x="286" y="0" on="1"/>
        <pt x="147" y="0" on="1"/>
        <pt x="109" y="0" on="0"/>
        <pt x="109" y="38" on="1"/>
        <pt x="108" y="659" on="1"/>
        <pt x="108" y="699" on="0"/>
      </contour>
    </TTGlyph>
    <TTGlyph name="bracketright" xMin="108" yMin="0" xMax="305" yMax="699">
      <contour>
        <pt x="127" y="699" on="1"/>
        <pt x="267" y="699" on="1"/>
        <pt x="305" y="699" on="0"/>
        <pt x="305" y="659" on="1"/>
        <pt x="305" y="39" on="1"/>
        <pt x="305" y="0" on="0"/>
        <pt x="266" y="0" on="1"/>
        <pt x="127" y="0" on="1"/>
        <pt x="108" y="0" on="0"/>
        <pt x="108" y="20" on="1"/>
        <pt x="108" y="29" on="1"/>
        <pt x="108" y="48" on="0"/>
        <pt x="127" y="48" on="1"/>
        <pt x="256" y="48" on="1"/>
        <pt x="256" y="651" on="1"/>
        <pt x="127" y="651" on="1"/>
        <pt x="108" y="651" on="0"/>
        <pt x="108" y="670" on="1"/>
        <pt x="108" y="680" on="1"/>
        <pt x="108" y="699" on="0"/>
      </contour>
    </TTGlyph>
    <TTGlyph name="breve" xMin="168" yMin="553" xMax="451" yMax="694">
      <contour>
        <pt x="450" y="675" on="1"/>
        <pt x="450" y="618" on="0"/>
        <pt x="392" y="580" on="1"/>
        <pt x="351" y="553" on="0"/>
        <pt x="285" y="553" on="0"/>
        <pt x="236" y="570" on="0"/>
        <pt x="169" y="640" on="0"/>
        <pt x="169" y="675" on="1"/>
        <pt x="169" y="678" on="0"/>
        <pt x="170" y="679" on="1"/>
        <pt x="201" y="693" on="1"/>
        <pt x="203" y="694" on="0"/>
        <pt x="208" y="694" on="0"/>
        <pt x="209" y="690" on="1"/>
        <pt x="220" y="654" on="0"/>
        <pt x="276" y="611" on="0"/>
        <pt x="344" y="611" on="0"/>
        <pt x="399" y="654" on="0"/>
        <pt x="410" y="690" on="1"/>
        <pt x="411" y="694" on="0"/>
        <pt x="416" y="694" on="0"/>
        <pt x="418" y="693" on="1"/>
        <pt x="449" y="679" on="1"/>
        <pt x="450" y="678" on="0"/>
      </contour>
    </TTGlyph>
    <TTGlyph name="brokenbar" xMin="73" yMin="3" xMax="121" yMax="684">
      <contour>
        <pt x="93" y="684" on="1"/>
        <pt x="102" y="684" on="1"/>
        <pt x="121" y="684" on="0"/>
        <pt x="121" y="665" on="1"/>
        <pt x="121" y="425" on="1"/>
        <pt x="121" y="417" on="0"/>
        <pt x="110" y="405" on="0"/>
        <pt x="102" y="405" on="1"/>
        <pt x="93" y="405" on="1"/>
        <pt x="84" y="405" on="0"/>
        <pt x="73" y="417" on="0"/>
        <pt x="73" y="425" on="1"/>
        <pt x="73" y="665" on="1"/>
        <pt x="73" y="684" on="0"/>
      </contour>
      <contour>
        <pt x="93" y="282" on="1"/>
        <pt x="102" y="282" on="1"/>
        <pt x="110" y="282" on="0"/>
        <pt x="121" y="270" on="0"/>
        <pt x="121" y="262" on="1"/>
        <pt x="121" y="22" on="1"/>
        <pt x="121" y="3" on="0"/>
        <pt x="102" y="3" on="1"/>
        <pt x="93" y="3" on="1"/>
        <pt x="73" y="3" on="0"/>
        <pt x="73" y="22" on="1"/>
        <pt x="73" y="262" on="1"/>
        <pt x="73" y="270" on="0"/>
        <pt x="84" y="282" on="0"/>
      </contour>
    </TTGlyph>
    <TTGlyph name="bullet" xMin="167" yMin="146" xMax="451" yMax="430">
      <contour>
        <pt x="250" y="430" on="0"/>
        <pt x="368" y="430" on="0"/>
        <pt x="451" y="346" on="0"/>
        <pt x="451" y="230" on="0"/>
        <pt x="368" y="146" on="0"/>
        <pt x="250" y="146" on="0"/>
        <pt x="167" y="230" on="0"/>
        <pt x="167" y="346" on="0"/>
      </contour>
      <contour>
        <pt x="346" y="375" on="0"/>
        <pt x="272" y="375" on="0"/>
        <pt x="222" y="325" on="0"/>
        <pt x="222" y="251" on="0"/>
        <pt x="272" y="201" on="0"/>
        <pt x="346" y="201" on="0"/>
        <pt x="396" y="251" on="0"/>
        <pt x="396" y="325" on="0"/>
      </contour>
    </TTGlyph>
    <TTGlyph name="c" xMin="70" yMin="-2" xMax="414" yMax="502">
      <contour>
        <pt x="70" y="416" on="0"/>
        <pt x="166" y="502" on="0"/>
        <pt x="320" y="502" on="0"/>
        <pt x="414" y="415" on="0"/>
        <pt x="414" y="337" on="1"/>
        <pt x="414" y="318" on="0"/>
        <pt x="394" y="318" on="1"/>
        <pt x="386" y="318" on="1"/>
        <pt x="367" y="318" on="0"/>
        <pt x="367" y="337" on="1"/>
        <pt x="367" y="394" on="0"/>
        <pt x="297" y="454" on="0"/>
        <pt x="189" y="454" on="0"/>
        <pt x="118" y="393" on="0"/>
        <pt x="118" y="336" on="1"/>
        <pt x="118" y="164" on="1"/>
        <pt x="118" y="107" on="0"/>
        <pt x="189" y="46" on="0"/>
        <pt x="297" y="46" on="0"/>
        <pt x="366" y="105" on="0"/>
        <pt x="367" y="160" on="1"/>
        <pt x="367" y="168" on="0"/>
        <pt x="378" y="180" on="0"/>
        <pt x="386" y="180" on="1"/>
        <pt x="394" y="180" on="1"/>
        <pt x="403" y="180" on="0"/>
        <pt x="414" y="168" on="0"/>
        <pt x="414" y="160" on="1"/>
        <pt x="412" y="84" on="0"/>
        <pt x="318" y="-2" on="0"/>
        <pt x="167" y="-2" on="0"/>
        <pt x="70" y="85" on="0"/>
        <pt x="70" y="163" on="1"/>
        <pt x="70" y="337" on="1"/>
      </contour>
    </TTGlyph>
    <TTGlyph name="caron" xMin="148" yMin="537" xMax="448" yMax="693">
      <contour>
        <pt x="386" y="670" on="0"/>
        <pt x="415" y="693" on="0"/>
        <pt x="441" y="693" on="0"/>
        <pt x="446" y="681" on="1"/>
        <pt x="448" y="677" on="0"/>
        <pt x="448" y="666" on="0"/>
        <pt x="442" y="661" on="1"/>
        <pt x="335" y="556" on="1"/>
        <pt x="334" y="555" on="0"/>
        <pt x="326" y="548" on="0"/>
        <pt x="322" y="544" on="0"/>
        <pt x="318" y="542" on="1"/>
        <pt x="311" y="537" on="0"/>
        <pt x="299" y="537" on="1"/>
        <pt x="297" y="537" on="1"/>
        <pt x="281" y="537" on="0"/>
        <pt x="270" y="548" on="0"/>
        <pt x="262" y="555" on="0"/>
        <pt x="261" y="556" on="1"/>
        <pt x="154" y="661" on="1"/>
        <pt x="148" y="666" on="0"/>
        <pt x="148" y="677" on="0"/>
        <pt x="150" y="681" on="1"/>
        <pt x="155" y="693" on="0"/>
        <pt x="181" y="693" on="0"/>
        <pt x="210" y="670" on="0"/>
        <pt x="296" y="592" on="1"/>
        <pt x="298" y="590" on="1"/>
        <pt x="300" y="592" on="1"/>
      </contour>
    </TTGlyph>
    <TTGlyph name="ccedilla" xMin="70" yMin="-269" xMax="414" yMax="502">
      <contour>
        <pt x="70" y="416" on="0"/>
        <pt x="166" y="502" on="0"/>
        <pt x="320" y="502" on="0"/>
        <pt x="414" y="415" on="0"/>
        <pt x="414" y="337" on="1"/>
        <pt x="414" y="318" on="0"/>
        <pt x="394" y="318" on="1"/>
        <pt x="386" y="318" on="1"/>
        <pt x="367" y="318" on="0"/>
        <pt x="367" y="337" on="1"/>
        <pt x="367" y="394" on="0"/>
        <pt x="297" y="454" on="0"/>
        <pt x="189" y="454" on="0"/>
        <pt x="118" y="393" on="0"/>
        <pt x="118" y="336" on="1"/>
        <pt x="118" y="164" on="1"/>
        <pt x="118" y="107" on="0"/>
        <pt x="189" y="46" on="0"/>
        <pt x="297" y="46" on="0"/>
        <pt x="366" y="105" on="0"/>
        <pt x="367" y="160" on="1"/>
        <pt x="367" y="168" on="0"/>
        <pt x="378" y="180" on="0"/>
        <pt x="386" y="180" on="1"/>
        <pt x="394" y="180" on="1"/>
        <pt x="403" y="180" on="0"/>
        <pt x="414" y="168" on="0"/>
        <pt x="414" y="160" on="1"/>
        <pt x="412" y="84" on="0"/>
        <pt x="318" y="-2" on="0"/>
        <pt x="167" y="-2" on="0"/>
        <pt x="70" y="85" on="0"/>
        <pt x="70" y="163" on="1"/>
        <pt x="70" y="337" on="1"/>
      </contour>
      <contour>
        <pt x="337" y="-142" on="1"/>
        <pt x="337" y="-184" on="1"/>
        <pt x="337" y="-224" on="0"/>
        <pt x="282" y="-269" on="0"/>
        <pt x="217" y="-269" on="0"/>
        <pt x="166" y="-248" on="0"/>
        <pt x="154" y="-234" on="1"/>
        <pt x="177" y="-196" on="1"/>
        <pt x="188" y="-211" on="0"/>
        <pt x="227" y="-226" on="0"/>
        <pt x="264" y="-226" on="0"/>
        <pt x="295" y="-201" on="0"/>
        <pt x="295" y="-177" on="1"/>
        <pt x="295" y="-149" on="1"/>
        <pt x="295" y="-126" on="0"/>
        <pt x="263" y="-100" on="0"/>
        <pt x="207" y="-100" on="0"/>
        <pt x="198" y="-103" on="1"/>
        <pt x="198" y="-102" on="1"/>
        <pt x="236" y="11" on="1"/>
        <pt x="278" y="10" on="1"/>
        <pt x="254" y="-57" on="1"/>
        <pt x="292" y="-60" on="0"/>
        <pt x="337" y="-104" on="0"/>
      </contour>
    </TTGlyph>
    <TTGlyph name="cedilla" xMin="183" yMin="-250" xMax="366" yMax="30">
      <contour>
        <pt x="366" y="-123" on="1"/>
        <pt x="366" y="-165" on="1"/>
        <pt x="366" y="-205" on="0"/>
        <pt x="311" y="-250" on="0"/>
        <pt x="246" y="-250" on="0"/>
        <pt x="195" y="-229" on="0"/>
        <pt x="183" y="-215" on="1"/>
        <pt x="206" y="-177" on="1"/>
        <pt x="217" y="-192" on="0"/>
        <pt x="256" y="-207" on="0"/>
        <pt x="293" y="-207" on="0"/>
        <pt x="324" y="-182" on="0"/>
        <pt x="324" y="-158" on="1"/>
        <pt x="324" y="-130" on="1"/>
        <pt x="324" y="-107" on="0"/>
        <pt x="292" y="-81" on="0"/>
        <pt x="236" y="-81" on="0"/>
        <pt x="227" y="-84" on="1"/>
        <pt x="227" y="-83" on="1"/>
        <pt x="265" y="30" on="1"/>
        <pt x="307" y="29" on="1"/>
        <pt x="283" y="-38" on="1"/>
        <pt x="321" y="-41" on="0"/>
        <pt x="366" y="-85" on="0"/>
      </contour>
    </TTGlyph>
    <TTGlyph name="cent" xMin="70" yMin="-183" xMax="414" yMax="684">
      <contour>
        <pt x="242" y="684" on="1"/>
        <pt x="249" y="684" on="1"/>
        <pt x="257" y="684" on="0"/>
        <pt x="269" y="673" on="0"/>
        <pt x="269" y="665" on="1"/>
        <pt x="269" y="501" on="1"/>
        <pt x="335" y="494" on="0"/>
        <pt x="414" y="409" on="0"/>
        <pt x="414" y="337" on="1"/>
        <pt x="414" y="318" on="0"/>
        <pt x="394" y="318" on="1"/>
        <pt x="386" y="318" on="1"/>
        <pt x="367" y="318" on="0"/>
        <pt x="367" y="337" on="1"/>
        <pt x="367" y="386" on="0"/>
        <pt x="313" y="445" on="0"/>
        <pt x="269" y="452" on="1"/>
        <pt x="269" y="47" on="1"/>
        <pt x="312" y="54" on="0"/>
        <pt x="366" y="112" on="0"/>
        <pt x="367" y="160" on="1"/>
        <pt x="367" y="168" on="0"/>
        <pt x="378" y="180" on="0"/>
        <pt x="386" y="180" on="1"/>
        <pt x="394" y="180" on="1"/>
        <pt x="403" y="180" on="0"/>
        <pt x="414" y="168" on="0"/>
        <pt x="414" y="160" on="1"/>
        <pt x="412" y="90" on="0"/>
        <pt x="333" y="6" on="0"/>
        <pt x="269" y="-1" on="1"/>
        <pt x="269" y="-164" on="1"/>
        <pt x="269" y="-172" on="0"/>
        <pt x="257" y="-183" on="0"/>
        <pt x="249" y="-183" on="1"/>
        <pt x="242" y="-183" on="1"/>
        <pt x="234" y="-183" on="0"/>
        <pt x="222" y="-172" on="0"/>
        <pt x="222" y="-164" on="1"/>
        <pt x="222" y="-1" on="1"/>
        <pt x="153" y="5" on="0"/>
        <pt x="70" y="91" on="0"/>
        <pt x="70" y="163" on="1"/>
        <pt x="70" y="337" on="1"/>
        <pt x="70" y="410" on="0"/>
        <pt x="153" y="495" on="0"/>
        <pt x="222" y="501" on="1"/>
        <pt x="222" y="665" on="1"/>
        <pt x="222" y="673" on="0"/>
        <pt x="234" y="684" on="0"/>
      </contour>
      <contour>
        <pt x="118" y="164" on="1"/>
        <pt x="118" y="112" on="0"/>
        <pt x="175" y="53" on="0"/>
        <pt x="222" y="47" on="1"/>
        <pt x="222" y="453" on="1"/>
        <pt x="175" y="447" on="0"/>
        <pt x="118" y="387" on="0"/>
        <pt x="118" y="336" on="1"/>
      </contour>
    </TTGlyph>
    <TTGlyph name="circumflex" xMin="60" yMin="549" xMax="381" yMax="752">
      <contour>
        <pt x="181" y="733" on="1"/>
        <pt x="195" y="752" on="0"/>
        <pt x="241" y="752" on="0"/>
        <pt x="255" y="733" on="1"/>
        <pt x="376" y="581" on="1"/>
        <pt x="381" y="575" on="0"/>
        <pt x="381" y="567" on="1"/>
        <pt x="381" y="549" on="0"/>
        <pt x="361" y="549" on="1"/>
        <pt x="348" y="549" on="1"/>
        <pt x="337" y="549" on="0"/>
        <pt x="333" y="555" on="1"/>
        <pt x="220" y="700" on="1"/>
        <pt x="218" y="702" on="1"/>
        <pt x="107" y="555" on="1"/>
        <pt x="103" y="549" on="0"/>
        <pt x="93" y="549" on="1"/>
        <pt x="80" y="549" on="1"/>
        <pt x="60" y="549" on="0"/>
        <pt x="60" y="567" on="1"/>
        <pt x="60" y="573" on="0"/>
        <pt x="65" y="581" on="1"/>
      </contour>
    </TTGlyph>
    <TTGlyph name="colon" xMin="40" yMin="-3" xMax="154" yMax="441">
      <contour>
        <pt x="60" y="441" on="0"/>
        <pt x="132" y="441" on="0"/>
        <pt x="154" y="422" on="0"/>
        <pt x="154" y="392" on="1"/>
        <pt x="154" y="379" on="1"/>
        <pt x="154" y="345" on="0"/>
        <pt x="132" y="327" on="0"/>
        <pt x="60" y="327" on="0"/>
        <pt x="40" y="345" on="0"/>
        <pt x="40" y="379" on="1"/>
        <pt x="40" y="392" on="1"/>
        <pt x="40" y="424" on="0"/>
      </contour>
      <contour>
        <pt x="60" y="111" on="0"/>
        <pt x="132" y="111" on="0"/>
        <pt x="154" y="92" on="0"/>
        <pt x="154" y="62" on="1"/>
        <pt x="154" y="49" on="1"/>
        <pt x="154" y="15" on="0"/>
        <pt x="132" y="-3" on="0"/>
        <pt x="60" y="-3" on="0"/>
        <pt x="40" y="15" on="0"/>
        <pt x="40" y="49" on="1"/>
        <pt x="40" y="62" on="1"/>
        <pt x="40" y="94" on="0"/>
      </contour>
      <contour>
        <pt x="119" y="69" on="0"/>
        <pt x="110" y="76" on="0"/>
        <pt x="83" y="76" on="0"/>
        <pt x="75" y="70" on="0"/>
        <pt x="75" y="59" on="1"/>
        <pt x="75" y="49" on="1"/>
        <pt x="75" y="38" on="0"/>
        <pt x="83" y="32" on="0"/>
        <pt x="111" y="32" on="0"/>
        <pt x="119" y="38" on="0"/>
        <pt x="119" y="49" on="1"/>
        <pt x="119" y="59" on="1"/>
      </contour>
      <contour>
        <pt x="119" y="399" on="0"/>
        <pt x="110" y="406" on="0"/>
        <pt x="83" y="406" on="0"/>
        <pt x="75" y="400" on="0"/>
        <pt x="75" y="389" on="1"/>
        <pt x="75" y="379" on="1"/>
        <pt x="75" y="368" on="0"/>
        <pt x="83" y="362" on="0"/>
        <pt x="111" y="362" on="0"/>
        <pt x="119" y="368" on="0"/>
        <pt x="119" y="379" on="1"/>
        <pt x="119" y="389" on="1"/>
      </contour>
    </TTGlyph>
    <TTGlyph name="comma" xMin="2" yMin="-136" xMax="107" yMax="139">
      <contour>
        <pt x="78" y="139" on="1"/>
        <pt x="91" y="139" on="1"/>
        <pt x="110" y="139" on="0"/>
        <pt x="107" y="120" on="1"/>
        <pt x="90" y="44" on="0"/>
        <pt x="50" y="-123" on="1"/>
        <pt x="47" y="-136" on="0"/>
        <pt x="31" y="-136" on="1"/>
        <pt x="19" y="-136" on="1"/>
        <pt x="-1" y="-136" on="0"/>
        <pt x="2" y="-117" on="1"/>
        <pt x="59" y="126" on="1"/>
        <pt x="63" y="139" on="0"/>
      </contour>
    </TTGlyph>
    <TTGlyph name="copyright" xMin="20" yMin="0" xMax="600" yMax="756">
      <contour>
        <pt x="179" y="756" on="0"/>
        <pt x="445" y="756" on="0"/>
        <pt x="600" y="603" on="0"/>
        <pt x="600" y="478" on="1"/>
        <pt x="600" y="278" on="1"/>
        <pt x="600" y="153" on="0"/>
        <pt x="445" y="0" on="0"/>
        <pt x="181" y="0" on="0"/>
        <pt x="20" y="154" on="0"/>
        <pt x="20" y="278" on="1"/>
        <pt x="20" y="478" on="1"/>
        <pt x="20" y="607" on="0"/>
      </contour>
      <contour>
        <pt x="152" y="527" on="0"/>
        <pt x="239" y="605" on="0"/>
        <pt x="379" y="605" on="0"/>
        <pt x="464" y="526" on="0"/>
        <pt x="464" y="455" on="1"/>
        <pt x="464" y="438" on="0"/>
        <pt x="446" y="438" on="1"/>
        <pt x="438" y="438" on="1"/>
        <pt x="431" y="438" on="0"/>
        <pt x="421" y="448" on="0"/>
        <pt x="421" y="455" on="1"/>
        <pt x="421" y="506" on="0"/>
        <pt x="358" y="561" on="0"/>
        <pt x="260" y="561" on="0"/>
        <pt x="196" y="506" on="0"/>
        <pt x="196" y="454" on="1"/>
        <pt x="196" y="298" on="1"/>
        <pt x="196" y="246" on="0"/>
        <pt x="260" y="191" on="0"/>
        <pt x="358" y="191" on="0"/>
        <pt x="420" y="244" on="0"/>
        <pt x="421" y="294" on="1"/>
        <pt x="421" y="312" on="0"/>
        <pt x="438" y="312" on="1"/>
        <pt x="446" y="312" on="1"/>
        <pt x="464" y="312" on="0"/>
        <pt x="464" y="294" on="1"/>
        <pt x="462" y="225" on="0"/>
        <pt x="377" y="147" on="0"/>
        <pt x="240" y="147" on="0"/>
        <pt x="152" y="227" on="0"/>
        <pt x="152" y="297" on="1"/>
        <pt x="152" y="455" on="1"/>
      </contour>
      <contour>
        <pt x="412" y="708" on="0"/>
        <pt x="212" y="708" on="0"/>
        <pt x="68" y="595" on="0"/>
        <pt x="68" y="492" on="1"/>
        <pt x="68" y="264" on="1"/>
        <pt x="68" y="161" on="0"/>
        <pt x="212" y="48" on="0"/>
        <pt x="412" y="48" on="0"/>
        <pt x="552" y="160" on="0"/>
        <pt x="552" y="264" on="1"/>
        <pt x="552" y="492" on="1"/>
        <pt x="552" y="596" on="0"/>
      </contour>
    </TTGlyph>
    <TTGlyph name="currency" xMin="60" yMin="86" xMax="549" yMax="575">
      <contour>
        <pt x="65" y="536" on="1"/>
        <pt x="60" y="543" on="0"/>
        <pt x="60" y="558" on="0"/>
        <pt x="77" y="575" on="0"/>
        <pt x="92" y="575" on="0"/>
        <pt x="99" y="570" on="1"/>
        <pt x="174" y="493" on="1"/>
        <pt x="230" y="539" on="0"/>
        <pt x="378" y="539" on="0"/>
        <pt x="434" y="494" on="1"/>
        <pt x="510" y="570" on="1"/>
        <pt x="515" y="575" on="0"/>
        <pt x="534" y="575" on="0"/>
        <pt x="549" y="560" on="0"/>
        <pt x="549" y="541" on="0"/>
        <pt x="544" y="536" on="1"/>
        <pt x="467" y="460" on="1"/>
        <pt x="512" y="404" on="0"/>
        <pt x="512" y="258" on="0"/>
        <pt x="467" y="201" on="1"/>
        <pt x="544" y="125" on="1"/>
        <pt x="549" y="118" on="0"/>
        <pt x="549" y="103" on="0"/>
        <pt x="532" y="86" on="0"/>
        <pt x="517" y="86" on="0"/>
        <pt x="510" y="91" on="1"/>
        <pt x="434" y="168" on="1"/>
        <pt x="378" y="124" on="0"/>
        <pt x="233" y="124" on="0"/>
        <pt x="175" y="168" on="1"/>
        <pt x="99" y="91" on="1"/>
        <pt x="92" y="86" on="0"/>
        <pt x="85" y="86" on="1"/>
        <pt x="75" y="86" on="0"/>
        <pt x="65" y="96" on="1"/>
        <pt x="60" y="104" on="0"/>
        <pt x="60" y="118" on="0"/>
        <pt x="65" y="125" on="1"/>
        <pt x="142" y="201" on="1"/>
        <pt x="97" y="258" on="0"/>
        <pt x="97" y="404" on="0"/>
        <pt x="141" y="460" on="1"/>
      </contour>
      <contour>
        <pt x="464" y="397" on="0"/>
        <pt x="370" y="491" on="0"/>
        <pt x="239" y="491" on="0"/>
        <pt x="146" y="398" on="0"/>
        <pt x="146" y="265" on="0"/>
        <pt x="238" y="173" on="0"/>
        <pt x="371" y="173" on="0"/>
        <pt x="464" y="266" on="0"/>
      </contour>
    </TTGlyph>
    <TTGlyph name="d" xMin="73" yMin="-2" xMax="418" yMax="732">
      <contour>
        <pt x="388" y="732" on="1"/>
        <pt x="400" y="732" on="1"/>
        <pt x="418" y="732" on="0"/>
        <pt x="418" y="713" on="1"/>
        <pt x="418" y="163" on="1"/>
        <pt x="418" y="85" on="0"/>
        <pt x="323" y="-2" on="0"/>
        <pt x="169" y="-2" on="0"/>
        <pt x="73" y="84" on="0"/>
        <pt x="73" y="163" on="1"/>
        <pt x="73" y="337" on="1"/>
        <pt x="73" y="414" on="0"/>
        <pt x="169" y="500" on="0"/>
        <pt x="246" y="500" on="1"/>
        <pt x="278" y="500" on="0"/>
        <pt x="351" y="476" on="0"/>
        <pt x="370" y="461" on="1"/>
        <pt x="370" y="713" on="1"/>
        <pt x="370" y="732" on="0"/>
      </contour>
      <contour>
        <pt x="370" y="406" on="1"/>
        <pt x="312" y="452" on="0"/>
        <pt x="192" y="452" on="0"/>
        <pt x="121" y="392" on="0"/>
        <pt x="121" y="335" on="1"/>
        <pt x="121" y="164" on="1"/>
        <pt x="121" y="106" on="0"/>
        <pt x="192" y="46" on="0"/>
        <pt x="300" y="46" on="0"/>
        <pt x="370" y="107" on="0"/>
        <pt x="370" y="164" on="1"/>
      </contour>
    </TTGlyph>
    <TTGlyph name="dagger" xMin="60" yMin="-122" xMax="382" yMax="700">
      <contour>
        <pt x="80" y="472" on="1"/>
        <pt x="196" y="472" on="1"/>
        <pt x="196" y="681" on="1"/>
        <pt x="196" y="700" on="0"/>
        <pt x="215" y="700" on="1"/>
        <pt x="227" y="700" on="1"/>
        <pt x="246" y="700" on="0"/>
        <pt x="246" y="681" on="1"/>
        <pt x="246" y="472" on="1"/>
        <pt x="363" y="472" on="1"/>
        <pt x="371" y="472" on="0"/>
        <pt x="382" y="462" on="0"/>
        <pt x="382" y="454" on="1"/>
        <pt x="382" y="441" on="1"/>
        <pt x="382" y="422" on="0"/>
        <pt x="363" y="422" on="1"/>
        <pt x="246" y="422" on="1"/>
        <pt x="246" y="-102" on="1"/>
        <pt x="246" y="-110" on="0"/>
        <pt x="235" y="-122" on="0"/>
        <pt x="227" y="-122" on="1"/>
        <pt x="215" y="-122" on="1"/>
        <pt x="207" y="-122" on="0"/>
        <pt x="196" y="-110" on="0"/>
        <pt x="196" y="-102" on="1"/>
        <pt x="196" y="422" on="1"/>
        <pt x="80" y="422" on="1"/>
        <pt x="71" y="422" on="0"/>
        <pt x="59" y="433" on="0"/>
        <pt x="60" y="441" on="1"/>
        <pt x="60" y="454" on="1"/>
        <pt x="59" y="461" on="0"/>
        <pt x="72" y="472" on="0"/>
      </contour>
    </TTGlyph>
    <TTGlyph name="daggerdbl" xMin="60" yMin="-122" xMax="382" yMax="700">
      <contour>
        <pt x="80" y="472" on="1"/>
        <pt x="196" y="472" on="1"/>
        <pt x="196" y="681" on="1"/>
        <pt x="196" y="700" on="0"/>
        <pt x="215" y="700" on="1"/>
        <pt x="227" y="700" on="1"/>
        <pt x="246" y="700" on="0"/>
        <pt x="246" y="681" on="1"/>
        <pt x="246" y="472" on="1"/>
        <pt x="363" y="472" on="1"/>
        <pt x="371" y="472" on="0"/>
        <pt x="382" y="462" on="0"/>
        <pt x="382" y="454" on="1"/>
        <pt x="382" y="441" on="1"/>
        <pt x="382" y="422" on="0"/>
        <pt x="363" y="422" on="1"/>
        <pt x="246" y="422" on="1"/>
        <pt x="246" y="223" on="1"/>
        <pt x="363" y="223" on="1"/>
        <pt x="371" y="223" on="0"/>
        <pt x="382" y="213" on="0"/>
        <pt x="382" y="205" on="1"/>
        <pt x="382" y="192" on="1"/>
        <pt x="382" y="173" on="0"/>
        <pt x="363" y="173" on="1"/>
        <pt x="246" y="173" on="1"/>
        <pt x="246" y="-102" on="1"/>
        <pt x="246" y="-110" on="0"/>
        <pt x="235" y="-122" on="0"/>
        <pt x="227" y="-122" on="1"/>
        <pt x="215" y="-122" on="1"/>
        <pt x="207" y="-122" on="0"/>
        <pt x="196" y="-110" on="0"/>
        <pt x="196" y="-102" on="1"/>
        <pt x="196" y="173" on="1"/>
        <pt x="80" y="173" on="1"/>
        <pt x="71" y="173" on="0"/>
        <pt x="59" y="184" on="0"/>
        <pt x="60" y="192" on="1"/>
        <pt x="60" y="206" on="1"/>
        <pt x="60" y="213" on="0"/>
        <pt x="72" y="223" on="0"/>
        <pt x="80" y="223" on="1"/>
        <pt x="196" y="223" on="1"/>
        <pt x="196" y="422" on="1"/>
        <pt x="80" y="422" on="1"/>
        <pt x="71" y="422" on="0"/>
        <pt x="59" y="433" on="0"/>
        <pt x="60" y="441" on="1"/>
        <pt x="60" y="455" on="1"/>
        <pt x="60" y="462" on="0"/>
        <pt x="72" y="472" on="0"/>
      </contour>
    </TTGlyph>
    <TTGlyph name="degree" xMin="90" yMin="500" xMax="348" yMax="758">
      <contour>
        <pt x="166" y="758" on="0"/>
        <pt x="272" y="758" on="0"/>
        <pt x="348" y="682" on="0"/>
        <pt x="348" y="576" on="0"/>
        <pt x="272" y="500" on="0"/>
        <pt x="166" y="500" on="0"/>
        <pt x="90" y="576" on="0"/>
        <pt x="90" y="682" on="0"/>
      </contour>
      <contour>
        <pt x="253" y="708" on="0"/>
        <pt x="185" y="708" on="0"/>
        <pt x="140" y="663" on="0"/>
        <pt x="140" y="595" on="0"/>
        <pt x="185" y="550" on="0"/>
        <pt x="253" y="550" on="0"/>
        <pt x="298" y="595" on="0"/>
        <pt x="298" y="663" on="0"/>
      </contour>
    </TTGlyph>
    <TTGlyph name="dieresis" xMin="39" yMin="563" xMax="308" yMax="667">
      <contour>
        <pt x="205" y="651" on="0"/>
        <pt x="223" y="667" on="0"/>
        <pt x="288" y="667" on="0"/>
        <pt x="308" y="650" on="0"/>
        <pt x="308" y="622" on="1"/>
        <pt x="308" y="610" on="1"/>
        <pt x="308" y="580" on="0"/>
        <pt x="288" y="563" on="0"/>
        <pt x="223" y="563" on="0"/>
        <pt x="205" y="580" on="0"/>
        <pt x="205" y="610" on="1"/>
        <pt x="205" y="622" on="1"/>
      </contour>
      <contour>
        <pt x="39" y="651" on="0"/>
        <pt x="57" y="667" on="0"/>
        <pt x="122" y="667" on="0"/>
        <pt x="142" y="650" on="0"/>
        <pt x="142" y="622" on="1"/>
        <pt x="142" y="610" on="1"/>
        <pt x="142" y="580" on="0"/>
        <pt x="122" y="563" on="0"/>
        <pt x="57" y="563" on="0"/>
        <pt x="39" y="579" on="0"/>
        <pt x="39" y="610" on="1"/>
        <pt x="39" y="622" on="1"/>
      </contour>
      <contour>
        <pt x="110" y="629" on="0"/>
        <pt x="102" y="635" on="0"/>
        <pt x="78" y="635" on="0"/>
        <pt x="71" y="630" on="0"/>
        <pt x="71" y="620" on="1"/>
        <pt x="71" y="610" on="1"/>
        <pt x="71" y="600" on="0"/>
        <pt x="78" y="595" on="0"/>
        <pt x="103" y="595" on="0"/>
        <pt x="110" y="600" on="0"/>
        <pt x="110" y="610" on="1"/>
        <pt x="110" y="620" on="1"/>
      </contour>
      <contour>
        <pt x="276" y="629" on="0"/>
        <pt x="268" y="635" on="0"/>
        <pt x="244" y="635" on="0"/>
        <pt x="237" y="630" on="0"/>
        <pt x="237" y="620" on="1"/>
        <pt x="237" y="610" on="1"/>
        <pt x="237" y="600" on="0"/>
        <pt x="244" y="595" on="0"/>
        <pt x="269" y="595" on="0"/>
        <pt x="276" y="600" on="0"/>
        <pt x="276" y="610" on="1"/>
        <pt x="276" y="620" on="1"/>
      </contour>
    </TTGlyph>
    <TTGlyph name="divide" xMin="55" yMin="58" xMax="484" yMax="502">
      <contour>
        <pt x="75" y="317" on="1"/>
        <pt x="465" y="317" on="1"/>
        <pt x="484" y="317" on="0"/>
        <pt x="484" y="298" on="1"/>
        <pt x="484" y="289" on="1"/>
        <pt x="484" y="281" on="0"/>
        <pt x="473" y="269" on="0"/>
        <pt x="465" y="269" on="1"/>
        <pt x="75" y="269" on="1"/>
        <pt x="66" y="269" on="0"/>
        <pt x="55" y="281" on="0"/>
        <pt x="55" y="289" on="1"/>
        <pt x="55" y="298" on="1"/>
        <pt x="55" y="317" on="0"/>
      </contour>
      <contour>
        <pt x="227" y="502" on="0"/>
        <pt x="299" y="502" on="0"/>
        <pt x="321" y="483" on="0"/>
        <pt x="321" y="453" on="1"/>
        <pt x="321" y="440" on="1"/>
        <pt x="321" y="406" on="0"/>
        <pt x="299" y="388" on="0"/>
        <pt x="227" y="388" on="0"/>
        <pt x="207" y="406" on="0"/>
        <pt x="207" y="440" on="1"/>
        <pt x="207" y="453" on="1"/>
        <pt x="207" y="485" on="0"/>
      </contour>
      <contour>
        <pt x="227" y="172" on="0"/>
        <pt x="299" y="172" on="0"/>
        <pt x="321" y="153" on="0"/>
        <pt x="321" y="123" on="1"/>
        <pt x="321" y="110" on="1"/>
        <pt x="321" y="76" on="0"/>
        <pt x="299" y="58" on="0"/>
        <pt x="227" y="58" on="0"/>
        <pt x="207" y="76" on="0"/>
        <pt x="207" y="110" on="1"/>
        <pt x="207" y="123" on="1"/>
        <pt x="207" y="155" on="0"/>
      </contour>
      <contour>
        <pt x="286" y="130" on="0"/>
        <pt x="277" y="137" on="0"/>
        <pt x="250" y="137" on="0"/>
        <pt x="242" y="131" on="0"/>
        <pt x="242" y="120" on="1"/>
        <pt x="242" y="110" on="1"/>
        <pt x="242" y="99" on="0"/>
        <pt x="250" y="93" on="0"/>
        <pt x="278" y="93" on="0"/>
        <pt x="286" y="99" on="0"/>
        <pt x="286" y="110" on="1"/>
        <pt x="286" y="120" on="1"/>
      </contour>
      <contour>
        <pt x="286" y="460" on="0"/>
        <pt x="277" y="467" on="0"/>
        <pt x="250" y="467" on="0"/>
        <pt x="242" y="461" on="0"/>
        <pt x="242" y="450" on="1"/>
        <pt x="242" y="440" on="1"/>
        <pt x="242" y="429" on="0"/>
        <pt x="250" y="423" on="0"/>
        <pt x="278" y="423" on="0"/>
        <pt x="286" y="429" on="0"/>
        <pt x="286" y="440" on="1"/>
        <pt x="286" y="450" on="1"/>
      </contour>
    </TTGlyph>
</ttFont>
